<svg width="1380" height="900" viewBox="0 0 1380 900" fill="none" xmlns="http://www.w3.org/2000/svg">
<g clip-path="url(#clip0)">
<rect width="1402" height="900" fill="#27B2B2"/>
<g clip-path="url(#clip1)">
<path d="M455.109 -56.7731C455.109 -56.7731 479.271 32.957 572.137 125.881C665.003 218.806 754.085 282.401 788.728 318.119C823.371 353.836 877.227 380.843 877.227 380.843L913.034 534.458L644.043 534.458C644.043 534.458 589.895 440.663 580.289 403.202C570.682 365.742 470.829 291.984 370.103 239.133C269.377 186.282 219.887 149.984 143.323 49.5091C66.7597 -50.9653 75.2021 -59.0962 75.2021 -59.0962L455.109 -56.7731Z" fill="#FCD3A7" stroke="#545580" stroke-width="5.83235" stroke-miterlimit="10" stroke-linecap="round"/>
<path d="M765.729 283.853C765.729 283.853 766.603 258.008 773.299 264.397C779.994 270.785 841.711 332.057 871.987 343.673C902.263 355.288 922.059 371.55 938.361 412.205C954.664 452.859 947.968 465.346 1006.77 524.295C1065.58 583.244 1229.48 675.006 1306.91 716.532C1384.35 758.058 1501.09 800.454 1501.09 800.454L1501.09 1068.77C1501.09 1068.77 1247.82 922.127 1098.77 786.806C949.715 651.485 917.401 630.287 878.391 614.025C839.382 597.763 648.119 543.46 602.413 536.781" fill="#FCD3A7"/>
<path d="M765.729 283.853C765.729 283.853 766.603 258.008 773.299 264.397C779.994 270.785 841.711 332.057 871.987 343.673C902.263 355.288 922.059 371.55 938.361 412.205C954.664 452.859 947.968 465.346 1006.77 524.295C1065.58 583.244 1229.48 675.006 1306.91 716.532C1384.35 758.058 1501.09 800.454 1501.09 800.454L1501.09 1068.77C1501.09 1068.77 1247.82 922.127 1098.77 786.806C949.715 651.485 917.401 630.287 878.391 614.025C839.382 597.763 648.119 543.46 602.413 536.781" stroke="#545580" stroke-width="5.83235" stroke-miterlimit="10" stroke-linecap="round"/>
<path d="M588.44 412.204C588.44 412.204 566.606 404.654 560.201 395.071C553.797 385.489 560.201 368.646 560.201 368.646C560.201 368.646 569.808 357.321 598.92 352.094C598.92 352.094 789.31 346.867 815.219 359.063C841.128 371.26 867.038 408.429 867.038 408.429" fill="#FCD3A7"/>
<path d="M588.44 412.204C588.44 412.204 566.606 404.654 560.201 395.071C553.797 385.489 560.201 368.646 560.201 368.646C560.201 368.646 569.808 357.321 598.92 352.094C598.92 352.094 789.31 346.867 815.219 359.063C841.128 371.26 867.038 408.429 867.038 408.429" stroke="#545580" stroke-width="5.83235" stroke-miterlimit="10" stroke-linecap="round"/>
<path d="M719.151 278.335C719.151 278.335 836.18 290.241 848.989 302.728C848.989 302.728 862.089 319.571 887.998 332.929C913.908 346.577 940.982 357.902 938.361 378.52C935.741 399.137 909.832 412.495 905.756 429.047C901.681 445.599 881.594 467.378 860.925 455.763C840.255 444.147 834.433 396.524 844.913 386.36C855.393 376.196 807.941 356.16 807.941 356.16" fill="#FCD3A7"/>
<path d="M719.151 278.335C719.151 278.335 836.18 290.241 848.989 302.728C848.989 302.728 862.089 319.571 887.998 332.929C913.908 346.577 940.982 357.902 938.361 378.52C935.741 399.137 909.832 412.495 905.756 429.047C901.681 445.599 881.594 467.378 860.925 455.763C840.255 444.147 834.433 396.524 844.913 386.36C855.393 376.196 807.941 356.16 807.941 356.16" stroke="#545580" stroke-width="5.83235" stroke-miterlimit="10" stroke-linecap="round"/>
<path d="M590.187 459.247C590.187 459.247 563.695 465.636 561.075 452.278C558.455 438.92 559.037 418.303 577.086 408.429C595.136 398.556 586.984 398.847 605.034 395.652C623.083 392.458 679.85 392.458 679.85 392.458" fill="#FCD3A7"/>
<path d="M590.187 459.247C590.187 459.247 563.695 465.636 561.075 452.278C558.455 438.92 559.037 418.303 577.086 408.429C595.136 398.556 586.984 398.847 605.034 395.652C623.083 392.458 679.85 392.458 679.85 392.458" stroke="#545580" stroke-width="5.83235" stroke-miterlimit="10" stroke-linecap="round"/>
<path d="M770.096 633.771C755.25 633.771 734.871 627.963 734.871 588.18C734.871 548.397 732.251 467.088 740.112 459.538C747.972 451.698 774.172 445.309 787.272 469.702C800.081 494.094 793.677 509.485 793.677 523.133C793.677 537.072 811.435 578.597 804.157 600.957C796.879 623.317 784.943 633.771 770.096 633.771Z" fill="#FCD3A7" stroke="#545580" stroke-width="5.83235" stroke-miterlimit="10" stroke-linecap="round"/>
<path d="M680.141 439.211C680.141 439.211 620.754 436.016 606.489 439.211C592.224 442.405 583.2 451.407 577.377 463.023C571.555 474.638 570.973 484.221 573.593 492.642C576.213 501.063 590.478 501.063 590.478 501.063" fill="#FCD3A7"/>
<path d="M680.141 439.211C680.141 439.211 620.754 436.016 606.489 439.211C592.224 442.405 583.2 451.407 577.377 463.023C571.555 474.638 570.973 484.221 573.593 492.642C576.213 501.063 590.478 501.063 590.478 501.063" stroke="#545580" stroke-width="5.83235" stroke-miterlimit="10" stroke-linecap="round"/>
<path d="M618.134 536.781C618.134 536.781 592.224 541.718 584.655 524.295C576.795 506.871 573.302 500.192 584.655 494.094C596.009 487.996 625.994 487.996 625.994 487.996" fill="#FCD3A7"/>
<path d="M618.134 536.781C618.134 536.781 592.224 541.718 584.655 524.295C576.795 506.871 573.302 500.192 584.655 494.094C596.009 487.996 625.994 487.996 625.994 487.996" stroke="#545580" stroke-width="5.83235" stroke-miterlimit="10" stroke-linecap="round"/>
<path d="M620.171 553.333C618.134 536.781 624.538 472.896 631.816 455.472C638.803 438.049 645.79 431.37 645.79 431.37C645.79 431.37 683.635 423.239 683.635 448.503C683.635 473.476 689.166 565.53 673.155 573.951C656.852 582.372 622.209 569.595 620.171 553.333Z" fill="#FCD3A7" stroke="#545580" stroke-width="5.83235" stroke-miterlimit="10" stroke-linecap="round"/>
<path d="M647.245 447.342C647.245 447.342 651.03 444.147 659.763 444.147C668.497 444.147 683.926 451.407 677.23 463.313C670.535 475.219 662.675 477.252 655.106 469.702C647.536 462.152 647.245 447.342 647.245 447.342Z" fill="#FCD3A7" stroke="#545580" stroke-width="5.83235" stroke-miterlimit="10" stroke-linecap="round"/>
<path d="M878.392 623.317C878.392 623.317 885.669 600.086 874.898 580.049C864.127 560.012 860.051 546.074 842.584 546.074C825.117 546.074 812.017 543.751 806.486 557.108C800.955 570.466 805.321 625.35 816.675 636.965C828.32 648.581 846.369 648.581 854.811 648.581C863.254 648.581 878.392 623.317 878.392 623.317Z" fill="#FCD3A7" stroke="#545580" stroke-width="5.83235" stroke-miterlimit="10" stroke-linecap="round"/>
<path d="M677.812 583.824C677.812 583.824 669.661 486.834 674.319 447.632C679.268 408.429 711.291 414.818 723.227 426.724C735.162 438.63 734.289 473.767 734.289 473.767L734.289 592.536C734.289 592.536 727.302 603.28 711.873 603.28C696.444 603.28 677.812 583.824 677.812 583.824Z" fill="#FCD3A7" stroke="#545580" stroke-width="5.83235" stroke-miterlimit="10" stroke-linecap="round"/>
<path d="M847.242 569.305C847.242 569.305 858.887 578.016 850.153 589.632C841.42 601.247 825.991 605.603 818.713 593.116C811.435 580.63 815.802 566.981 815.802 566.981L847.242 569.305Z" fill="#FCD3A7" stroke="#545580" stroke-width="5.83235" stroke-miterlimit="10" stroke-linecap="round"/>
<path d="M688.875 433.403C688.875 433.403 715.075 426.143 719.151 437.759C723.227 449.374 723.227 463.022 709.544 463.022C695.862 463.022 691.786 461.28 688.875 451.988C685.964 443.276 688.875 433.403 688.875 433.403Z" fill="#FCD3A7" stroke="#545580" stroke-width="5.83235" stroke-miterlimit="10" stroke-linecap="round"/>
<path d="M781.45 469.411C781.45 469.411 785.817 493.223 770.387 495.836C770.387 495.836 754.958 496.707 749.136 490.9C743.314 485.092 746.807 467.378 746.807 467.378C746.807 467.378 751.756 460.99 762.236 460.99C772.716 460.99 781.45 469.411 781.45 469.411Z" fill="#FCD3A7" stroke="#545580" stroke-width="5.83235" stroke-miterlimit="10" stroke-linecap="round"/>
<path d="M872.86 406.106C872.86 406.106 878.1 397.395 882.467 401.75C886.834 406.106 900.516 418.303 900.516 426.724C900.516 435.145 883.049 460.699 874.316 444.438C865.582 428.176 872.86 406.106 872.86 406.106Z" fill="#FCD3A7" stroke="#545580" stroke-width="5.83235" stroke-miterlimit="10" stroke-linecap="round"/>
</g>
</g>
<defs>
<clipPath id="clip0">
<rect width="1402" height="900" fill="white"/>
</clipPath>
<clipPath id="clip1">
<rect width="1136" height="1432" fill="white" transform="translate(1504 -62) rotate(90)"/>
</clipPath>
</defs>
</svg>
