<svg width="1920" height="1080" viewBox="0 0 1920 1080" fill="none" xmlns="http://www.w3.org/2000/svg">
<rect width="1920" height="1080" fill="white"/>
<line x1="1856" y1="448" x2="1856" y2="88" stroke="#EBEBEB" stroke-width="6"/>
<path d="M1812 302.984L1812 307.016C1812 309.656 1813.46 310.952 1816.15 310.952L1824.65 310.952C1827.34 310.952 1828.8 309.656 1828.8 307.016L1828.8 302.984L1812 302.984ZM1814.4 305.624L1826.4 305.624L1826.4 306.968C1826.4 307.808 1825.97 308.312 1824.77 308.312L1816.03 308.312C1814.83 308.312 1814.4 307.808 1814.4 306.968L1814.4 305.624ZM1812 313.454L1812 320.654L1814.4 320.654L1814.4 316.094L1819.56 316.094L1819.56 319.718L1821.96 319.718L1821.96 316.094L1826.4 316.094L1826.4 320.654L1828.8 320.654L1828.8 313.454L1812 313.454ZM1811.76 326.372C1811.76 328.964 1813.3 330.356 1816.03 330.356C1818.12 330.356 1819.46 329.66 1821.41 327.452C1822.92 325.724 1823.81 325.172 1825.03 325.172C1826.18 325.172 1826.64 325.652 1826.64 326.492C1826.64 327.332 1826.18 327.812 1824.98 327.812L1824.12 327.812L1824.12 330.308L1824.82 330.308C1827.5 330.308 1829.04 329.036 1829.04 326.468C1829.04 323.9 1827.5 322.532 1824.86 322.532C1822.94 322.532 1821.58 323.252 1819.63 325.46C1818.12 327.188 1817.23 327.716 1815.84 327.716C1814.59 327.716 1814.16 327.188 1814.16 326.348C1814.16 325.508 1814.59 324.98 1815.79 324.98L1816.94 324.98L1816.94 322.484L1815.98 322.484C1813.3 322.484 1811.76 323.78 1811.76 326.372ZM1812 332.589L1812 335.229L1828.8 335.229L1828.8 332.589L1812 332.589ZM1811.76 341.671C1811.76 344.263 1813.3 345.607 1815.98 345.607L1821.48 345.607L1821.48 341.791L1819.08 341.791L1819.08 343.111L1815.79 343.111C1814.59 343.111 1814.16 342.583 1814.16 341.743C1814.16 340.903 1814.59 340.375 1815.79 340.375L1824.98 340.375C1826.18 340.375 1826.64 340.903 1826.64 341.743C1826.64 342.583 1826.18 343.111 1824.98 343.111L1823.38 343.111L1823.38 345.607L1824.82 345.607C1827.5 345.607 1829.04 344.263 1829.04 341.671C1829.04 339.079 1827.5 337.735 1824.82 337.735L1815.98 337.735C1813.3 337.735 1811.76 339.079 1811.76 341.671ZM1812 348.021L1812 350.373L1824.26 350.373L1824.26 350.421L1812 353.589L1812 356.301L1828.8 356.301L1828.8 353.949L1818.74 353.949L1818.74 353.901L1828.8 351.333L1828.8 348.021L1812 348.021ZM1782.76 306.416C1782.76 309.008 1784.3 310.4 1787.03 310.4C1789.12 310.4 1790.46 309.704 1792.41 307.496C1793.92 305.768 1794.81 305.216 1796.03 305.216C1797.18 305.216 1797.64 305.696 1797.64 306.536C1797.64 307.376 1797.18 307.856 1795.98 307.856L1795.12 307.856L1795.12 310.352L1795.82 310.352C1798.5 310.352 1800.04 309.08 1800.04 306.512C1800.04 303.944 1798.5 302.576 1795.86 302.576C1793.94 302.576 1792.58 303.296 1790.63 305.504C1789.12 307.232 1788.23 307.76 1786.84 307.76C1785.59 307.76 1785.16 307.232 1785.16 306.392C1785.16 305.552 1785.59 305.024 1786.79 305.024L1787.94 305.024L1787.94 302.528L1786.98 302.528C1784.3 302.528 1782.76 303.824 1782.76 306.416ZM1782.76 316.45C1782.76 319.042 1784.3 320.458 1786.98 320.458L1795.82 320.458C1798.5 320.458 1800.04 319.042 1800.04 316.45C1800.04 313.858 1798.5 312.442 1795.82 312.442L1786.98 312.442C1784.3 312.442 1782.76 313.858 1782.76 316.45ZM1785.16 316.45C1785.16 315.61 1785.62 315.082 1786.82 315.082L1795.98 315.082C1797.18 315.082 1797.64 315.61 1797.64 316.45C1797.64 317.29 1797.18 317.818 1795.98 317.818L1786.82 317.818C1785.62 317.818 1785.16 317.29 1785.16 316.45ZM1783 322.963L1783 329.947L1785.4 329.947L1785.4 325.603L1799.8 325.603L1799.8 322.963L1783 322.963ZM1782.76 335.773C1782.76 338.365 1784.3 339.709 1786.98 339.709L1799.8 339.709L1799.8 337.165L1786.79 337.165C1785.59 337.165 1785.16 336.661 1785.16 335.821C1785.16 334.981 1785.59 334.477 1786.79 334.477L1799.8 334.477L1799.8 331.837L1786.98 331.837C1784.3 331.837 1782.76 333.181 1782.76 335.773ZM1783 344.373L1783 347.013L1797.4 347.013L1797.4 349.773L1799.8 349.773L1799.8 341.613L1797.4 341.613L1797.4 344.373L1783 344.373ZM1783 351.771L1783 354.411L1799.8 354.411L1799.8 351.771L1783 351.771ZM1782.76 360.925C1782.76 363.517 1784.3 364.933 1786.98 364.933L1795.82 364.933C1798.5 364.933 1800.04 363.517 1800.04 360.925C1800.04 358.333 1798.5 356.917 1795.82 356.917L1786.98 356.917C1784.3 356.917 1782.76 358.333 1782.76 360.925ZM1785.16 360.925C1785.16 360.085 1785.62 359.557 1786.82 359.557L1795.98 359.557C1797.18 359.557 1797.64 360.085 1797.64 360.925C1797.64 361.765 1797.18 362.293 1795.98 362.293L1786.82 362.293C1785.62 362.293 1785.16 361.765 1785.16 360.925ZM1783 367.438L1783 369.79L1795.26 369.79L1795.26 369.838L1783 373.006L1783 375.718L1799.8 375.718L1799.8 373.366L1789.74 373.366L1789.74 373.318L1799.8 370.75L1799.8 367.438L1783 367.438Z" fill="#FFCE00"/>
<circle cx="1858" cy="88" r="16" transform="rotate(-180 1858 88)" fill="#E5E5E5"/>
<circle cx="1858" cy="208" r="16" transform="rotate(-180 1858 208)" fill="#EBEBEB"/>
<circle cx="1858" cy="328" r="16" transform="rotate(-180 1858 328)" fill="#FFCE00"/>
<circle cx="1858" cy="448" r="16" transform="rotate(-180 1858 448)" fill="#EBEBEB"/>
<path d="M55.44 1022.37L72 1022.37L72 1019.01L65.232 1019.01L65.232 1012.77L62.4 1012.77L62.4 1019.01L58.296 1019.01L58.296 1012.05L55.44 1012.05L55.44 1022.37ZM72 995.932L64.944 999.364C64.2 997.564 62.736 996.532 60.504 996.532C57.144 996.532 55.44 998.908 55.44 1002.72L55.44 1008.65L72 1008.65L72 1005.29L65.496 1005.29L65.496 1002.6L72 999.628L72 995.932ZM62.664 1005.29L58.296 1005.29L58.296 1003.04C58.296 1001.04 58.776 999.892 60.504 999.892C62.232 999.892 62.664 1001.04 62.664 1003.04L62.664 1005.29ZM55.44 992.64L72 992.64L72 982.32L69.168 982.32L69.168 989.28L64.848 989.28L64.848 983.04L62.016 983.04L62.016 989.28L58.296 989.28L58.296 982.32L55.44 982.32L55.44 992.64ZM55.44 978.784L72 978.784L72 968.464L69.168 968.464L69.168 975.424L64.848 975.424L64.848 969.184L62.016 969.184L62.016 975.424L58.296 975.424L58.296 968.464L55.44 968.464L55.44 978.784ZM63.384 951.823L66.216 951.823L66.216 949.039C68.208 949.231 69.384 949.999 69.384 951.895C69.384 953.839 68.064 954.871 64.896 954.871L62.544 954.871C59.376 954.871 58.056 953.839 58.056 951.895C58.056 950.215 59.064 949.327 60.576 949.039L60.576 945.823C57.192 946.327 55.224 948.415 55.224 951.895C55.224 955.615 57.432 958.231 62.784 958.231L64.896 958.231C69.96 958.231 72.216 955.615 72.216 951.895C72.216 948.151 69.96 945.799 64.896 945.799L63.384 945.799L63.384 951.823ZM55.44 941.832L72 941.832L72 931.512L69.168 931.512L69.168 938.472L64.848 938.472L64.848 932.232L62.016 932.232L62.016 938.472L58.296 938.472L58.296 931.512L55.44 931.512L55.44 941.832ZM55.44 927.976L72 927.976L72 917.656L69.168 917.656L69.168 924.616L64.848 924.616L64.848 918.376L62.016 918.376L62.016 924.616L58.296 924.616L58.296 917.656L55.44 917.656L55.44 927.976ZM72 900.56L62.136 906.608L55.44 901.544L55.44 905.528L62.592 910.76L55.44 910.76L55.44 914.12L72 914.12L72 910.76L67.608 910.76L65.016 908.792L72 904.568L72 900.56ZM55.44 891.811L72 886.027L72 882.979L55.44 877.219L55.44 880.891L66.576 884.515L55.44 888.139L55.44 891.811ZM72 873.491L68.856 872.483L68.856 866.939L72 865.931L72 862.355L55.44 868.115L55.44 871.331L72 877.091L72 873.491ZM60.192 869.723L66.024 867.851L66.024 871.595L60.192 869.723ZM55.44 850.321L65.832 850.321L55.44 856.801L55.44 859.585L72 859.585L72 856.393L61.752 856.393L72 849.937L72 847.129L55.44 847.129L55.44 850.321ZM60.576 830.731C56.952 831.283 55.224 833.515 55.224 836.803C55.224 840.523 57.432 843.139 62.544 843.139L64.896 843.139C69.96 843.139 72.216 840.523 72.216 836.803C72.216 833.395 70.584 831.307 66.864 830.755L66.864 833.947C68.544 834.307 69.384 835.123 69.384 836.803C69.384 838.747 67.968 839.779 64.896 839.779L62.544 839.779C59.376 839.779 58.056 838.747 58.056 836.803C58.056 835.171 59.016 834.259 60.576 833.947L60.576 830.731ZM64.896 815.157L62.544 815.157C57.432 815.157 55.224 817.773 55.224 821.517C55.224 825.237 57.432 827.853 62.544 827.853L64.896 827.853C69.96 827.853 72.216 825.237 72.216 821.517C72.216 817.773 69.96 815.157 64.896 815.157ZM62.544 824.493C59.376 824.493 58.056 823.461 58.056 821.517C58.056 819.573 59.376 818.517 62.544 818.517L64.896 818.517C68.064 818.517 69.384 819.573 69.384 821.517C69.384 823.461 68.064 824.493 64.896 824.493L62.544 824.493ZM55.44 801.836L65.304 801.836C68.136 801.836 69.384 802.772 69.384 804.836C69.384 806.9 68.136 807.836 65.304 807.836L55.44 807.836L55.44 811.196L65.304 811.196C70.176 811.196 72.216 808.508 72.216 804.836C72.216 801.164 70.176 798.476 65.28 798.476L55.44 798.476L55.44 801.836ZM55.44 795.572L72 789.788L72 786.74L55.44 780.98L55.44 784.652L66.576 788.276L55.44 791.9L55.44 795.572ZM55.44 778.07L72 778.07L72 767.75L69.168 767.75L69.168 774.71L64.848 774.71L64.848 768.47L62.016 768.47L62.016 774.71L58.296 774.71L58.296 767.75L55.44 767.75L55.44 778.07ZM72 751.493L64.944 754.925C64.2 753.125 62.736 752.093 60.504 752.093C57.144 752.093 55.44 754.469 55.44 758.285L55.44 764.213L72 764.213L72 760.853L65.496 760.853L65.496 758.165L72 755.189L72 751.493ZM62.664 760.853L58.296 760.853L58.296 758.597C58.296 756.605 58.776 755.453 60.504 755.453C62.232 755.453 62.664 756.605 62.664 758.597L62.664 760.853Z" fill="#FFCE00"/>
<path d="M548.248 595.72C556.024 595.72 560.2 591.112 560.2 582.904C560.2 576.64 558.112 572.608 551.488 566.776C546.304 562.24 544.648 559.576 544.648 555.904C544.648 552.448 546.088 551.08 548.608 551.08C551.128 551.08 552.568 552.448 552.568 556.048V558.64H560.056V556.552C560.056 548.488 556.24 543.88 548.536 543.88C540.832 543.88 536.728 548.488 536.728 556.408C536.728 562.168 538.888 566.272 545.512 572.104C550.696 576.64 552.28 579.304 552.28 583.48C552.28 587.224 550.696 588.52 548.176 588.52C545.656 588.52 544.072 587.224 544.072 583.624V580.168H536.584V583.048C536.584 591.112 540.472 595.72 548.248 595.72ZM566.901 595H574.821V578.944L577.989 572.536L584.685 595H592.965L583.389 563.104L592.821 544.6H584.901L574.821 565.84V544.6H566.901V595ZM598.874 595H606.794V544.6H598.874V595ZM614.885 595H635.837V587.8H622.805V544.6H614.885V595ZM641.795 595H662.747V587.8H649.715V544.6H641.795V595ZM688.588 595H696.508V551.8H704.788V544.6H680.308V551.8H688.588V595ZM710.783 595H732.383V587.8H718.703V572.32H729.575V565.12H718.703V551.8H732.383V544.6H710.783V595ZM749.536 595.72C757.312 595.72 761.488 591.112 761.488 582.904C761.488 576.64 759.4 572.608 752.776 566.776C747.592 562.24 745.936 559.576 745.936 555.904C745.936 552.448 747.376 551.08 749.896 551.08C752.416 551.08 753.856 552.448 753.856 556.048V558.64H761.344V556.552C761.344 548.488 757.528 543.88 749.824 543.88C742.12 543.88 738.016 548.488 738.016 556.408C738.016 562.168 740.176 566.272 746.8 572.104C751.984 576.64 753.568 579.304 753.568 583.48C753.568 587.224 751.984 588.52 749.464 588.52C746.944 588.52 745.36 587.224 745.36 583.624V580.168H737.872V583.048C737.872 591.112 741.76 595.72 749.536 595.72ZM774.381 595H782.301V551.8H790.581V544.6H766.101V551.8H774.381V595ZM796.575 595H804.495V544.6H796.575V595ZM812.587 595H819.643V558.208H819.787L829.291 595H837.427V544.6H830.371V574.768H830.227L822.523 544.6H812.587V595ZM856.706 595.72C864.482 595.72 868.514 591.112 868.514 583.048V566.56H857.066V573.76H861.026V583.624C861.026 587.224 859.442 588.52 856.922 588.52C854.402 588.52 852.818 587.224 852.818 583.624V556.048C852.818 552.448 854.402 551.08 856.922 551.08C859.442 551.08 861.026 552.448 861.026 556.048V560.872H868.514V556.552C868.514 548.488 864.482 543.88 856.706 543.88C848.93 543.88 844.898 548.488 844.898 556.552V583.048C844.898 591.112 848.93 595.72 856.706 595.72Z" fill="#0037FE"/>
<path d="M541.24 678L535.24 661.44H537.52L542.176 674.64L546.904 661.44H549.184L543.184 678H541.24ZM559.491 671.184V672.768C559.491 674.448 559.067 675.776 558.219 676.752C557.371 677.712 556.131 678.192 554.499 678.192C552.931 678.192 551.707 677.712 550.827 676.752C549.947 675.792 549.507 674.464 549.507 672.768V671.184C549.507 669.488 549.947 668.168 550.827 667.224C551.707 666.28 552.931 665.808 554.499 665.808C556.083 665.808 557.307 666.28 558.171 667.224C559.051 668.152 559.491 669.472 559.491 671.184ZM554.499 676.464C555.459 676.464 556.211 676.12 556.755 675.432C557.299 674.744 557.571 673.856 557.571 672.768V671.184C557.571 670.032 557.299 669.136 556.755 668.496C556.227 667.856 555.475 667.536 554.499 667.536C553.523 667.536 552.763 667.864 552.219 668.52C551.691 669.16 551.427 670.048 551.427 671.184V672.768C551.427 673.904 551.683 674.808 552.195 675.48C552.723 676.136 553.491 676.464 554.499 676.464ZM562.013 674.304V661.44H563.933V673.824C563.933 674.496 564.021 675.056 564.197 675.504C564.453 675.984 565.045 676.224 565.973 676.224V678C564.517 678 563.493 677.712 562.901 677.136C562.309 676.56 562.013 675.616 562.013 674.304ZM576.183 666H578.103V678H576.183V676.824C575.847 677.32 575.439 677.672 574.959 677.88C574.479 678.088 573.815 678.192 572.967 678.192C571.575 678.192 570.495 677.808 569.727 677.04C568.975 676.256 568.599 675.072 568.599 673.488V666H570.519V673.464C570.519 675.432 571.431 676.416 573.255 676.416C574.119 676.416 574.823 676.144 575.367 675.6C575.911 675.056 576.183 674.352 576.183 673.488V666ZM583.152 678H581.232V666H583.152V667.176C583.488 666.68 583.896 666.328 584.376 666.12C584.856 665.912 585.52 665.808 586.368 665.808C587.76 665.808 588.832 666.2 589.584 666.984C590.352 667.752 590.736 668.928 590.736 670.512V678H588.816V670.536C588.816 668.568 587.904 667.584 586.08 667.584C585.216 667.584 584.512 667.856 583.968 668.4C583.424 668.944 583.152 669.648 583.152 670.512V678ZM594.345 667.728H592.809V666H594.345V663.36H596.265V666H599.025V667.728H596.265V673.824C596.265 674.752 596.377 675.376 596.601 675.696C596.825 676.016 597.313 676.176 598.065 676.176H599.025V678H597.993C596.633 678 595.681 677.72 595.137 677.16C594.609 676.584 594.345 675.632 594.345 674.304V667.728ZM608.683 675.12L610.171 676.176C609.755 676.896 609.211 677.416 608.539 677.736C607.883 678.04 607.027 678.192 605.971 678.192C604.371 678.192 603.115 677.712 602.203 676.752C601.291 675.776 600.835 674.448 600.835 672.768V671.184C600.835 669.456 601.243 668.128 602.059 667.2C602.875 666.272 604.051 665.808 605.587 665.808C607.155 665.808 608.339 666.272 609.139 667.2C609.939 668.112 610.339 669.44 610.339 671.184V672.432H602.755V672.768C602.755 673.888 603.019 674.784 603.547 675.456C604.075 676.128 604.835 676.464 605.827 676.464C607.219 676.464 608.171 676.016 608.683 675.12ZM605.587 667.536C603.827 667.536 602.883 668.608 602.755 670.752H608.395C608.299 668.608 607.363 667.536 605.587 667.536ZM620.402 675.12L621.89 676.176C621.474 676.896 620.93 677.416 620.258 677.736C619.602 678.04 618.746 678.192 617.69 678.192C616.09 678.192 614.834 677.712 613.922 676.752C613.01 675.776 612.554 674.448 612.554 672.768V671.184C612.554 669.456 612.962 668.128 613.778 667.2C614.594 666.272 615.77 665.808 617.306 665.808C618.874 665.808 620.058 666.272 620.858 667.2C621.658 668.112 622.058 669.44 622.058 671.184V672.432H614.474V672.768C614.474 673.888 614.738 674.784 615.266 675.456C615.794 676.128 616.554 676.464 617.546 676.464C618.938 676.464 619.89 676.016 620.402 675.12ZM617.306 667.536C615.546 667.536 614.602 668.608 614.474 670.752H620.114C620.018 668.608 619.082 667.536 617.306 667.536ZM633.009 667.44L631.377 668.592C630.897 667.92 630.225 667.584 629.361 667.584C628.593 667.584 627.969 667.856 627.489 668.4C627.025 668.928 626.793 669.624 626.793 670.488V678H624.873V666H626.793V667.176C627.353 666.264 628.281 665.808 629.577 665.808C631.097 665.808 632.241 666.352 633.009 667.44ZM642.502 667.8L641.062 668.808C640.726 668.36 640.342 668.048 639.91 667.872C639.478 667.68 638.87 667.584 638.086 667.584C637.366 667.584 636.798 667.728 636.382 668.016C635.966 668.288 635.758 668.68 635.758 669.192C635.758 670.328 636.686 670.96 638.542 671.088C639.774 671.184 640.766 671.456 641.518 671.904C642.414 672.4 642.862 673.32 642.862 674.664C642.862 675.784 642.478 676.656 641.71 677.28C640.942 677.888 639.822 678.192 638.35 678.192C636.222 678.192 634.678 677.528 633.718 676.2L635.134 675.192C635.47 675.624 635.878 675.936 636.358 676.128C636.854 676.32 637.526 676.416 638.374 676.416C639.174 676.416 639.798 676.272 640.246 675.984C640.71 675.68 640.942 675.256 640.942 674.712C640.942 674.072 640.718 673.616 640.27 673.344C639.822 673.056 639.014 672.872 637.846 672.792C635.174 672.6 633.838 671.408 633.838 669.216C633.838 668.176 634.214 667.352 634.966 666.744C635.718 666.12 636.774 665.808 638.134 665.808C640.198 665.808 641.654 666.472 642.502 667.8ZM658.746 675.12L660.234 676.176C659.514 677.52 658.13 678.192 656.082 678.192C654.466 678.192 653.194 677.712 652.266 676.752C651.354 675.776 650.898 674.448 650.898 672.768V671.184C650.898 669.488 651.354 668.168 652.266 667.224C653.178 666.28 654.45 665.808 656.082 665.808C657.97 665.808 659.354 666.432 660.234 667.68L658.722 668.736C658.162 667.936 657.282 667.536 656.082 667.536C655.058 667.536 654.258 667.864 653.682 668.52C653.106 669.16 652.818 670.048 652.818 671.184V672.768C652.818 673.904 653.09 674.808 653.634 675.48C654.194 676.136 655.01 676.464 656.082 676.464C657.394 676.464 658.282 676.016 658.746 675.12ZM661.327 674.496C661.327 672.208 662.823 671.064 665.815 671.064H668.671V669.672C668.671 668.872 668.471 668.328 668.071 668.04C667.687 667.736 666.999 667.584 666.007 667.584C665.175 667.584 664.567 667.664 664.183 667.824C663.799 667.984 663.447 668.312 663.127 668.808L661.687 667.8C662.119 667.08 662.663 666.568 663.319 666.264C663.991 665.96 664.895 665.808 666.031 665.808C667.631 665.808 668.791 666.104 669.511 666.696C670.231 667.288 670.591 668.28 670.591 669.672V678H668.671V676.824C668.351 677.352 667.967 677.712 667.519 677.904C667.087 678.096 666.455 678.192 665.623 678.192C664.247 678.192 663.183 677.872 662.431 677.232C661.695 676.576 661.327 675.664 661.327 674.496ZM668.671 673.392V672.696H665.815C664.919 672.696 664.263 672.848 663.847 673.152C663.447 673.44 663.247 673.904 663.247 674.544C663.247 675.792 664.039 676.416 665.623 676.416C666.631 676.416 667.391 676.224 667.903 675.84C668.415 675.424 668.671 674.608 668.671 673.392ZM675.636 678H673.716V666H675.636V667.176C675.972 666.68 676.38 666.328 676.86 666.12C677.34 665.912 678.004 665.808 678.852 665.808C680.244 665.808 681.316 666.2 682.068 666.984C682.836 667.752 683.22 668.928 683.22 670.512V678H681.3V670.536C681.3 668.568 680.388 667.584 678.564 667.584C677.7 667.584 676.996 667.856 676.452 668.4C675.908 668.944 675.636 669.648 675.636 670.512V678ZM700.533 667.8L699.093 668.808C698.757 668.36 698.373 668.048 697.941 667.872C697.509 667.68 696.901 667.584 696.117 667.584C695.397 667.584 694.829 667.728 694.413 668.016C693.997 668.288 693.789 668.68 693.789 669.192C693.789 670.328 694.717 670.96 696.573 671.088C697.805 671.184 698.797 671.456 699.549 671.904C700.445 672.4 700.893 673.32 700.893 674.664C700.893 675.784 700.509 676.656 699.741 677.28C698.973 677.888 697.853 678.192 696.381 678.192C694.253 678.192 692.709 677.528 691.749 676.2L693.165 675.192C693.501 675.624 693.909 675.936 694.389 676.128C694.885 676.32 695.557 676.416 696.405 676.416C697.205 676.416 697.829 676.272 698.277 675.984C698.741 675.68 698.973 675.256 698.973 674.712C698.973 674.072 698.749 673.616 698.301 673.344C697.853 673.056 697.045 672.872 695.877 672.792C693.205 672.6 691.869 671.408 691.869 669.216C691.869 668.176 692.245 667.352 692.997 666.744C693.749 666.12 694.805 665.808 696.165 665.808C698.229 665.808 699.685 666.472 700.533 667.8ZM705.809 678H703.889V666H705.809V678ZM705.929 663.6H703.769V661.44H705.929V663.6ZM716.758 667.2V666H718.678V677.76C718.678 679.376 718.23 680.6 717.334 681.432C716.454 682.28 715.19 682.704 713.542 682.704C712.486 682.704 711.622 682.544 710.95 682.224C710.294 681.92 709.758 681.408 709.342 680.688L710.83 679.632C711.342 680.528 712.294 680.976 713.686 680.976C715.734 680.976 716.758 679.904 716.758 677.76V676.944C716.118 677.776 715.03 678.192 713.494 678.192C711.958 678.192 710.774 677.704 709.942 676.728C709.11 675.752 708.694 674.432 708.694 672.768V671.184C708.694 669.488 709.118 668.168 709.966 667.224C710.814 666.28 711.99 665.808 713.494 665.808C714.998 665.808 716.086 666.272 716.758 667.2ZM713.686 676.464C714.694 676.464 715.454 676.136 715.966 675.48C716.494 674.808 716.758 673.904 716.758 672.768V671.184C716.758 670.048 716.486 669.16 715.942 668.52C715.414 667.864 714.662 667.536 713.686 667.536C712.71 667.536 711.95 667.856 711.406 668.496C710.878 669.136 710.614 670.032 710.614 671.184V672.768C710.614 673.856 710.886 674.744 711.43 675.432C711.974 676.12 712.726 676.464 713.686 676.464ZM723.73 678H721.81V666H723.73V667.176C724.066 666.68 724.474 666.328 724.954 666.12C725.434 665.912 726.098 665.808 726.946 665.808C728.338 665.808 729.41 666.2 730.162 666.984C730.93 667.752 731.314 668.928 731.314 670.512V678H729.394V670.536C729.394 668.568 728.482 667.584 726.658 667.584C725.794 667.584 725.09 667.856 724.546 668.4C724.002 668.944 723.73 669.648 723.73 670.512V678ZM748.027 666H749.947V678H748.027V676.824C747.691 677.32 747.283 677.672 746.803 677.88C746.323 678.088 745.659 678.192 744.811 678.192C743.419 678.192 742.339 677.808 741.571 677.04C740.819 676.256 740.443 675.072 740.443 673.488V666H742.363V673.464C742.363 675.432 743.275 676.416 745.099 676.416C745.963 676.416 746.667 676.144 747.211 675.6C747.755 675.056 748.027 674.352 748.027 673.488V666ZM754.996 666V667.2C755.668 666.272 756.756 665.808 758.26 665.808C759.764 665.808 760.94 666.28 761.788 667.224C762.636 668.152 763.06 669.472 763.06 671.184V672.768C763.06 674.432 762.644 675.752 761.812 676.728C760.98 677.704 759.796 678.192 758.26 678.192C756.756 678.192 755.668 677.728 754.996 676.8V682.56H753.076V666H754.996ZM758.068 676.464C759.028 676.464 759.78 676.12 760.324 675.432C760.868 674.744 761.14 673.856 761.14 672.768V671.184C761.14 670.032 760.868 669.136 760.324 668.496C759.796 667.856 759.044 667.536 758.068 667.536C757.108 667.536 756.356 667.848 755.812 668.472C755.268 669.08 754.996 669.928 754.996 671.016V672.768C754.996 673.904 755.252 674.808 755.764 675.48C756.292 676.136 757.06 676.464 758.068 676.464ZM772.071 667.728H770.535V666H772.071V663.36H773.991V666H776.751V667.728H773.991V673.824C773.991 674.752 774.103 675.376 774.327 675.696C774.551 676.016 775.039 676.176 775.791 676.176H776.751V678H775.719C774.359 678 773.407 677.72 772.863 677.16C772.335 676.584 772.071 675.632 772.071 674.304V667.728ZM788.546 671.184V672.768C788.546 674.448 788.122 675.776 787.274 676.752C786.426 677.712 785.186 678.192 783.554 678.192C781.986 678.192 780.762 677.712 779.882 676.752C779.002 675.792 778.562 674.464 778.562 672.768V671.184C778.562 669.488 779.002 668.168 779.882 667.224C780.762 666.28 781.986 665.808 783.554 665.808C785.138 665.808 786.362 666.28 787.226 667.224C788.106 668.152 788.546 669.472 788.546 671.184ZM783.554 676.464C784.514 676.464 785.266 676.12 785.81 675.432C786.354 674.744 786.626 673.856 786.626 672.768V671.184C786.626 670.032 786.354 669.136 785.81 668.496C785.282 667.856 784.53 667.536 783.554 667.536C782.578 667.536 781.818 667.864 781.274 668.52C780.746 669.16 780.482 670.048 780.482 671.184V672.768C780.482 673.904 780.738 674.808 781.25 675.48C781.778 676.136 782.546 676.464 783.554 676.464ZM798.988 678H797.068V661.44H798.988V667.176C799.324 666.68 799.732 666.328 800.212 666.12C800.692 665.912 801.356 665.808 802.204 665.808C803.596 665.808 804.668 666.2 805.42 666.984C806.188 667.752 806.572 668.928 806.572 670.512V678H804.652V670.536C804.652 668.568 803.74 667.584 801.916 667.584C801.052 667.584 800.348 667.856 799.804 668.4C799.26 668.944 798.988 669.648 798.988 670.512V678ZM809.101 674.496C809.101 672.208 810.597 671.064 813.589 671.064H816.445V669.672C816.445 668.872 816.245 668.328 815.845 668.04C815.461 667.736 814.773 667.584 813.781 667.584C812.949 667.584 812.341 667.664 811.957 667.824C811.573 667.984 811.221 668.312 810.901 668.808L809.461 667.8C809.893 667.08 810.437 666.568 811.093 666.264C811.765 665.96 812.669 665.808 813.805 665.808C815.405 665.808 816.565 666.104 817.285 666.696C818.005 667.288 818.365 668.28 818.365 669.672V678H816.445V676.824C816.125 677.352 815.741 677.712 815.293 677.904C814.861 678.096 814.229 678.192 813.397 678.192C812.021 678.192 810.957 677.872 810.205 677.232C809.469 676.576 809.101 675.664 809.101 674.496ZM816.445 673.392V672.696H813.589C812.693 672.696 812.037 672.848 811.621 673.152C811.221 673.44 811.021 673.904 811.021 674.544C811.021 675.792 811.813 676.416 813.397 676.416C814.405 676.416 815.165 676.224 815.677 675.84C816.189 675.424 816.445 674.608 816.445 673.392ZM825.978 675.552L829.626 666H831.786L826.986 678H825.066L820.17 666H822.33L825.978 675.552ZM840.831 675.12L842.319 676.176C841.903 676.896 841.359 677.416 840.687 677.736C840.031 678.04 839.175 678.192 838.119 678.192C836.519 678.192 835.263 677.712 834.351 676.752C833.439 675.776 832.983 674.448 832.983 672.768V671.184C832.983 669.456 833.391 668.128 834.207 667.2C835.023 666.272 836.199 665.808 837.735 665.808C839.303 665.808 840.487 666.272 841.287 667.2C842.087 668.112 842.487 669.44 842.487 671.184V672.432H834.903V672.768C834.903 673.888 835.167 674.784 835.695 675.456C836.223 676.128 836.983 676.464 837.975 676.464C839.367 676.464 840.319 676.016 840.831 675.12ZM837.735 667.536C835.975 667.536 835.031 668.608 834.903 670.752H840.543C840.447 668.608 839.511 667.536 837.735 667.536ZM850.702 674.496C850.702 672.208 852.198 671.064 855.19 671.064H858.046V669.672C858.046 668.872 857.846 668.328 857.446 668.04C857.062 667.736 856.374 667.584 855.382 667.584C854.55 667.584 853.942 667.664 853.558 667.824C853.174 667.984 852.822 668.312 852.502 668.808L851.062 667.8C851.494 667.08 852.038 666.568 852.694 666.264C853.366 665.96 854.27 665.808 855.406 665.808C857.006 665.808 858.166 666.104 858.886 666.696C859.606 667.288 859.966 668.28 859.966 669.672V678H858.046V676.824C857.726 677.352 857.342 677.712 856.894 677.904C856.462 678.096 855.83 678.192 854.998 678.192C853.622 678.192 852.558 677.872 851.806 677.232C851.07 676.576 850.702 675.664 850.702 674.496ZM858.046 673.392V672.696H855.19C854.294 672.696 853.638 672.848 853.222 673.152C852.822 673.44 852.622 673.904 852.622 674.544C852.622 675.792 853.414 676.416 854.998 676.416C856.006 676.416 856.766 676.224 857.278 675.84C857.79 675.424 858.046 674.608 858.046 673.392ZM877.275 667.8L875.835 668.808C875.499 668.36 875.115 668.048 874.683 667.872C874.251 667.68 873.643 667.584 872.859 667.584C872.139 667.584 871.571 667.728 871.155 668.016C870.739 668.288 870.531 668.68 870.531 669.192C870.531 670.328 871.459 670.96 873.315 671.088C874.547 671.184 875.539 671.456 876.291 671.904C877.187 672.4 877.635 673.32 877.635 674.664C877.635 675.784 877.251 676.656 876.483 677.28C875.715 677.888 874.595 678.192 873.123 678.192C870.995 678.192 869.451 677.528 868.491 676.2L869.907 675.192C870.243 675.624 870.651 675.936 871.131 676.128C871.627 676.32 872.299 676.416 873.147 676.416C873.947 676.416 874.571 676.272 875.019 675.984C875.483 675.68 875.715 675.256 875.715 674.712C875.715 674.072 875.491 673.616 875.043 673.344C874.595 673.056 873.787 672.872 872.619 672.792C869.947 672.6 868.611 671.408 868.611 669.216C868.611 668.176 868.987 667.352 869.739 666.744C870.491 666.12 871.547 665.808 872.907 665.808C874.971 665.808 876.427 666.472 877.275 667.8ZM880.751 667.728H879.215V666H880.751V663.36H882.671V666H885.431V667.728H882.671V673.824C882.671 674.752 882.783 675.376 883.007 675.696C883.231 676.016 883.719 676.176 884.471 676.176H885.431V678H884.399C883.039 678 882.087 677.72 881.543 677.16C881.015 676.584 880.751 675.632 880.751 674.304V667.728ZM887.241 674.496C887.241 672.208 888.737 671.064 891.729 671.064H894.585V669.672C894.585 668.872 894.385 668.328 893.985 668.04C893.601 667.736 892.913 667.584 891.921 667.584C891.089 667.584 890.481 667.664 890.097 667.824C889.713 667.984 889.361 668.312 889.041 668.808L887.601 667.8C888.033 667.08 888.577 666.568 889.233 666.264C889.905 665.96 890.809 665.808 891.945 665.808C893.545 665.808 894.705 666.104 895.425 666.696C896.145 667.288 896.505 668.28 896.505 669.672V678H894.585V676.824C894.265 677.352 893.881 677.712 893.433 677.904C893.001 678.096 892.369 678.192 891.537 678.192C890.161 678.192 889.097 677.872 888.345 677.232C887.609 676.576 887.241 675.664 887.241 674.496ZM894.585 673.392V672.696H891.729C890.833 672.696 890.177 672.848 889.761 673.152C889.361 673.44 889.161 673.904 889.161 674.544C889.161 675.792 889.953 676.416 891.537 676.416C892.545 676.416 893.305 676.224 893.817 675.84C894.329 675.424 894.585 674.608 894.585 673.392ZM898.574 667.728V666H900.11V665.136C900.11 663.808 900.374 662.864 900.902 662.304C901.446 661.728 902.398 661.44 903.758 661.44H904.31V663.264H903.83C903.078 663.264 902.59 663.424 902.366 663.744C902.142 664.064 902.03 664.688 902.03 665.616V666H904.31V667.728H902.03V678H900.11V667.728H898.574ZM905.418 667.728V666H906.954V665.136C906.954 663.808 907.218 662.864 907.746 662.304C908.29 661.728 909.242 661.44 910.602 661.44H911.154V663.264H910.674C909.922 663.264 909.434 663.424 909.21 663.744C908.986 664.064 908.874 664.688 908.874 665.616V666H911.154V667.728H908.874V678H906.954V667.728H905.418ZM921.238 678H919.318V666H921.238V667.176C921.83 666.264 922.822 665.808 924.214 665.808C925.862 665.808 927.03 666.44 927.718 667.704C928.534 666.44 929.734 665.808 931.318 665.808C932.63 665.808 933.646 666.216 934.366 667.032C935.086 667.832 935.446 668.992 935.446 670.512V678H933.526V670.536C933.526 668.568 932.694 667.584 931.03 667.584C930.262 667.584 929.622 667.864 929.11 668.424C928.598 668.968 928.342 669.664 928.342 670.512V678H926.422V670.536C926.422 668.568 925.59 667.584 923.926 667.584C923.158 667.584 922.518 667.864 922.006 668.424C921.494 668.984 921.238 669.68 921.238 670.512V678ZM945.808 675.12L947.296 676.176C946.88 676.896 946.336 677.416 945.664 677.736C945.008 678.04 944.152 678.192 943.096 678.192C941.496 678.192 940.24 677.712 939.328 676.752C938.416 675.776 937.96 674.448 937.96 672.768V671.184C937.96 669.456 938.368 668.128 939.184 667.2C940 666.272 941.176 665.808 942.712 665.808C944.28 665.808 945.464 666.272 946.264 667.2C947.064 668.112 947.464 669.44 947.464 671.184V672.432H939.88V672.768C939.88 673.888 940.144 674.784 940.672 675.456C941.2 676.128 941.96 676.464 942.952 676.464C944.344 676.464 945.296 676.016 945.808 675.12ZM942.712 667.536C940.952 667.536 940.008 668.608 939.88 670.752H945.52C945.424 668.608 944.488 667.536 942.712 667.536ZM952.199 678H950.279V666H952.199V667.176C952.791 666.264 953.783 665.808 955.175 665.808C956.823 665.808 957.991 666.44 958.679 667.704C959.495 666.44 960.695 665.808 962.279 665.808C963.591 665.808 964.607 666.216 965.327 667.032C966.047 667.832 966.407 668.992 966.407 670.512V678H964.487V670.536C964.487 668.568 963.655 667.584 961.991 667.584C961.223 667.584 960.583 667.864 960.071 668.424C959.559 668.968 959.303 669.664 959.303 670.512V678H957.383V670.536C957.383 668.568 956.551 667.584 954.887 667.584C954.119 667.584 953.479 667.864 952.967 668.424C952.455 668.984 952.199 669.68 952.199 670.512V678ZM969.521 661.44H971.441V667.2C972.113 666.272 973.201 665.808 974.705 665.808C976.209 665.808 977.385 666.28 978.233 667.224C979.081 668.152 979.505 669.472 979.505 671.184V672.768C979.505 674.432 979.089 675.752 978.257 676.728C977.425 677.704 976.241 678.192 974.705 678.192C973.169 678.192 972.081 677.776 971.441 676.944V678H969.521V661.44ZM974.513 676.464C975.473 676.464 976.225 676.12 976.769 675.432C977.313 674.744 977.585 673.856 977.585 672.768V671.184C977.585 670.032 977.313 669.136 976.769 668.496C976.241 667.856 975.489 667.536 974.513 667.536C973.553 667.536 972.801 667.848 972.257 668.472C971.713 669.08 971.441 669.928 971.441 671.016V672.768C971.441 673.904 971.697 674.808 972.209 675.48C972.737 676.136 973.505 676.464 974.513 676.464ZM989.285 675.12L990.773 676.176C990.357 676.896 989.813 677.416 989.141 677.736C988.485 678.04 987.629 678.192 986.573 678.192C984.973 678.192 983.717 677.712 982.805 676.752C981.893 675.776 981.437 674.448 981.437 672.768V671.184C981.437 669.456 981.845 668.128 982.661 667.2C983.477 666.272 984.653 665.808 986.189 665.808C987.757 665.808 988.941 666.272 989.741 667.2C990.541 668.112 990.941 669.44 990.941 671.184V672.432H983.357V672.768C983.357 673.888 983.621 674.784 984.149 675.456C984.677 676.128 985.437 676.464 986.429 676.464C987.821 676.464 988.773 676.016 989.285 675.12ZM986.189 667.536C984.429 667.536 983.485 668.608 983.357 670.752H988.997C988.901 668.608 987.965 667.536 986.189 667.536ZM1001.89 667.44L1000.26 668.592C999.779 667.92 999.107 667.584 998.243 667.584C997.475 667.584 996.851 667.856 996.371 668.4C995.907 668.928 995.675 669.624 995.675 670.488V678H993.755V666H995.675V667.176C996.235 666.264 997.163 665.808 998.459 665.808C999.979 665.808 1001.12 666.352 1001.89 667.44ZM1009.68 667.728H1008.14V666H1009.68V663.36H1011.6V666H1014.36V667.728H1011.6V673.824C1011.6 674.752 1011.71 675.376 1011.94 675.696C1012.16 676.016 1012.65 676.176 1013.4 676.176H1014.36V678H1013.33C1011.97 678 1011.02 677.72 1010.47 677.16C1009.94 676.584 1009.68 675.632 1009.68 674.304V667.728ZM1024.02 675.12L1025.51 676.176C1025.09 676.896 1024.55 677.416 1023.87 677.736C1023.22 678.04 1022.36 678.192 1021.31 678.192C1019.71 678.192 1018.45 677.712 1017.54 676.752C1016.63 675.776 1016.17 674.448 1016.17 672.768V671.184C1016.17 669.456 1016.58 668.128 1017.39 667.2C1018.21 666.272 1019.39 665.808 1020.92 665.808C1022.49 665.808 1023.67 666.272 1024.47 667.2C1025.27 668.112 1025.67 669.44 1025.67 671.184V672.432H1018.09V672.768C1018.09 673.888 1018.35 674.784 1018.88 675.456C1019.41 676.128 1020.17 676.464 1021.16 676.464C1022.55 676.464 1023.51 676.016 1024.02 675.12ZM1020.92 667.536C1019.16 667.536 1018.22 668.608 1018.09 670.752H1023.73C1023.63 668.608 1022.7 667.536 1020.92 667.536ZM1036.67 667.8L1035.23 668.808C1034.9 668.36 1034.51 668.048 1034.08 667.872C1033.65 667.68 1033.04 667.584 1032.26 667.584C1031.54 667.584 1030.97 667.728 1030.55 668.016C1030.14 668.288 1029.93 668.68 1029.93 669.192C1029.93 670.328 1030.86 670.96 1032.71 671.088C1033.95 671.184 1034.94 671.456 1035.69 671.904C1036.59 672.4 1037.03 673.32 1037.03 674.664C1037.03 675.784 1036.65 676.656 1035.88 677.28C1035.11 677.888 1033.99 678.192 1032.52 678.192C1030.39 678.192 1028.85 677.528 1027.89 676.2L1029.31 675.192C1029.64 675.624 1030.05 675.936 1030.53 676.128C1031.03 676.32 1031.7 676.416 1032.55 676.416C1033.35 676.416 1033.97 676.272 1034.42 675.984C1034.88 675.68 1035.11 675.256 1035.11 674.712C1035.11 674.072 1034.89 673.616 1034.44 673.344C1033.99 673.056 1033.19 672.872 1032.02 672.792C1029.35 672.6 1028.01 671.408 1028.01 669.216C1028.01 668.176 1028.39 667.352 1029.14 666.744C1029.89 666.12 1030.95 665.808 1032.31 665.808C1034.37 665.808 1035.83 666.472 1036.67 667.8ZM1040.15 667.728H1038.61V666H1040.15V663.36H1042.07V666H1044.83V667.728H1042.07V673.824C1042.07 674.752 1042.18 675.376 1042.41 675.696C1042.63 676.016 1043.12 676.176 1043.87 676.176H1044.83V678H1043.8C1042.44 678 1041.49 677.72 1040.94 677.16C1040.41 676.584 1040.15 675.632 1040.15 674.304V667.728ZM1053.72 667.728H1052.18V666H1053.72V663.36H1055.64V666H1058.4V667.728H1055.64V673.824C1055.64 674.752 1055.75 675.376 1055.98 675.696C1056.2 676.016 1056.69 676.176 1057.44 676.176H1058.4V678H1057.37C1056.01 678 1055.06 677.72 1054.51 677.16C1053.98 676.584 1053.72 675.632 1053.72 674.304V667.728ZM1062.73 678H1060.81V661.44H1062.73V667.176C1063.07 666.68 1063.47 666.328 1063.95 666.12C1064.43 665.912 1065.1 665.808 1065.95 665.808C1067.34 665.808 1068.41 666.2 1069.16 666.984C1069.93 667.752 1070.31 668.928 1070.31 670.512V678H1068.39V670.536C1068.39 668.568 1067.48 667.584 1065.66 667.584C1064.79 667.584 1064.09 667.856 1063.55 668.4C1063 668.944 1062.73 669.648 1062.73 670.512V678ZM1080.69 675.12L1082.18 676.176C1081.76 676.896 1081.22 677.416 1080.55 677.736C1079.89 678.04 1079.03 678.192 1077.98 678.192C1076.38 678.192 1075.12 677.712 1074.21 676.752C1073.3 675.776 1072.84 674.448 1072.84 672.768V671.184C1072.84 669.456 1073.25 668.128 1074.07 667.2C1074.88 666.272 1076.06 665.808 1077.59 665.808C1079.16 665.808 1080.35 666.272 1081.15 667.2C1081.95 668.112 1082.35 669.44 1082.35 671.184V672.432H1074.76V672.768C1074.76 673.888 1075.03 674.784 1075.55 675.456C1076.08 676.128 1076.84 676.464 1077.83 676.464C1079.23 676.464 1080.18 676.016 1080.69 675.12ZM1077.59 667.536C1075.83 667.536 1074.89 668.608 1074.76 670.752H1080.4C1080.31 668.608 1079.37 667.536 1077.59 667.536ZM1087.44 678H1085.52V666H1087.44V678ZM1087.56 663.6H1085.4V661.44H1087.56V663.6ZM1099.06 667.44L1097.43 668.592C1096.95 667.92 1096.28 667.584 1095.42 667.584C1094.65 667.584 1094.02 667.856 1093.54 668.4C1093.08 668.928 1092.85 669.624 1092.85 670.488V678H1090.93V666H1092.85V667.176C1093.41 666.264 1094.34 665.808 1095.63 665.808C1097.15 665.808 1098.3 666.352 1099.06 667.44ZM538.48 697V698.2C539.152 697.272 540.24 696.808 541.744 696.808C543.248 696.808 544.424 697.28 545.272 698.224C546.12 699.152 546.544 700.472 546.544 702.184V703.768C546.544 705.432 546.128 706.752 545.296 707.728C544.464 708.704 543.28 709.192 541.744 709.192C540.24 709.192 539.152 708.728 538.48 707.8V713.56H536.56V697H538.48ZM541.552 707.464C542.512 707.464 543.264 707.12 543.808 706.432C544.352 705.744 544.624 704.856 544.624 703.768V702.184C544.624 701.032 544.352 700.136 543.808 699.496C543.28 698.856 542.528 698.536 541.552 698.536C540.592 698.536 539.84 698.848 539.296 699.472C538.752 700.08 538.48 700.928 538.48 702.016V703.768C538.48 704.904 538.736 705.808 539.248 706.48C539.776 707.136 540.544 707.464 541.552 707.464ZM557.212 698.44L555.58 699.592C555.1 698.92 554.428 698.584 553.564 698.584C552.796 698.584 552.172 698.856 551.692 699.4C551.228 699.928 550.996 700.624 550.996 701.488V709H549.076V697H550.996V698.176C551.556 697.264 552.484 696.808 553.78 696.808C555.3 696.808 556.444 697.352 557.212 698.44ZM567.905 702.184V703.768C567.905 705.448 567.481 706.776 566.633 707.752C565.785 708.712 564.545 709.192 562.913 709.192C561.345 709.192 560.121 708.712 559.241 707.752C558.361 706.792 557.921 705.464 557.921 703.768V702.184C557.921 700.488 558.361 699.168 559.241 698.224C560.121 697.28 561.345 696.808 562.913 696.808C564.497 696.808 565.721 697.28 566.585 698.224C567.465 699.152 567.905 700.472 567.905 702.184ZM562.913 707.464C563.873 707.464 564.625 707.12 565.169 706.432C565.713 705.744 565.985 704.856 565.985 703.768V702.184C565.985 701.032 565.713 700.136 565.169 699.496C564.641 698.856 563.889 698.536 562.913 698.536C561.937 698.536 561.177 698.864 560.633 699.52C560.105 700.16 559.841 701.048 559.841 702.184V703.768C559.841 704.904 560.097 705.808 560.609 706.48C561.137 707.136 561.905 707.464 562.913 707.464ZM569.371 698.728V697H570.907V696.136C570.907 694.808 571.171 693.864 571.699 693.304C572.243 692.728 573.195 692.44 574.555 692.44H575.107V694.264H574.627C573.875 694.264 573.387 694.424 573.163 694.744C572.939 695.064 572.827 695.688 572.827 696.616V697H578.467V709H576.547V698.728H572.827V709H570.907V698.728H569.371ZM588.831 706.12L590.319 707.176C589.599 708.52 588.215 709.192 586.167 709.192C584.551 709.192 583.279 708.712 582.351 707.752C581.439 706.776 580.983 705.448 580.983 703.768V702.184C580.983 700.488 581.439 699.168 582.351 698.224C583.263 697.28 584.535 696.808 586.167 696.808C588.055 696.808 589.439 697.432 590.319 698.68L588.807 699.736C588.247 698.936 587.367 698.536 586.167 698.536C585.143 698.536 584.343 698.864 583.767 699.52C583.191 700.16 582.903 701.048 582.903 702.184V703.768C582.903 704.904 583.175 705.808 583.719 706.48C584.279 707.136 585.095 707.464 586.167 707.464C587.479 707.464 588.367 707.016 588.831 706.12ZM594.528 709H592.608V697H594.528V709ZM594.648 694.6H592.488V692.44H594.648V694.6ZM605.261 706.12L606.749 707.176C606.333 707.896 605.789 708.416 605.117 708.736C604.461 709.04 603.605 709.192 602.549 709.192C600.949 709.192 599.693 708.712 598.781 707.752C597.869 706.776 597.413 705.448 597.413 703.768V702.184C597.413 700.456 597.821 699.128 598.637 698.2C599.453 697.272 600.629 696.808 602.165 696.808C603.733 696.808 604.917 697.272 605.717 698.2C606.517 699.112 606.917 700.44 606.917 702.184V703.432H599.333V703.768C599.333 704.888 599.597 705.784 600.125 706.456C600.653 707.128 601.413 707.464 602.405 707.464C603.797 707.464 604.749 707.016 605.261 706.12ZM602.165 698.536C600.405 698.536 599.461 699.608 599.333 701.752H604.973C604.877 699.608 603.941 698.536 602.165 698.536ZM611.652 709H609.732V697H611.652V698.176C611.988 697.68 612.396 697.328 612.876 697.12C613.356 696.912 614.02 696.808 614.868 696.808C616.26 696.808 617.332 697.2 618.084 697.984C618.852 698.752 619.236 699.928 619.236 701.512V709H617.316V701.536C617.316 699.568 616.404 698.584 614.58 698.584C613.716 698.584 613.012 698.856 612.468 699.4C611.924 699.944 611.652 700.648 611.652 701.512V709ZM629.613 706.12L631.101 707.176C630.381 708.52 628.997 709.192 626.949 709.192C625.333 709.192 624.061 708.712 623.133 707.752C622.221 706.776 621.765 705.448 621.765 703.768V702.184C621.765 700.488 622.221 699.168 623.133 698.224C624.045 697.28 625.317 696.808 626.949 696.808C628.837 696.808 630.221 697.432 631.101 698.68L629.589 699.736C629.029 698.936 628.149 698.536 626.949 698.536C625.925 698.536 625.125 698.864 624.549 699.52C623.973 700.16 623.685 701.048 623.685 702.184V703.768C623.685 704.904 623.957 705.808 624.501 706.48C625.061 707.136 625.877 707.464 626.949 707.464C628.261 707.464 629.149 707.016 629.613 706.12ZM636.245 709.288L636.293 709.12L631.589 697H633.653L637.229 706.312L640.373 697H642.413L638.189 709.384L637.709 710.704C637.357 711.6 636.981 712.216 636.581 712.552C635.813 713.224 634.685 713.56 633.197 713.56V711.688C634.061 711.688 634.693 711.536 635.093 711.232C635.525 710.944 635.909 710.296 636.245 709.288ZM652.128 697V698.2C652.8 697.272 653.888 696.808 655.392 696.808C656.896 696.808 658.072 697.28 658.92 698.224C659.768 699.152 660.192 700.472 660.192 702.184V703.768C660.192 705.432 659.776 706.752 658.944 707.728C658.112 708.704 656.928 709.192 655.392 709.192C653.888 709.192 652.8 708.728 652.128 707.8V713.56H650.208V697H652.128ZM655.2 707.464C656.16 707.464 656.912 707.12 657.456 706.432C658 705.744 658.272 704.856 658.272 703.768V702.184C658.272 701.032 658 700.136 657.456 699.496C656.928 698.856 656.176 698.536 655.2 698.536C654.24 698.536 653.488 698.848 652.944 699.472C652.4 700.08 652.128 700.928 652.128 702.016V703.768C652.128 704.904 652.384 705.808 652.896 706.48C653.424 707.136 654.192 707.464 655.2 707.464ZM669.972 706.12L671.46 707.176C671.044 707.896 670.5 708.416 669.828 708.736C669.172 709.04 668.316 709.192 667.26 709.192C665.66 709.192 664.404 708.712 663.492 707.752C662.58 706.776 662.124 705.448 662.124 703.768V702.184C662.124 700.456 662.532 699.128 663.348 698.2C664.164 697.272 665.34 696.808 666.876 696.808C668.444 696.808 669.628 697.272 670.428 698.2C671.228 699.112 671.628 700.44 671.628 702.184V703.432H664.044V703.768C664.044 704.888 664.308 705.784 664.836 706.456C665.364 707.128 666.124 707.464 667.116 707.464C668.508 707.464 669.46 707.016 669.972 706.12ZM666.876 698.536C665.116 698.536 664.172 699.608 664.044 701.752H669.684C669.588 699.608 668.652 698.536 666.876 698.536ZM682.579 698.44L680.947 699.592C680.467 698.92 679.795 698.584 678.931 698.584C678.163 698.584 677.539 698.856 677.059 699.4C676.595 699.928 676.363 700.624 676.363 701.488V709H674.443V697H676.363V698.176C676.923 697.264 677.851 696.808 679.147 696.808C680.667 696.808 681.811 697.352 682.579 698.44ZM682.832 698.728V697H684.368V696.136C684.368 694.808 684.632 693.864 685.16 693.304C685.704 692.728 686.656 692.44 688.016 692.44H688.568V694.264H688.088C687.336 694.264 686.848 694.424 686.624 694.744C686.4 695.064 686.288 695.688 686.288 696.616V697H688.568V698.728H686.288V709H684.368V698.728H682.832ZM700.116 702.184V703.768C700.116 705.448 699.692 706.776 698.844 707.752C697.996 708.712 696.756 709.192 695.124 709.192C693.556 709.192 692.332 708.712 691.452 707.752C690.572 706.792 690.132 705.464 690.132 703.768V702.184C690.132 700.488 690.572 699.168 691.452 698.224C692.332 697.28 693.556 696.808 695.124 696.808C696.708 696.808 697.932 697.28 698.796 698.224C699.676 699.152 700.116 700.472 700.116 702.184ZM695.124 707.464C696.084 707.464 696.836 707.12 697.38 706.432C697.924 705.744 698.196 704.856 698.196 703.768V702.184C698.196 701.032 697.924 700.136 697.38 699.496C696.852 698.856 696.1 698.536 695.124 698.536C694.148 698.536 693.388 698.864 692.844 699.52C692.316 700.16 692.052 701.048 692.052 702.184V703.768C692.052 704.904 692.308 705.808 692.82 706.48C693.348 707.136 694.116 707.464 695.124 707.464ZM710.774 698.44L709.142 699.592C708.662 698.92 707.99 698.584 707.126 698.584C706.358 698.584 705.734 698.856 705.254 699.4C704.79 699.928 704.558 700.624 704.558 701.488V709H702.638V697H704.558V698.176C705.118 697.264 706.046 696.808 707.342 696.808C708.862 696.808 710.006 697.352 710.774 698.44ZM714.003 709H712.083V697H714.003V698.176C714.595 697.264 715.587 696.808 716.979 696.808C718.627 696.808 719.795 697.44 720.483 698.704C721.299 697.44 722.499 696.808 724.083 696.808C725.395 696.808 726.411 697.216 727.131 698.032C727.851 698.832 728.211 699.992 728.211 701.512V709H726.291V701.536C726.291 699.568 725.459 698.584 723.795 698.584C723.027 698.584 722.387 698.864 721.875 699.424C721.363 699.968 721.107 700.664 721.107 701.512V709H719.187V701.536C719.187 699.568 718.355 698.584 716.691 698.584C715.923 698.584 715.283 698.864 714.771 699.424C714.259 699.984 714.003 700.68 714.003 701.512V709ZM733.606 709H731.686V697H733.606V709ZM733.726 694.6H731.566V692.44H733.726V694.6ZM739.011 709H737.091V697H739.011V698.176C739.347 697.68 739.755 697.328 740.235 697.12C740.715 696.912 741.379 696.808 742.227 696.808C743.619 696.808 744.691 697.2 745.443 697.984C746.211 698.752 746.595 699.928 746.595 701.512V709H744.675V701.536C744.675 699.568 743.763 698.584 741.939 698.584C741.075 698.584 740.371 698.856 739.827 699.4C739.283 699.944 739.011 700.648 739.011 701.512V709ZM757.188 698.2V697H759.108V708.76C759.108 710.376 758.66 711.6 757.764 712.432C756.884 713.28 755.62 713.704 753.972 713.704C752.916 713.704 752.052 713.544 751.38 713.224C750.724 712.92 750.188 712.408 749.772 711.688L751.26 710.632C751.772 711.528 752.724 711.976 754.116 711.976C756.164 711.976 757.188 710.904 757.188 708.76V707.944C756.548 708.776 755.46 709.192 753.924 709.192C752.388 709.192 751.204 708.704 750.372 707.728C749.54 706.752 749.124 705.432 749.124 703.768V702.184C749.124 700.488 749.548 699.168 750.396 698.224C751.244 697.28 752.42 696.808 753.924 696.808C755.428 696.808 756.516 697.272 757.188 698.2ZM754.116 707.464C755.124 707.464 755.884 707.136 756.396 706.48C756.924 705.808 757.188 704.904 757.188 703.768V702.184C757.188 701.048 756.916 700.16 756.372 699.52C755.844 698.864 755.092 698.536 754.116 698.536C753.14 698.536 752.38 698.856 751.836 699.496C751.308 700.136 751.044 701.032 751.044 702.184V703.768C751.044 704.856 751.316 705.744 751.86 706.432C752.404 707.12 753.156 707.464 754.116 707.464ZM767.64 705.496C767.64 703.208 769.136 702.064 772.128 702.064H774.984V700.672C774.984 699.872 774.784 699.328 774.384 699.04C774 698.736 773.312 698.584 772.32 698.584C771.488 698.584 770.88 698.664 770.496 698.824C770.112 698.984 769.76 699.312 769.44 699.808L768 698.8C768.432 698.08 768.976 697.568 769.632 697.264C770.304 696.96 771.208 696.808 772.344 696.808C773.944 696.808 775.104 697.104 775.824 697.696C776.544 698.288 776.904 699.28 776.904 700.672V709H774.984V707.824C774.664 708.352 774.28 708.712 773.832 708.904C773.4 709.096 772.768 709.192 771.936 709.192C770.56 709.192 769.496 708.872 768.744 708.232C768.008 707.576 767.64 706.664 767.64 705.496ZM774.984 704.392V703.696H772.128C771.232 703.696 770.576 703.848 770.16 704.152C769.76 704.44 769.56 704.904 769.56 705.544C769.56 706.792 770.352 707.416 771.936 707.416C772.944 707.416 773.704 707.224 774.216 706.84C774.728 706.424 774.984 705.608 774.984 704.392ZM793.277 706.12L794.765 707.176C794.045 708.52 792.661 709.192 790.613 709.192C788.997 709.192 787.725 708.712 786.797 707.752C785.885 706.776 785.429 705.448 785.429 703.768V702.184C785.429 700.488 785.885 699.168 786.797 698.224C787.709 697.28 788.981 696.808 790.613 696.808C792.501 696.808 793.885 697.432 794.765 698.68L793.253 699.736C792.693 698.936 791.813 698.536 790.613 698.536C789.589 698.536 788.789 698.864 788.213 699.52C787.637 700.16 787.349 701.048 787.349 702.184V703.768C787.349 704.904 787.621 705.808 788.165 706.48C788.725 707.136 789.541 707.464 790.613 707.464C791.925 707.464 792.813 707.016 793.277 706.12ZM803.941 706.12L805.429 707.176C805.013 707.896 804.469 708.416 803.797 708.736C803.141 709.04 802.285 709.192 801.229 709.192C799.629 709.192 798.373 708.712 797.461 707.752C796.549 706.776 796.093 705.448 796.093 703.768V702.184C796.093 700.456 796.501 699.128 797.317 698.2C798.133 697.272 799.309 696.808 800.845 696.808C802.413 696.808 803.597 697.272 804.397 698.2C805.197 699.112 805.597 700.44 805.597 702.184V703.432H798.013V703.768C798.013 704.888 798.277 705.784 798.805 706.456C799.333 707.128 800.093 707.464 801.085 707.464C802.477 707.464 803.429 707.016 803.941 706.12ZM800.845 698.536C799.085 698.536 798.141 699.608 798.013 701.752H803.653C803.557 699.608 802.621 698.536 800.845 698.536ZM816.548 698.44L814.916 699.592C814.436 698.92 813.764 698.584 812.9 698.584C812.132 698.584 811.508 698.856 811.028 699.4C810.564 699.928 810.332 700.624 810.332 701.488V709H808.412V697H810.332V698.176C810.892 697.264 811.82 696.808 813.116 696.808C814.636 696.808 815.78 697.352 816.548 698.44ZM818.337 698.728H816.801V697H818.337V694.36H820.257V697H823.017V698.728H820.257V704.824C820.257 705.752 820.369 706.376 820.593 706.696C820.817 707.016 821.305 707.176 822.057 707.176H823.017V709H821.985C820.625 709 819.673 708.72 819.129 708.16C818.601 707.584 818.337 706.632 818.337 705.304V698.728ZM824.827 705.496C824.827 703.208 826.323 702.064 829.315 702.064H832.171V700.672C832.171 699.872 831.971 699.328 831.571 699.04C831.187 698.736 830.499 698.584 829.507 698.584C828.675 698.584 828.067 698.664 827.683 698.824C827.299 698.984 826.947 699.312 826.627 699.808L825.187 698.8C825.619 698.08 826.163 697.568 826.819 697.264C827.491 696.96 828.395 696.808 829.531 696.808C831.131 696.808 832.291 697.104 833.011 697.696C833.731 698.288 834.091 699.28 834.091 700.672V709H832.171V707.824C831.851 708.352 831.467 708.712 831.019 708.904C830.587 709.096 829.955 709.192 829.123 709.192C827.747 709.192 826.683 708.872 825.931 708.232C825.195 707.576 824.827 706.664 824.827 705.496ZM832.171 704.392V703.696H829.315C828.419 703.696 827.763 703.848 827.347 704.152C826.947 704.44 826.747 704.904 826.747 705.544C826.747 706.792 827.539 707.416 829.123 707.416C830.131 707.416 830.891 707.224 831.403 706.84C831.915 706.424 832.171 705.608 832.171 704.392ZM839.496 709H837.576V697H839.496V709ZM839.616 694.6H837.456V692.44H839.616V694.6ZM844.902 709H842.982V697H844.902V698.176C845.238 697.68 845.646 697.328 846.126 697.12C846.606 696.912 847.27 696.808 848.118 696.808C849.51 696.808 850.582 697.2 851.334 697.984C852.102 698.752 852.486 699.928 852.486 701.512V709H850.566V701.536C850.566 699.568 849.654 698.584 847.83 698.584C846.966 698.584 846.262 698.856 845.718 699.4C845.174 699.944 844.902 700.648 844.902 701.512V709ZM862.095 698.728H860.559V697H862.095V694.36H864.015V697H866.775V698.728H864.015V704.824C864.015 705.752 864.127 706.376 864.351 706.696C864.575 707.016 865.063 707.176 865.815 707.176H866.775V709H865.743C864.383 709 863.431 708.72 862.887 708.16C862.359 707.584 862.095 706.632 862.095 705.304V698.728ZM868.585 705.496C868.585 703.208 870.081 702.064 873.073 702.064H875.929V700.672C875.929 699.872 875.729 699.328 875.329 699.04C874.945 698.736 874.257 698.584 873.265 698.584C872.433 698.584 871.825 698.664 871.441 698.824C871.057 698.984 870.705 699.312 870.385 699.808L868.945 698.8C869.377 698.08 869.921 697.568 870.577 697.264C871.249 696.96 872.153 696.808 873.289 696.808C874.889 696.808 876.049 697.104 876.769 697.696C877.489 698.288 877.849 699.28 877.849 700.672V709H875.929V707.824C875.609 708.352 875.225 708.712 874.777 708.904C874.345 709.096 873.713 709.192 872.881 709.192C871.505 709.192 870.441 708.872 869.689 708.232C868.953 707.576 868.585 706.664 868.585 705.496ZM875.929 704.392V703.696H873.073C872.177 703.696 871.521 703.848 871.105 704.152C870.705 704.44 870.505 704.904 870.505 705.544C870.505 706.792 871.297 707.416 872.881 707.416C873.889 707.416 874.649 707.224 875.161 706.84C875.673 706.424 875.929 705.608 875.929 704.392ZM889.158 698.8L887.718 699.808C887.382 699.36 886.998 699.048 886.566 698.872C886.134 698.68 885.526 698.584 884.742 698.584C884.022 698.584 883.454 698.728 883.038 699.016C882.622 699.288 882.414 699.68 882.414 700.192C882.414 701.328 883.342 701.96 885.198 702.088C886.43 702.184 887.422 702.456 888.174 702.904C889.07 703.4 889.518 704.32 889.518 705.664C889.518 706.784 889.134 707.656 888.366 708.28C887.598 708.888 886.478 709.192 885.006 709.192C882.878 709.192 881.334 708.528 880.374 707.2L881.79 706.192C882.126 706.624 882.534 706.936 883.014 707.128C883.51 707.32 884.182 707.416 885.03 707.416C885.83 707.416 886.454 707.272 886.902 706.984C887.366 706.68 887.598 706.256 887.598 705.712C887.598 705.072 887.374 704.616 886.926 704.344C886.478 704.056 885.67 703.872 884.502 703.792C881.83 703.6 880.494 702.408 880.494 700.216C880.494 699.176 880.87 698.352 881.622 697.744C882.374 697.12 883.43 696.808 884.79 696.808C886.854 696.808 888.31 697.472 889.158 698.8ZM894.074 701.896L898.922 697H901.418L896.234 702.304L902.162 709H899.666L894.818 703.768L894.074 704.56V709H892.154V692.44H894.074V701.896ZM903.729 706.216H906.513V709H903.729V706.216ZM916.241 692.44H918.305V709H916.241V692.44ZM921.098 698.728V697H922.634V696.136C922.634 694.808 922.898 693.864 923.426 693.304C923.97 692.728 924.922 692.44 926.282 692.44H926.834V694.264H926.354C925.602 694.264 925.114 694.424 924.89 694.744C924.666 695.064 924.554 695.688 924.554 696.616V697H926.834V698.728H924.554V709H922.634V698.728H921.098ZM935.478 698.728H933.942V697H935.478V694.36H937.398V697H940.158V698.728H937.398V704.824C937.398 705.752 937.51 706.376 937.734 706.696C937.958 707.016 938.446 707.176 939.198 707.176H940.158V709H939.126C937.766 709 936.814 708.72 936.27 708.16C935.742 707.584 935.478 706.632 935.478 705.304V698.728ZM944.488 709H942.568V692.44H944.488V698.176C944.824 697.68 945.232 697.328 945.712 697.12C946.192 696.912 946.856 696.808 947.704 696.808C949.096 696.808 950.168 697.2 950.92 697.984C951.688 698.752 952.072 699.928 952.072 701.512V709H950.152V701.536C950.152 699.568 949.24 698.584 947.416 698.584C946.552 698.584 945.848 698.856 945.304 699.4C944.76 699.944 944.488 700.648 944.488 701.512V709ZM962.449 706.12L963.937 707.176C963.521 707.896 962.977 708.416 962.305 708.736C961.649 709.04 960.793 709.192 959.737 709.192C958.137 709.192 956.881 708.712 955.969 707.752C955.057 706.776 954.601 705.448 954.601 703.768V702.184C954.601 700.456 955.009 699.128 955.825 698.2C956.641 697.272 957.817 696.808 959.353 696.808C960.921 696.808 962.105 697.272 962.905 698.2C963.705 699.112 964.105 700.44 964.105 702.184V703.432H956.521V703.768C956.521 704.888 956.785 705.784 957.313 706.456C957.841 707.128 958.601 707.464 959.593 707.464C960.985 707.464 961.937 707.016 962.449 706.12ZM959.353 698.536C957.593 698.536 956.649 699.608 956.521 701.752H962.161C962.065 699.608 961.129 698.536 959.353 698.536ZM969.901 709.288L969.949 709.12L965.245 697H967.309L970.885 706.312L974.029 697H976.069L971.845 709.384L971.365 710.704C971.013 711.6 970.637 712.216 970.237 712.552C969.469 713.224 968.341 713.56 966.853 713.56V711.688C967.717 711.688 968.349 711.536 968.749 711.232C969.181 710.944 969.565 710.296 969.901 709.288ZM985.785 697V698.2C986.457 697.272 987.545 696.808 989.049 696.808C990.553 696.808 991.729 697.28 992.577 698.224C993.425 699.152 993.849 700.472 993.849 702.184V703.768C993.849 705.432 993.433 706.752 992.601 707.728C991.769 708.704 990.585 709.192 989.049 709.192C987.545 709.192 986.457 708.728 985.785 707.8V713.56H983.865V697H985.785ZM988.857 707.464C989.817 707.464 990.569 707.12 991.113 706.432C991.657 705.744 991.929 704.856 991.929 703.768V702.184C991.929 701.032 991.657 700.136 991.113 699.496C990.585 698.856 989.833 698.536 988.857 698.536C987.897 698.536 987.145 698.848 986.601 699.472C986.057 700.08 985.785 700.928 985.785 702.016V703.768C985.785 704.904 986.041 705.808 986.553 706.48C987.081 707.136 987.849 707.464 988.857 707.464ZM995.78 705.496C995.78 703.208 997.276 702.064 1000.27 702.064H1003.12V700.672C1003.12 699.872 1002.92 699.328 1002.52 699.04C1002.14 698.736 1001.45 698.584 1000.46 698.584C999.628 698.584 999.02 698.664 998.636 698.824C998.252 698.984 997.9 699.312 997.58 699.808L996.14 698.8C996.572 698.08 997.116 697.568 997.772 697.264C998.444 696.96 999.348 696.808 1000.48 696.808C1002.08 696.808 1003.24 697.104 1003.96 697.696C1004.68 698.288 1005.04 699.28 1005.04 700.672V709H1003.12V707.824C1002.8 708.352 1002.42 708.712 1001.97 708.904C1001.54 709.096 1000.91 709.192 1000.08 709.192C998.7 709.192 997.636 708.872 996.884 708.232C996.148 707.576 995.78 706.664 995.78 705.496ZM1003.12 704.392V703.696H1000.27C999.372 703.696 998.716 703.848 998.3 704.152C997.9 704.44 997.7 704.904 997.7 705.544C997.7 706.792 998.492 707.416 1000.08 707.416C1001.08 707.416 1001.84 707.224 1002.36 706.84C1002.87 706.424 1003.12 705.608 1003.12 704.392ZM1016.35 698.8L1014.91 699.808C1014.58 699.36 1014.19 699.048 1013.76 698.872C1013.33 698.68 1012.72 698.584 1011.94 698.584C1011.22 698.584 1010.65 698.728 1010.23 699.016C1009.82 699.288 1009.61 699.68 1009.61 700.192C1009.61 701.328 1010.54 701.96 1012.39 702.088C1013.63 702.184 1014.62 702.456 1015.37 702.904C1016.27 703.4 1016.71 704.32 1016.71 705.664C1016.71 706.784 1016.33 707.656 1015.56 708.28C1014.79 708.888 1013.67 709.192 1012.2 709.192C1010.07 709.192 1008.53 708.528 1007.57 707.2L1008.99 706.192C1009.32 706.624 1009.73 706.936 1010.21 707.128C1010.71 707.32 1011.38 707.416 1012.23 707.416C1013.03 707.416 1013.65 707.272 1014.1 706.984C1014.56 706.68 1014.79 706.256 1014.79 705.712C1014.79 705.072 1014.57 704.616 1014.12 704.344C1013.67 704.056 1012.87 703.872 1011.7 703.792C1009.03 703.6 1007.69 702.408 1007.69 700.216C1007.69 699.176 1008.07 698.352 1008.82 697.744C1009.57 697.12 1010.63 696.808 1011.99 696.808C1014.05 696.808 1015.51 697.472 1016.35 698.8ZM1027.53 698.8L1026.09 699.808C1025.76 699.36 1025.37 699.048 1024.94 698.872C1024.51 698.68 1023.9 698.584 1023.12 698.584C1022.4 698.584 1021.83 698.728 1021.41 699.016C1021 699.288 1020.79 699.68 1020.79 700.192C1020.79 701.328 1021.72 701.96 1023.57 702.088C1024.81 702.184 1025.8 702.456 1026.55 702.904C1027.45 703.4 1027.89 704.32 1027.89 705.664C1027.89 706.784 1027.51 707.656 1026.74 708.28C1025.97 708.888 1024.85 709.192 1023.38 709.192C1021.25 709.192 1019.71 708.528 1018.75 707.2L1020.17 706.192C1020.5 706.624 1020.91 706.936 1021.39 707.128C1021.89 707.32 1022.56 707.416 1023.41 707.416C1024.21 707.416 1024.83 707.272 1025.28 706.984C1025.74 706.68 1025.97 706.256 1025.97 705.712C1025.97 705.072 1025.75 704.616 1025.3 704.344C1024.85 704.056 1024.05 703.872 1022.88 703.792C1020.21 703.6 1018.87 702.408 1018.87 700.216C1018.87 699.176 1019.25 698.352 1020 697.744C1020.75 697.12 1021.81 696.808 1023.17 696.808C1025.23 696.808 1026.69 697.472 1027.53 698.8ZM1030.41 706.216H1032.71V710.416L1030.41 712.408V706.216ZM1042.19 698.728H1040.65V697H1042.19V694.36H1044.11V697H1046.87V698.728H1044.11V704.824C1044.11 705.752 1044.22 706.376 1044.44 706.696C1044.67 707.016 1045.16 707.176 1045.91 707.176H1046.87V709H1045.84C1044.48 709 1043.52 708.72 1042.98 708.16C1042.45 707.584 1042.19 706.632 1042.19 705.304V698.728ZM1051.2 709H1049.28V692.44H1051.2V698.176C1051.53 697.68 1051.94 697.328 1052.42 697.12C1052.9 696.912 1053.57 696.808 1054.41 696.808C1055.81 696.808 1056.88 697.2 1057.63 697.984C1058.4 698.752 1058.78 699.928 1058.78 701.512V709H1056.86V701.536C1056.86 699.568 1055.95 698.584 1054.13 698.584C1053.26 698.584 1052.56 698.856 1052.01 699.4C1051.47 699.944 1051.2 700.648 1051.2 701.512V709ZM1069.16 706.12L1070.65 707.176C1070.23 707.896 1069.69 708.416 1069.02 708.736C1068.36 709.04 1067.5 709.192 1066.45 709.192C1064.85 709.192 1063.59 708.712 1062.68 707.752C1061.77 706.776 1061.31 705.448 1061.31 703.768V702.184C1061.31 700.456 1061.72 699.128 1062.54 698.2C1063.35 697.272 1064.53 696.808 1066.06 696.808C1067.63 696.808 1068.82 697.272 1069.62 698.2C1070.42 699.112 1070.82 700.44 1070.82 702.184V703.432H1063.23V703.768C1063.23 704.888 1063.5 705.784 1064.02 706.456C1064.55 707.128 1065.31 707.464 1066.3 707.464C1067.7 707.464 1068.65 707.016 1069.16 706.12ZM1066.06 698.536C1064.3 698.536 1063.36 699.608 1063.23 701.752H1068.87C1068.78 699.608 1067.84 698.536 1066.06 698.536ZM1076.61 709.288L1076.66 709.12L1071.96 697H1074.02L1077.6 706.312L1080.74 697H1082.78L1078.56 709.384L1078.08 710.704C1077.72 711.6 1077.35 712.216 1076.95 712.552C1076.18 713.224 1075.05 713.56 1073.56 713.56V711.688C1074.43 711.688 1075.06 711.536 1075.46 711.232C1075.89 710.944 1076.28 710.296 1076.61 709.288ZM1084.46 691.24H1086.52V695.68L1084.46 697.456V691.24ZM1089.9 705.304V692.44H1091.82V704.824C1091.82 705.496 1091.9 706.056 1092.08 706.504C1092.34 706.984 1092.93 707.224 1093.86 707.224V709C1092.4 709 1091.38 708.712 1090.78 708.136C1090.19 707.56 1089.9 706.616 1089.9 705.304ZM1096.48 705.304V692.44H1098.4V704.824C1098.4 705.496 1098.49 706.056 1098.67 706.504C1098.92 706.984 1099.51 707.224 1100.44 707.224V709C1098.99 709 1097.96 708.712 1097.37 708.136C1096.78 707.56 1096.48 706.616 1096.48 705.304ZM536.56 723.44H538.48V729.2C539.152 728.272 540.24 727.808 541.744 727.808C543.248 727.808 544.424 728.28 545.272 729.224C546.12 730.152 546.544 731.472 546.544 733.184V734.768C546.544 736.432 546.128 737.752 545.296 738.728C544.464 739.704 543.28 740.192 541.744 740.192C540.208 740.192 539.12 739.776 538.48 738.944V740H536.56V723.44ZM541.552 738.464C542.512 738.464 543.264 738.12 543.808 737.432C544.352 736.744 544.624 735.856 544.624 734.768V733.184C544.624 732.032 544.352 731.136 543.808 730.496C543.28 729.856 542.528 729.536 541.552 729.536C540.592 729.536 539.84 729.848 539.296 730.472C538.752 731.08 538.48 731.928 538.48 733.016V734.768C538.48 735.904 538.736 736.808 539.248 737.48C539.776 738.136 540.544 738.464 541.552 738.464ZM556.324 737.12L557.812 738.176C557.396 738.896 556.852 739.416 556.18 739.736C555.524 740.04 554.668 740.192 553.612 740.192C552.012 740.192 550.756 739.712 549.844 738.752C548.932 737.776 548.476 736.448 548.476 734.768V733.184C548.476 731.456 548.884 730.128 549.7 729.2C550.516 728.272 551.692 727.808 553.228 727.808C554.796 727.808 555.98 728.272 556.78 729.2C557.58 730.112 557.98 731.44 557.98 733.184V734.432H550.396V734.768C550.396 735.888 550.66 736.784 551.188 737.456C551.716 738.128 552.476 738.464 553.468 738.464C554.86 738.464 555.812 738.016 556.324 737.12ZM553.228 729.536C551.468 729.536 550.524 730.608 550.396 732.752H556.036C555.94 730.608 555.004 729.536 553.228 729.536ZM566.194 736.496C566.194 734.208 567.69 733.064 570.682 733.064H573.538V731.672C573.538 730.872 573.338 730.328 572.938 730.04C572.554 729.736 571.866 729.584 570.874 729.584C570.042 729.584 569.434 729.664 569.05 729.824C568.666 729.984 568.314 730.312 567.994 730.808L566.554 729.8C566.986 729.08 567.53 728.568 568.186 728.264C568.858 727.96 569.762 727.808 570.898 727.808C572.498 727.808 573.658 728.104 574.378 728.696C575.098 729.288 575.458 730.28 575.458 731.672V740H573.538V738.824C573.218 739.352 572.834 739.712 572.386 739.904C571.954 740.096 571.322 740.192 570.49 740.192C569.114 740.192 568.05 739.872 567.298 739.232C566.562 738.576 566.194 737.664 566.194 736.496ZM573.538 735.392V734.696H570.682C569.786 734.696 569.13 734.848 568.714 735.152C568.314 735.44 568.114 735.904 568.114 736.544C568.114 737.792 568.906 738.416 570.49 738.416C571.498 738.416 572.258 738.224 572.77 737.84C573.282 737.424 573.538 736.608 573.538 735.392ZM588.807 740L585.615 731.024L582.423 740H580.743L577.263 728H579.303L581.703 736.424L584.727 728H586.335L589.527 736.496L591.927 728H593.967L590.487 740H588.807ZM595.163 736.496C595.163 734.208 596.659 733.064 599.651 733.064H602.507V731.672C602.507 730.872 602.307 730.328 601.907 730.04C601.523 729.736 600.835 729.584 599.843 729.584C599.011 729.584 598.403 729.664 598.019 729.824C597.635 729.984 597.283 730.312 596.963 730.808L595.523 729.8C595.955 729.08 596.499 728.568 597.155 728.264C597.827 727.96 598.731 727.808 599.867 727.808C601.467 727.808 602.627 728.104 603.347 728.696C604.067 729.288 604.427 730.28 604.427 731.672V740H602.507V738.824C602.187 739.352 601.803 739.712 601.355 739.904C600.923 740.096 600.291 740.192 599.459 740.192C598.083 740.192 597.019 739.872 596.267 739.232C595.531 738.576 595.163 737.664 595.163 736.496ZM602.507 735.392V734.696H599.651C598.755 734.696 598.099 734.848 597.683 735.152C597.283 735.44 597.083 735.904 597.083 736.544C597.083 737.792 597.875 738.416 599.459 738.416C600.467 738.416 601.227 738.224 601.739 737.84C602.251 737.424 602.507 736.608 602.507 735.392ZM615.688 729.44L614.056 730.592C613.576 729.92 612.904 729.584 612.04 729.584C611.272 729.584 610.648 729.856 610.168 730.4C609.704 730.928 609.472 731.624 609.472 732.488V740H607.552V728H609.472V729.176C610.032 728.264 610.96 727.808 612.256 727.808C613.776 727.808 614.92 728.352 615.688 729.44ZM624.462 729.2V723.44H626.382V740H624.462V738.944C623.822 739.776 622.734 740.192 621.198 740.192C619.662 740.192 618.478 739.704 617.646 738.728C616.814 737.752 616.398 736.432 616.398 734.768V733.184C616.398 731.488 616.822 730.168 617.67 729.224C618.518 728.28 619.694 727.808 621.198 727.808C622.702 727.808 623.79 728.272 624.462 729.2ZM621.39 738.464C622.382 738.464 623.142 738.152 623.67 737.528C624.198 736.888 624.462 736.024 624.462 734.936V733.184C624.462 732.048 624.19 731.16 623.646 730.52C623.118 729.864 622.366 729.536 621.39 729.536C620.414 729.536 619.654 729.856 619.11 730.496C618.582 731.136 618.318 732.032 618.318 733.184V734.768C618.318 735.856 618.59 736.744 619.134 737.432C619.678 738.12 620.43 738.464 621.39 738.464ZM636.761 737.12L638.249 738.176C637.833 738.896 637.289 739.416 636.617 739.736C635.961 740.04 635.105 740.192 634.049 740.192C632.449 740.192 631.193 739.712 630.281 738.752C629.369 737.776 628.913 736.448 628.913 734.768V733.184C628.913 731.456 629.321 730.128 630.137 729.2C630.953 728.272 632.129 727.808 633.665 727.808C635.233 727.808 636.417 728.272 637.217 729.2C638.017 730.112 638.417 731.44 638.417 733.184V734.432H630.833V734.768C630.833 735.888 631.097 736.784 631.625 737.456C632.153 738.128 632.913 738.464 633.905 738.464C635.297 738.464 636.249 738.016 636.761 737.12ZM633.665 729.536C631.905 729.536 630.961 730.608 630.833 732.752H636.473C636.377 730.608 635.441 729.536 633.665 729.536ZM648.696 729.2V723.44H650.616V740H648.696V738.944C648.056 739.776 646.968 740.192 645.432 740.192C643.896 740.192 642.712 739.704 641.88 738.728C641.048 737.752 640.632 736.432 640.632 734.768V733.184C640.632 731.488 641.056 730.168 641.904 729.224C642.752 728.28 643.928 727.808 645.432 727.808C646.936 727.808 648.024 728.272 648.696 729.2ZM645.624 738.464C646.616 738.464 647.376 738.152 647.904 737.528C648.432 736.888 648.696 736.024 648.696 734.936V733.184C648.696 732.048 648.424 731.16 647.88 730.52C647.352 729.864 646.6 729.536 645.624 729.536C644.648 729.536 643.888 729.856 643.344 730.496C642.816 731.136 642.552 732.032 642.552 733.184V734.768C642.552 735.856 642.824 736.744 643.368 737.432C643.912 738.12 644.664 738.464 645.624 738.464ZM659.148 736.496C659.148 734.208 660.644 733.064 663.636 733.064H666.492V731.672C666.492 730.872 666.292 730.328 665.892 730.04C665.508 729.736 664.82 729.584 663.828 729.584C662.996 729.584 662.388 729.664 662.004 729.824C661.62 729.984 661.268 730.312 660.948 730.808L659.508 729.8C659.94 729.08 660.484 728.568 661.14 728.264C661.812 727.96 662.716 727.808 663.852 727.808C665.452 727.808 666.612 728.104 667.332 728.696C668.052 729.288 668.412 730.28 668.412 731.672V740H666.492V738.824C666.172 739.352 665.788 739.712 665.34 739.904C664.908 740.096 664.276 740.192 663.444 740.192C662.068 740.192 661.004 739.872 660.252 739.232C659.516 738.576 659.148 737.664 659.148 736.496ZM666.492 735.392V734.696H663.636C662.74 734.696 662.084 734.848 661.668 735.152C661.268 735.44 661.068 735.904 661.068 736.544C661.068 737.792 661.86 738.416 663.444 738.416C664.452 738.416 665.212 738.224 665.724 737.84C666.236 737.424 666.492 736.608 666.492 735.392ZM677.537 723.44H679.457V729.2C680.129 728.272 681.217 727.808 682.721 727.808C684.225 727.808 685.401 728.28 686.249 729.224C687.097 730.152 687.521 731.472 687.521 733.184V734.768C687.521 736.432 687.105 737.752 686.273 738.728C685.441 739.704 684.257 740.192 682.721 740.192C681.185 740.192 680.097 739.776 679.457 738.944V740H677.537V723.44ZM682.529 738.464C683.489 738.464 684.241 738.12 684.785 737.432C685.329 736.744 685.601 735.856 685.601 734.768V733.184C685.601 732.032 685.329 731.136 684.785 730.496C684.257 729.856 683.505 729.536 682.529 729.536C681.569 729.536 680.817 729.848 680.273 730.472C679.729 731.08 679.457 731.928 679.457 733.016V734.768C679.457 735.904 679.713 736.808 680.225 737.48C680.753 738.136 681.521 738.464 682.529 738.464ZM689.452 736.496C689.452 734.208 690.948 733.064 693.94 733.064H696.796V731.672C696.796 730.872 696.596 730.328 696.196 730.04C695.812 729.736 695.124 729.584 694.132 729.584C693.3 729.584 692.692 729.664 692.308 729.824C691.924 729.984 691.572 730.312 691.252 730.808L689.812 729.8C690.244 729.08 690.788 728.568 691.444 728.264C692.116 727.96 693.02 727.808 694.156 727.808C695.756 727.808 696.916 728.104 697.636 728.696C698.356 729.288 698.716 730.28 698.716 731.672V740H696.796V738.824C696.476 739.352 696.092 739.712 695.644 739.904C695.212 740.096 694.58 740.192 693.748 740.192C692.372 740.192 691.308 739.872 690.556 739.232C689.82 738.576 689.452 737.664 689.452 736.496ZM696.796 735.392V734.696H693.94C693.044 734.696 692.388 734.848 691.972 735.152C691.572 735.44 691.372 735.904 691.372 736.544C691.372 737.792 692.164 738.416 693.748 738.416C694.756 738.416 695.516 738.224 696.028 737.84C696.54 737.424 696.796 736.608 696.796 735.392ZM709.305 729.2V723.44H711.225V740H709.305V738.944C708.665 739.776 707.577 740.192 706.041 740.192C704.505 740.192 703.321 739.704 702.489 738.728C701.657 737.752 701.241 736.432 701.241 734.768V733.184C701.241 731.488 701.665 730.168 702.513 729.224C703.361 728.28 704.537 727.808 706.041 727.808C707.545 727.808 708.633 728.272 709.305 729.2ZM706.233 738.464C707.225 738.464 707.985 738.152 708.513 737.528C709.041 736.888 709.305 736.024 709.305 734.936V733.184C709.305 732.048 709.033 731.16 708.489 730.52C707.961 729.864 707.209 729.536 706.233 729.536C705.257 729.536 704.497 729.856 703.953 730.496C703.425 731.136 703.161 732.032 703.161 733.184V734.768C703.161 735.856 703.433 736.744 703.977 737.432C704.521 738.12 705.273 738.464 706.233 738.464ZM721.821 729.2V728H723.741V739.76C723.741 741.376 723.293 742.6 722.397 743.432C721.517 744.28 720.253 744.704 718.605 744.704C717.549 744.704 716.685 744.544 716.013 744.224C715.357 743.92 714.821 743.408 714.405 742.688L715.893 741.632C716.405 742.528 717.357 742.976 718.749 742.976C720.797 742.976 721.821 741.904 721.821 739.76V738.944C721.181 739.776 720.093 740.192 718.557 740.192C717.021 740.192 715.837 739.704 715.005 738.728C714.173 737.752 713.757 736.432 713.757 734.768V733.184C713.757 731.488 714.181 730.168 715.029 729.224C715.877 728.28 717.053 727.808 718.557 727.808C720.061 727.808 721.149 728.272 721.821 729.2ZM718.749 738.464C719.757 738.464 720.517 738.136 721.029 737.48C721.557 736.808 721.821 735.904 721.821 734.768V733.184C721.821 732.048 721.549 731.16 721.005 730.52C720.477 729.864 719.725 729.536 718.749 729.536C717.773 729.536 717.013 729.856 716.469 730.496C715.941 731.136 715.677 732.032 715.677 733.184V734.768C715.677 735.856 715.949 736.744 716.493 737.432C717.037 738.12 717.789 738.464 718.749 738.464ZM734.121 737.12L735.609 738.176C735.193 738.896 734.649 739.416 733.977 739.736C733.321 740.04 732.465 740.192 731.409 740.192C729.809 740.192 728.553 739.712 727.641 738.752C726.729 737.776 726.273 736.448 726.273 734.768V733.184C726.273 731.456 726.681 730.128 727.497 729.2C728.313 728.272 729.489 727.808 731.025 727.808C732.593 727.808 733.777 728.272 734.577 729.2C735.377 730.112 735.777 731.44 735.777 733.184V734.432H728.193V734.768C728.193 735.888 728.457 736.784 728.985 737.456C729.513 738.128 730.273 738.464 731.265 738.464C732.657 738.464 733.609 738.016 734.121 737.12ZM731.025 729.536C729.265 729.536 728.321 730.608 728.193 732.752H733.833C733.737 730.608 732.801 729.536 731.025 729.536ZM746.871 740H744.951V728H746.871V740ZM746.991 725.6H744.831V723.44H746.991V725.6ZM752.277 740H750.357V728H752.277V729.176C752.613 728.68 753.021 728.328 753.501 728.12C753.981 727.912 754.645 727.808 755.493 727.808C756.885 727.808 757.957 728.2 758.709 728.984C759.477 729.752 759.861 730.928 759.861 732.512V740H757.941V732.536C757.941 730.568 757.029 729.584 755.205 729.584C754.341 729.584 753.637 729.856 753.093 730.4C752.549 730.944 752.277 731.648 752.277 732.512V740ZM770.454 729.2V723.44H772.374V740H770.454V738.944C769.814 739.776 768.726 740.192 767.19 740.192C765.654 740.192 764.47 739.704 763.638 738.728C762.806 737.752 762.39 736.432 762.39 734.768V733.184C762.39 731.488 762.814 730.168 763.662 729.224C764.51 728.28 765.686 727.808 767.19 727.808C768.694 727.808 769.782 728.272 770.454 729.2ZM767.382 738.464C768.374 738.464 769.134 738.152 769.662 737.528C770.19 736.888 770.454 736.024 770.454 734.936V733.184C770.454 732.048 770.182 731.16 769.638 730.52C769.11 729.864 768.358 729.536 767.382 729.536C766.406 729.536 765.646 729.856 765.102 730.496C764.574 731.136 764.31 732.032 764.31 733.184V734.768C764.31 735.856 764.582 736.744 765.126 737.432C765.67 738.12 766.422 738.464 767.382 738.464ZM777.785 740H775.865V728H777.785V740ZM777.905 725.6H775.745V723.44H777.905V725.6ZM788.519 737.12L790.007 738.176C789.287 739.52 787.903 740.192 785.855 740.192C784.239 740.192 782.967 739.712 782.039 738.752C781.127 737.776 780.671 736.448 780.671 734.768V733.184C780.671 731.488 781.127 730.168 782.039 729.224C782.951 728.28 784.223 727.808 785.855 727.808C787.743 727.808 789.127 728.432 790.007 729.68L788.495 730.736C787.935 729.936 787.055 729.536 785.855 729.536C784.831 729.536 784.031 729.864 783.455 730.52C782.879 731.16 782.591 732.048 782.591 733.184V734.768C782.591 735.904 782.863 736.808 783.407 737.48C783.967 738.136 784.783 738.464 785.855 738.464C787.167 738.464 788.055 738.016 788.519 737.12ZM791.101 736.496C791.101 734.208 792.597 733.064 795.589 733.064H798.445V731.672C798.445 730.872 798.245 730.328 797.845 730.04C797.461 729.736 796.773 729.584 795.781 729.584C794.949 729.584 794.341 729.664 793.957 729.824C793.573 729.984 793.221 730.312 792.901 730.808L791.461 729.8C791.893 729.08 792.437 728.568 793.093 728.264C793.765 727.96 794.669 727.808 795.805 727.808C797.405 727.808 798.565 728.104 799.285 728.696C800.005 729.288 800.365 730.28 800.365 731.672V740H798.445V738.824C798.125 739.352 797.741 739.712 797.293 739.904C796.861 740.096 796.229 740.192 795.397 740.192C794.021 740.192 792.957 739.872 792.205 739.232C791.469 738.576 791.101 737.664 791.101 736.496ZM798.445 735.392V734.696H795.589C794.693 734.696 794.037 734.848 793.621 735.152C793.221 735.44 793.021 735.904 793.021 736.544C793.021 737.792 793.813 738.416 795.397 738.416C796.405 738.416 797.165 738.224 797.677 737.84C798.189 737.424 798.445 736.608 798.445 735.392ZM803.97 729.728H802.434V728H803.97V725.36H805.89V728H808.65V729.728H805.89V735.824C805.89 736.752 806.002 737.376 806.226 737.696C806.45 738.016 806.938 738.176 807.69 738.176H808.65V740H807.618C806.258 740 805.306 739.72 804.762 739.16C804.234 738.584 803.97 737.632 803.97 736.304V729.728ZM813.34 740H811.42V728H813.34V740ZM813.46 725.6H811.3V723.44H813.46V725.6ZM818.746 740H816.826V728H818.746V729.176C819.082 728.68 819.49 728.328 819.97 728.12C820.45 727.912 821.114 727.808 821.962 727.808C823.354 727.808 824.426 728.2 825.178 728.984C825.946 729.752 826.33 730.928 826.33 732.512V740H824.41V732.536C824.41 730.568 823.498 729.584 821.674 729.584C820.81 729.584 820.106 729.856 819.562 730.4C819.018 730.944 818.746 731.648 818.746 732.512V740ZM836.922 729.2V728H838.842V739.76C838.842 741.376 838.394 742.6 837.498 743.432C836.618 744.28 835.354 744.704 833.706 744.704C832.65 744.704 831.786 744.544 831.114 744.224C830.458 743.92 829.922 743.408 829.506 742.688L830.994 741.632C831.506 742.528 832.458 742.976 833.85 742.976C835.898 742.976 836.922 741.904 836.922 739.76V738.944C836.282 739.776 835.194 740.192 833.658 740.192C832.122 740.192 830.938 739.704 830.106 738.728C829.274 737.752 828.858 736.432 828.858 734.768V733.184C828.858 731.488 829.282 730.168 830.13 729.224C830.978 728.28 832.154 727.808 833.658 727.808C835.162 727.808 836.25 728.272 836.922 729.2ZM833.85 738.464C834.858 738.464 835.618 738.136 836.13 737.48C836.658 736.808 836.922 735.904 836.922 734.768V733.184C836.922 732.048 836.65 731.16 836.106 730.52C835.578 729.864 834.826 729.536 833.85 729.536C832.874 729.536 832.114 729.856 831.57 730.496C831.042 731.136 830.778 732.032 830.778 733.184V734.768C830.778 735.856 831.05 736.744 831.594 737.432C832.138 738.12 832.89 738.464 833.85 738.464ZM848.454 729.728H846.918V728H848.454V725.36H850.374V728H853.134V729.728H850.374V735.824C850.374 736.752 850.486 737.376 850.71 737.696C850.934 738.016 851.422 738.176 852.174 738.176H853.134V740H852.102C850.742 740 849.79 739.72 849.246 739.16C848.718 738.584 848.454 737.632 848.454 736.304V729.728ZM857.464 740H855.544V723.44H857.464V729.176C857.8 728.68 858.208 728.328 858.688 728.12C859.168 727.912 859.832 727.808 860.68 727.808C862.072 727.808 863.144 728.2 863.896 728.984C864.664 729.752 865.048 730.928 865.048 732.512V740H863.128V732.536C863.128 730.568 862.216 729.584 860.392 729.584C859.528 729.584 858.824 729.856 858.28 730.4C857.736 730.944 857.464 731.648 857.464 732.512V740ZM875.425 737.12L876.913 738.176C876.497 738.896 875.953 739.416 875.281 739.736C874.625 740.04 873.769 740.192 872.713 740.192C871.113 740.192 869.857 739.712 868.945 738.752C868.033 737.776 867.577 736.448 867.577 734.768V733.184C867.577 731.456 867.985 730.128 868.801 729.2C869.617 728.272 870.793 727.808 872.329 727.808C873.897 727.808 875.081 728.272 875.881 729.2C876.681 730.112 877.081 731.44 877.081 733.184V734.432H869.497V734.768C869.497 735.888 869.761 736.784 870.289 737.456C870.817 738.128 871.577 738.464 872.569 738.464C873.961 738.464 874.913 738.016 875.425 737.12ZM872.329 729.536C870.569 729.536 869.625 730.608 869.497 732.752H875.137C875.041 730.608 874.105 729.536 872.329 729.536ZM882.878 740.288L882.926 740.12L878.222 728H880.286L883.862 737.312L887.006 728H889.046L884.822 740.384L884.342 741.704C883.99 742.6 883.614 743.216 883.214 743.552C882.446 744.224 881.318 744.56 879.83 744.56V742.688C880.694 742.688 881.326 742.536 881.726 742.232C882.158 741.944 882.542 741.296 882.878 740.288ZM904.089 737.12L905.577 738.176C904.857 739.52 903.473 740.192 901.425 740.192C899.809 740.192 898.537 739.712 897.609 738.752C896.697 737.776 896.241 736.448 896.241 734.768V733.184C896.241 731.488 896.697 730.168 897.609 729.224C898.521 728.28 899.793 727.808 901.425 727.808C903.313 727.808 904.697 728.432 905.577 729.68L904.065 730.736C903.505 729.936 902.625 729.536 901.425 729.536C900.401 729.536 899.601 729.864 899.025 730.52C898.449 731.16 898.161 732.048 898.161 733.184V734.768C898.161 735.904 898.433 736.808 898.977 737.48C899.537 738.136 900.353 738.464 901.425 738.464C902.737 738.464 903.625 738.016 904.089 737.12ZM906.671 736.496C906.671 734.208 908.167 733.064 911.159 733.064H914.015V731.672C914.015 730.872 913.815 730.328 913.415 730.04C913.031 729.736 912.343 729.584 911.351 729.584C910.519 729.584 909.911 729.664 909.527 729.824C909.143 729.984 908.791 730.312 908.471 730.808L907.031 729.8C907.463 729.08 908.007 728.568 908.663 728.264C909.335 727.96 910.239 727.808 911.375 727.808C912.975 727.808 914.135 728.104 914.855 728.696C915.575 729.288 915.935 730.28 915.935 731.672V740H914.015V738.824C913.695 739.352 913.311 739.712 912.863 739.904C912.431 740.096 911.799 740.192 910.967 740.192C909.591 740.192 908.527 739.872 907.775 739.232C907.039 738.576 906.671 737.664 906.671 736.496ZM914.015 735.392V734.696H911.159C910.263 734.696 909.607 734.848 909.191 735.152C908.791 735.44 908.591 735.904 908.591 736.544C908.591 737.792 909.383 738.416 910.967 738.416C911.975 738.416 912.735 738.224 913.247 737.84C913.759 737.424 914.015 736.608 914.015 735.392ZM920.98 740H919.06V728H920.98V729.176C921.316 728.68 921.724 728.328 922.204 728.12C922.684 727.912 923.348 727.808 924.196 727.808C925.588 727.808 926.66 728.2 927.412 728.984C928.18 729.752 928.564 730.928 928.564 732.512V740H926.644V732.536C926.644 730.568 925.732 729.584 923.908 729.584C923.044 729.584 922.34 729.856 921.796 730.4C921.252 730.944 920.98 731.648 920.98 732.512V740ZM947.917 740L944.725 731.024L941.533 740H939.853L936.373 728H938.413L940.813 736.424L943.837 728H945.445L948.637 736.496L951.037 728H953.077L949.597 740H947.917ZM964.257 733.184V734.768C964.257 736.448 963.833 737.776 962.985 738.752C962.137 739.712 960.897 740.192 959.265 740.192C957.697 740.192 956.473 739.712 955.593 738.752C954.713 737.792 954.273 736.464 954.273 734.768V733.184C954.273 731.488 954.713 730.168 955.593 729.224C956.473 728.28 957.697 727.808 959.265 727.808C960.849 727.808 962.073 728.28 962.937 729.224C963.817 730.152 964.257 731.472 964.257 733.184ZM959.265 738.464C960.225 738.464 960.977 738.12 961.521 737.432C962.065 736.744 962.337 735.856 962.337 734.768V733.184C962.337 732.032 962.065 731.136 961.521 730.496C960.993 729.856 960.241 729.536 959.265 729.536C958.289 729.536 957.529 729.864 956.985 730.52C956.457 731.16 956.193 732.048 956.193 733.184V734.768C956.193 735.904 956.449 736.808 956.961 737.48C957.489 738.136 958.257 738.464 959.265 738.464ZM974.915 729.44L973.283 730.592C972.803 729.92 972.131 729.584 971.267 729.584C970.499 729.584 969.875 729.856 969.395 730.4C968.931 730.928 968.699 731.624 968.699 732.488V740H966.779V728H968.699V729.176C969.259 728.264 970.187 727.808 971.483 727.808C973.003 727.808 974.147 728.352 974.915 729.44ZM978.144 732.896L982.992 728H985.488L980.304 733.304L986.232 740H983.736L978.888 734.768L978.144 735.56V740H976.224V723.44H978.144V732.896ZM535.96 767.496C535.96 765.208 537.456 764.064 540.448 764.064H543.304V762.672C543.304 761.872 543.104 761.328 542.704 761.04C542.32 760.736 541.632 760.584 540.64 760.584C539.808 760.584 539.2 760.664 538.816 760.824C538.432 760.984 538.08 761.312 537.76 761.808L536.32 760.8C536.752 760.08 537.296 759.568 537.952 759.264C538.624 758.96 539.528 758.808 540.664 758.808C542.264 758.808 543.424 759.104 544.144 759.696C544.864 760.288 545.224 761.28 545.224 762.672V771H543.304V769.824C542.984 770.352 542.6 770.712 542.152 770.904C541.72 771.096 541.088 771.192 540.256 771.192C538.88 771.192 537.816 770.872 537.064 770.232C536.328 769.576 535.96 768.664 535.96 767.496ZM543.304 766.392V765.696H540.448C539.552 765.696 538.896 765.848 538.48 766.152C538.08 766.44 537.88 766.904 537.88 767.544C537.88 768.792 538.672 769.416 540.256 769.416C541.264 769.416 542.024 769.224 542.536 768.84C543.048 768.424 543.304 767.608 543.304 766.392ZM555.933 759H557.853V771H555.933V769.824C555.597 770.32 555.189 770.672 554.709 770.88C554.229 771.088 553.565 771.192 552.717 771.192C551.325 771.192 550.245 770.808 549.477 770.04C548.725 769.256 548.349 768.072 548.349 766.488V759H550.269V766.464C550.269 768.432 551.181 769.416 553.005 769.416C553.869 769.416 554.573 769.144 555.117 768.6C555.661 768.056 555.933 767.352 555.933 766.488V759ZM561.462 760.728H559.926V759H561.462V756.36H563.382V759H566.142V760.728H563.382V766.824C563.382 767.752 563.494 768.376 563.718 768.696C563.942 769.016 564.43 769.176 565.182 769.176H566.142V771H565.11C563.75 771 562.798 770.72 562.254 770.16C561.726 769.584 561.462 768.632 561.462 767.304V760.728ZM577.936 764.184V765.768C577.936 767.448 577.512 768.776 576.664 769.752C575.816 770.712 574.576 771.192 572.944 771.192C571.376 771.192 570.152 770.712 569.272 769.752C568.392 768.792 567.952 767.464 567.952 765.768V764.184C567.952 762.488 568.392 761.168 569.272 760.224C570.152 759.28 571.376 758.808 572.944 758.808C574.528 758.808 575.752 759.28 576.616 760.224C577.496 761.152 577.936 762.472 577.936 764.184ZM572.944 769.464C573.904 769.464 574.656 769.12 575.2 768.432C575.744 767.744 576.016 766.856 576.016 765.768V764.184C576.016 763.032 575.744 762.136 575.2 761.496C574.672 760.856 573.92 760.536 572.944 760.536C571.968 760.536 571.208 760.864 570.664 761.52C570.136 762.16 569.872 763.048 569.872 764.184V765.768C569.872 766.904 570.128 767.808 570.64 768.48C571.168 769.136 571.936 769.464 572.944 769.464ZM582.378 771H580.458V759H582.378V760.176C582.714 759.68 583.122 759.328 583.602 759.12C584.082 758.912 584.746 758.808 585.594 758.808C586.986 758.808 588.058 759.2 588.81 759.984C589.578 760.752 589.962 761.928 589.962 763.512V771H588.042V763.536C588.042 761.568 587.13 760.584 585.306 760.584C584.442 760.584 583.738 760.856 583.194 761.4C582.65 761.944 582.378 762.648 582.378 763.512V771ZM602.475 764.184V765.768C602.475 767.448 602.051 768.776 601.203 769.752C600.355 770.712 599.115 771.192 597.483 771.192C595.915 771.192 594.691 770.712 593.811 769.752C592.931 768.792 592.491 767.464 592.491 765.768V764.184C592.491 762.488 592.931 761.168 593.811 760.224C594.691 759.28 595.915 758.808 597.483 758.808C599.067 758.808 600.291 759.28 601.155 760.224C602.035 761.152 602.475 762.472 602.475 764.184ZM597.483 769.464C598.443 769.464 599.195 769.12 599.739 768.432C600.283 767.744 600.555 766.856 600.555 765.768V764.184C600.555 763.032 600.283 762.136 599.739 761.496C599.211 760.856 598.459 760.536 597.483 760.536C596.507 760.536 595.747 760.864 595.203 761.52C594.675 762.16 594.411 763.048 594.411 764.184V765.768C594.411 766.904 594.667 767.808 595.179 768.48C595.707 769.136 596.475 769.464 597.483 769.464ZM606.918 771H604.998V759H606.918V760.176C607.51 759.264 608.502 758.808 609.894 758.808C611.542 758.808 612.71 759.44 613.398 760.704C614.214 759.44 615.414 758.808 616.997 758.808C618.31 758.808 619.326 759.216 620.046 760.032C620.766 760.832 621.126 761.992 621.126 763.512V771H619.206V763.536C619.206 761.568 618.374 760.584 616.71 760.584C615.942 760.584 615.302 760.864 614.79 761.424C614.278 761.968 614.022 762.664 614.022 763.512V771H612.102V763.536C612.102 761.568 611.27 760.584 609.605 760.584C608.838 760.584 608.198 760.864 607.686 761.424C607.174 761.984 606.918 762.68 606.918 763.512V771ZM633.624 764.184V765.768C633.624 767.448 633.2 768.776 632.352 769.752C631.504 770.712 630.264 771.192 628.632 771.192C627.064 771.192 625.84 770.712 624.96 769.752C624.08 768.792 623.64 767.464 623.64 765.768V764.184C623.64 762.488 624.08 761.168 624.96 760.224C625.84 759.28 627.064 758.808 628.632 758.808C630.216 758.808 631.44 759.28 632.304 760.224C633.184 761.152 633.624 762.472 633.624 764.184ZM628.632 769.464C629.592 769.464 630.344 769.12 630.888 768.432C631.432 767.744 631.704 766.856 631.704 765.768V764.184C631.704 763.032 631.432 762.136 630.888 761.496C630.36 760.856 629.608 760.536 628.632 760.536C627.656 760.536 626.896 760.864 626.352 761.52C625.824 762.16 625.56 763.048 625.56 764.184V765.768C625.56 766.904 625.816 767.808 626.328 768.48C626.856 769.136 627.624 769.464 628.632 769.464ZM643.73 759H645.65V771H643.73V769.824C643.394 770.32 642.986 770.672 642.506 770.88C642.026 771.088 641.362 771.192 640.514 771.192C639.122 771.192 638.042 770.808 637.274 770.04C636.522 769.256 636.146 768.072 636.146 766.488V759H638.066V766.464C638.066 768.432 638.978 769.416 640.802 769.416C641.666 769.416 642.37 769.144 642.914 768.6C643.458 768.056 643.73 767.352 643.73 766.488V759ZM656.963 760.8L655.523 761.808C655.187 761.36 654.803 761.048 654.371 760.872C653.939 760.68 653.331 760.584 652.547 760.584C651.827 760.584 651.259 760.728 650.843 761.016C650.427 761.288 650.219 761.68 650.219 762.192C650.219 763.328 651.147 763.96 653.003 764.088C654.235 764.184 655.227 764.456 655.979 764.904C656.875 765.4 657.323 766.32 657.323 767.664C657.323 768.784 656.939 769.656 656.171 770.28C655.403 770.888 654.283 771.192 652.811 771.192C650.683 771.192 649.139 770.528 648.179 769.2L649.595 768.192C649.931 768.624 650.339 768.936 650.819 769.128C651.315 769.32 651.987 769.416 652.835 769.416C653.635 769.416 654.259 769.272 654.707 768.984C655.171 768.68 655.403 768.256 655.403 767.712C655.403 767.072 655.179 766.616 654.731 766.344C654.283 766.056 653.475 765.872 652.307 765.792C649.635 765.6 648.299 764.408 648.299 762.216C648.299 761.176 648.675 760.352 649.427 759.744C650.179 759.12 651.235 758.808 652.595 758.808C654.659 758.808 656.115 759.472 656.963 760.8ZM659.958 767.304V754.44H661.878V766.824C661.878 767.496 661.966 768.056 662.142 768.504C662.398 768.984 662.99 769.224 663.918 769.224V771C662.462 771 661.438 770.712 660.846 770.136C660.254 769.56 659.958 768.616 659.958 767.304ZM669.76 771.288L669.808 771.12L665.104 759H667.168L670.744 768.312L673.888 759H675.928L671.704 771.384L671.224 772.704C670.872 773.6 670.496 774.216 670.096 774.552C669.328 775.224 668.2 775.56 666.712 775.56V773.688C667.576 773.688 668.208 773.536 668.608 773.232C669.04 772.944 669.424 772.296 669.76 771.288ZM693.108 764.184V765.768C693.108 767.448 692.684 768.776 691.836 769.752C690.988 770.712 689.748 771.192 688.116 771.192C686.548 771.192 685.324 770.712 684.444 769.752C683.564 768.792 683.124 767.464 683.124 765.768V764.184C683.124 762.488 683.564 761.168 684.444 760.224C685.324 759.28 686.548 758.808 688.116 758.808C689.7 758.808 690.924 759.28 691.788 760.224C692.668 761.152 693.108 762.472 693.108 764.184ZM688.116 769.464C689.076 769.464 689.828 769.12 690.372 768.432C690.916 767.744 691.188 766.856 691.188 765.768V764.184C691.188 763.032 690.916 762.136 690.372 761.496C689.844 760.856 689.092 760.536 688.116 760.536C687.14 760.536 686.38 760.864 685.836 761.52C685.308 762.16 685.044 763.048 685.044 764.184V765.768C685.044 766.904 685.3 767.808 685.812 768.48C686.34 769.136 687.108 769.464 688.116 769.464ZM697.55 771H695.63V759H697.55V760.176C697.886 759.68 698.294 759.328 698.774 759.12C699.254 758.912 699.918 758.808 700.766 758.808C702.158 758.808 703.23 759.2 703.982 759.984C704.75 760.752 705.134 761.928 705.134 763.512V771H703.214V763.536C703.214 761.568 702.302 760.584 700.478 760.584C699.614 760.584 698.91 760.856 698.366 761.4C697.822 761.944 697.55 762.648 697.55 763.512V771ZM714.743 760.728H713.207V759H714.743V756.36H716.663V759H719.423V760.728H716.663V766.824C716.663 767.752 716.775 768.376 716.999 768.696C717.223 769.016 717.711 769.176 718.463 769.176H719.423V771H718.391C717.031 771 716.079 770.72 715.535 770.16C715.007 769.584 714.743 768.632 714.743 767.304V760.728ZM723.753 771H721.833V754.44H723.753V760.176C724.089 759.68 724.497 759.328 724.977 759.12C725.457 758.912 726.121 758.808 726.969 758.808C728.361 758.808 729.433 759.2 730.185 759.984C730.953 760.752 731.337 761.928 731.337 763.512V771H729.417V763.536C729.417 761.568 728.505 760.584 726.681 760.584C725.817 760.584 725.113 760.856 724.569 761.4C724.025 761.944 723.753 762.648 723.753 763.512V771ZM733.866 767.496C733.866 765.208 735.362 764.064 738.354 764.064H741.21V762.672C741.21 761.872 741.01 761.328 740.61 761.04C740.226 760.736 739.538 760.584 738.546 760.584C737.714 760.584 737.106 760.664 736.722 760.824C736.338 760.984 735.986 761.312 735.666 761.808L734.226 760.8C734.658 760.08 735.202 759.568 735.858 759.264C736.53 758.96 737.434 758.808 738.57 758.808C740.17 758.808 741.33 759.104 742.05 759.696C742.77 760.288 743.13 761.28 743.13 762.672V771H741.21V769.824C740.89 770.352 740.506 770.712 740.058 770.904C739.626 771.096 738.994 771.192 738.162 771.192C736.786 771.192 735.722 770.872 734.97 770.232C734.234 769.576 733.866 768.664 733.866 767.496ZM741.21 766.392V765.696H738.354C737.458 765.696 736.802 765.848 736.386 766.152C735.986 766.44 735.786 766.904 735.786 767.544C735.786 768.792 736.578 769.416 738.162 769.416C739.17 769.416 739.93 769.224 740.442 768.84C740.954 768.424 741.21 767.608 741.21 766.392ZM746.735 760.728H745.199V759H746.735V756.36H748.655V759H751.415V760.728H748.655V766.824C748.655 767.752 748.767 768.376 748.991 768.696C749.215 769.016 749.703 769.176 750.455 769.176H751.415V771H750.383C749.023 771 748.071 770.72 747.527 770.16C746.999 769.584 746.735 768.632 746.735 767.304V760.728ZM760.306 760.728H758.77V759H760.306V756.36H762.226V759H764.986V760.728H762.226V766.824C762.226 767.752 762.338 768.376 762.562 768.696C762.786 769.016 763.274 769.176 764.026 769.176H764.986V771H763.954C762.594 771 761.642 770.72 761.098 770.16C760.57 769.584 760.306 768.632 760.306 767.304V760.728ZM766.796 767.496C766.796 765.208 768.292 764.064 771.284 764.064H774.14V762.672C774.14 761.872 773.94 761.328 773.54 761.04C773.156 760.736 772.468 760.584 771.476 760.584C770.644 760.584 770.036 760.664 769.652 760.824C769.268 760.984 768.916 761.312 768.596 761.808L767.156 760.8C767.588 760.08 768.132 759.568 768.788 759.264C769.46 758.96 770.364 758.808 771.5 758.808C773.1 758.808 774.26 759.104 774.98 759.696C775.7 760.288 776.06 761.28 776.06 762.672V771H774.14V769.824C773.82 770.352 773.436 770.712 772.988 770.904C772.556 771.096 771.924 771.192 771.092 771.192C769.716 771.192 768.652 770.872 767.9 770.232C767.164 769.576 766.796 768.664 766.796 767.496ZM774.14 766.392V765.696H771.284C770.388 765.696 769.732 765.848 769.316 766.152C768.916 766.44 768.716 766.904 768.716 767.544C768.716 768.792 769.508 769.416 771.092 769.416C772.1 769.416 772.86 769.224 773.372 768.84C773.884 768.424 774.14 767.608 774.14 766.392ZM787.369 760.8L785.929 761.808C785.593 761.36 785.209 761.048 784.777 760.872C784.345 760.68 783.737 760.584 782.953 760.584C782.233 760.584 781.665 760.728 781.249 761.016C780.833 761.288 780.625 761.68 780.625 762.192C780.625 763.328 781.553 763.96 783.409 764.088C784.641 764.184 785.633 764.456 786.385 764.904C787.281 765.4 787.729 766.32 787.729 767.664C787.729 768.784 787.345 769.656 786.577 770.28C785.809 770.888 784.689 771.192 783.217 771.192C781.089 771.192 779.545 770.528 778.585 769.2L780.001 768.192C780.337 768.624 780.745 768.936 781.225 769.128C781.721 769.32 782.393 769.416 783.241 769.416C784.041 769.416 784.665 769.272 785.113 768.984C785.577 768.68 785.809 768.256 785.809 767.712C785.809 767.072 785.585 766.616 785.137 766.344C784.689 766.056 783.881 765.872 782.713 765.792C780.041 765.6 778.705 764.408 778.705 762.216C778.705 761.176 779.081 760.352 779.833 759.744C780.585 759.12 781.641 758.808 783.001 758.808C785.065 758.808 786.521 759.472 787.369 760.8ZM792.285 763.896L797.133 759H799.629L794.445 764.304L800.373 771H797.877L793.029 765.768L792.285 766.56V771H790.365V754.44H792.285V763.896ZM801.94 768.216H804.724V771H801.94V768.216Z" fill="#010101"/>
</svg>
