<svg width="1920" height="1080" viewBox="0 0 1920 1080" fill="none" xmlns="http://www.w3.org/2000/svg">
<rect width="1920" height="1080" fill="white"/>
<line x1="1856" y1="448" x2="1856" y2="88" stroke="#EBEBEB" stroke-width="6"/>
<path d="M1812 418.984L1812 423.136C1812 425.776 1813.39 427.144 1815.98 427.144L1817.42 427.144C1819.2 427.144 1820.45 426.592 1820.93 425.176L1820.98 425.176C1821.46 426.352 1822.54 426.88 1824.26 426.88L1824.94 426.88C1827.53 426.88 1828.8 425.704 1828.8 422.968L1828.8 418.984L1812 418.984ZM1821.96 421.624L1826.4 421.624L1826.4 422.896C1826.4 423.832 1825.87 424.24 1824.67 424.24L1823.74 424.24C1822.39 424.24 1821.96 423.64 1821.96 422.656L1821.96 421.624ZM1814.4 421.624L1819.56 421.624L1819.56 422.8C1819.56 424 1819.08 424.504 1817.52 424.504L1816.06 424.504C1814.81 424.504 1814.4 424.024 1814.4 423.136L1814.4 421.624ZM1812 429.407L1812 436.607L1814.4 436.607L1814.4 432.047L1819.56 432.047L1819.56 435.671L1821.96 435.671L1821.96 432.047L1826.4 432.047L1826.4 436.607L1828.8 436.607L1828.8 429.407L1812 429.407ZM1812 438.846L1812 441.198L1824.26 441.198L1824.26 441.246L1812 444.414L1812 447.126L1828.8 447.126L1828.8 444.774L1818.74 444.774L1818.74 444.726L1828.8 442.158L1828.8 438.846L1812 438.846ZM1812 449.808L1812 457.008L1814.4 457.008L1814.4 452.448L1819.56 452.448L1819.56 456.072L1821.96 456.072L1821.96 452.448L1826.4 452.448L1826.4 457.008L1828.8 457.008L1828.8 449.808L1812 449.808ZM1812 459.247L1812 461.887L1819.32 461.887L1819.32 465.295L1821.72 465.295L1821.72 461.887L1826.4 461.887L1826.4 466.231L1828.8 466.231L1828.8 459.247L1812 459.247ZM1812 468.217L1812 470.857L1828.8 470.857L1828.8 468.217L1812 468.217ZM1812 475.618L1812 478.258L1826.4 478.258L1826.4 481.018L1828.8 481.018L1828.8 472.858L1826.4 472.858L1826.4 475.618L1812 475.618ZM1811.76 486.448C1811.76 489.04 1813.3 490.432 1816.03 490.432C1818.12 490.432 1819.46 489.736 1821.41 487.528C1822.92 485.8 1823.81 485.248 1825.03 485.248C1826.18 485.248 1826.64 485.728 1826.64 486.568C1826.64 487.408 1826.18 487.888 1824.98 487.888L1824.12 487.888L1824.12 490.384L1824.82 490.384C1827.5 490.384 1829.04 489.112 1829.04 486.544C1829.04 483.976 1827.5 482.608 1824.86 482.608C1822.94 482.608 1821.58 483.328 1819.63 485.536C1818.12 487.264 1817.23 487.792 1815.84 487.792C1814.59 487.792 1814.16 487.264 1814.16 486.424C1814.16 485.584 1814.59 485.056 1815.79 485.056L1816.94 485.056L1816.94 482.56L1815.98 482.56C1813.3 482.56 1811.76 483.856 1811.76 486.448Z" fill="#FFCE00"/>
<circle cx="1858" cy="88" r="16" transform="rotate(-180 1858 88)" fill="#E5E5E5"/>
<circle cx="1858" cy="208" r="16" transform="rotate(-180 1858 208)" fill="#EBEBEB"/>
<circle cx="1858" cy="328" r="16" transform="rotate(-180 1858 328)" fill="#EBEBEB"/>
<circle cx="1858" cy="448" r="16" transform="rotate(-180 1858 448)" fill="#FFCE00"/>
<path d="M71 1022.37L54.44 1022.37L54.44 1012.05L57.296 1012.05L57.296 1019.01L61.4 1019.01L61.4 1012.77L64.232 1012.77L64.232 1019.01L71 1019.01L71 1022.37ZM63.944 999.364L71 995.932L71 999.628L64.496 1002.6L64.496 1005.29L71 1005.29L71 1008.65L54.44 1008.65L54.44 1002.72C54.44 1000.76 54.88 999.236 55.76 998.164C56.624 997.076 57.872 996.532 59.504 996.532C61.68 996.532 63.16 997.476 63.944 999.364ZM57.296 1005.29L61.664 1005.29L61.664 1003.04C61.664 1001.93 61.504 1001.13 61.184 1000.64C60.864 1000.14 60.304 999.892 59.504 999.892C58.704 999.892 58.136 1000.15 57.8 1000.66C57.464 1001.16 57.296 1001.95 57.296 1003.04L57.296 1005.29ZM71 992.64L54.44 992.64L54.44 982.32L57.296 982.32L57.296 989.28L61.016 989.28L61.016 983.04L63.848 983.04L63.848 989.28L68.168 989.28L68.168 982.32L71 982.32L71 992.64ZM71 978.784L54.44 978.784L54.44 968.464L57.296 968.464L57.296 975.424L61.016 975.424L61.016 969.184L63.848 969.184L63.848 975.424L68.168 975.424L68.168 968.464L71 968.464L71 978.784ZM65.216 951.823L62.384 951.823L62.384 945.799L63.896 945.799C66.328 945.799 68.16 946.327 69.392 947.383C70.608 948.423 71.216 949.927 71.216 951.895C71.216 953.895 70.6 955.455 69.368 956.575C68.12 957.679 66.296 958.231 63.896 958.231L61.784 958.231C59.256 958.231 57.368 957.679 56.12 956.575C54.856 955.471 54.224 953.911 54.224 951.895C54.224 950.183 54.688 948.807 55.616 947.767C56.528 946.727 57.848 946.079 59.576 945.823L59.576 949.039C57.896 949.359 57.056 950.311 57.056 951.895C57.056 953.879 58.552 954.871 61.544 954.871L63.896 954.871C66.888 954.871 68.384 953.879 68.384 951.895C68.384 950.999 68.128 950.327 67.616 949.879C67.088 949.415 66.288 949.135 65.216 949.039L65.216 951.823ZM71 941.832L54.44 941.832L54.44 931.512L57.296 931.512L57.296 938.472L61.016 938.472L61.016 932.232L63.848 932.232L63.848 938.472L68.168 938.472L68.168 931.512L71 931.512L71 941.832ZM71 927.976L54.44 927.976L54.44 917.656L57.296 917.656L57.296 924.616L61.016 924.616L61.016 918.376L63.848 918.376L63.848 924.616L68.168 924.616L68.168 917.656L71 917.656L71 927.976ZM61.136 906.608L71 900.56L71 904.568L64.016 908.792L66.608 910.76L71 910.76L71 914.12L54.44 914.12L54.44 910.76L61.592 910.76L54.44 905.528L54.44 901.544L61.136 906.608ZM71 886.027L54.44 891.811L54.44 888.139L65.576 884.515L54.44 880.891L54.44 877.219L71 882.979L71 886.027ZM67.856 872.483L71 873.491L71 877.091L54.44 871.331L54.44 868.115L71 862.355L71 865.931L67.856 866.939L67.856 872.483ZM65.024 867.851L59.192 869.723L65.024 871.595L65.024 867.851ZM64.832 850.321L54.44 850.321L54.44 847.129L71 847.129L71 849.937L60.752 856.393L71 856.393L71 859.585L54.44 859.585L54.44 856.801L64.832 850.321ZM59.576 830.731L59.576 833.947C57.896 834.283 57.056 835.235 57.056 836.803C57.056 838.787 58.552 839.779 61.544 839.779L63.896 839.779C66.888 839.779 68.384 838.787 68.384 836.803C68.384 835.987 68.184 835.355 67.784 834.907C67.384 834.459 66.744 834.139 65.864 833.947L65.864 830.755C69.432 831.283 71.216 833.299 71.216 836.803C71.216 838.803 70.6 840.363 69.368 841.483C68.12 842.587 66.296 843.139 63.896 843.139L61.544 843.139C59.128 843.139 57.304 842.587 56.072 841.483C54.84 840.363 54.224 838.803 54.224 836.803C54.224 835.107 54.68 833.739 55.592 832.699C56.488 831.659 57.816 831.003 59.576 830.731ZM61.544 815.157L63.896 815.157C66.296 815.157 68.12 815.717 69.368 816.837C70.6 817.957 71.216 819.517 71.216 821.517C71.216 823.517 70.6 825.077 69.368 826.197C68.12 827.301 66.296 827.853 63.896 827.853L61.544 827.853C59.128 827.853 57.304 827.301 56.072 826.197C54.84 825.077 54.224 823.517 54.224 821.517C54.224 819.501 54.84 817.941 56.072 816.837C57.304 815.717 59.128 815.157 61.544 815.157ZM61.544 824.493L63.896 824.493C66.888 824.493 68.384 823.501 68.384 821.517C68.384 819.517 66.888 818.517 63.896 818.517L61.544 818.517C58.552 818.517 57.056 819.517 57.056 821.517C57.056 823.501 58.552 824.493 61.544 824.493ZM64.304 801.836L54.44 801.836L54.44 798.476L64.28 798.476C66.568 798.476 68.296 799.044 69.464 800.18C70.632 801.3 71.216 802.852 71.216 804.836C71.216 806.82 70.64 808.38 69.488 809.516C68.32 810.636 66.592 811.196 64.304 811.196L54.44 811.196L54.44 807.836L64.304 807.836C65.712 807.836 66.744 807.596 67.4 807.116C68.056 806.636 68.384 805.876 68.384 804.836C68.384 803.796 68.056 803.036 67.4 802.556C66.744 802.076 65.712 801.836 64.304 801.836ZM71 789.788L54.44 795.572L54.44 791.9L65.576 788.276L54.44 784.652L54.44 780.98L71 786.74L71 789.788ZM71 778.07L54.44 778.07L54.44 767.75L57.296 767.75L57.296 774.71L61.016 774.71L61.016 768.47L63.848 768.47L63.848 774.71L68.168 774.71L68.168 767.75L71 767.75L71 778.07ZM63.944 754.925L71 751.493L71 755.189L64.496 758.165L64.496 760.853L71 760.853L71 764.213L54.44 764.213L54.44 758.285C54.44 756.317 54.88 754.797 55.76 753.725C56.624 752.637 57.872 752.093 59.504 752.093C61.68 752.093 63.16 753.037 63.944 754.925ZM57.296 760.853L61.664 760.853L61.664 758.597C61.664 757.493 61.504 756.693 61.184 756.197C60.864 755.701 60.304 755.453 59.504 755.453C58.704 755.453 58.136 755.709 57.8 756.221C57.464 756.717 57.296 757.509 57.296 758.597L57.296 760.853Z" fill="#E9BC00"/>
<path d="M486.952 464H499.408C507.328 464 511.432 459.824 511.432 452.048V447.728C511.432 442.4 509.776 438.656 505.528 437.216V437.072C509.056 435.632 510.64 432.392 510.64 427.208V425.192C510.64 417.416 507.112 413.6 498.904 413.6H486.952V464ZM494.872 434.12V420.8H498.688C501.496 420.8 502.72 422.384 502.72 425.984V428.792C502.72 432.824 500.92 434.12 497.968 434.12H494.872ZM494.872 456.8V441.32H498.4C502 441.32 503.512 442.76 503.512 447.44V451.832C503.512 455.576 502.072 456.8 499.408 456.8H494.872ZM518.221 464H539.821V456.8H526.141V441.32H537.013V434.12H526.141V420.8H539.821V413.6H518.221V464ZM546.538 464H553.594V427.208H553.738L563.242 464H571.378V413.6H564.322V443.768H564.178L556.474 413.6H546.538V464ZM579.424 464H601.024V456.8H587.344V441.32H598.216V434.12H587.344V420.8H601.024V413.6H579.424V464ZM607.74 464H615.66V442.04H625.884V434.84H615.66V420.8H628.692V413.6H607.74V464ZM634.65 464H642.57V413.6H634.65V464ZM656.854 464H664.774V420.8H673.054V413.6H648.574V420.8H656.854V464ZM689.345 464.72C697.121 464.72 701.297 460.112 701.297 451.904C701.297 445.64 699.209 441.608 692.585 435.776C687.401 431.24 685.745 428.576 685.745 424.904C685.745 421.448 687.185 420.08 689.705 420.08C692.225 420.08 693.665 421.448 693.665 425.048V427.64H701.153V425.552C701.153 417.488 697.337 412.88 689.633 412.88C681.929 412.88 677.825 417.488 677.825 425.408C677.825 431.168 679.985 435.272 686.609 441.104C691.793 445.64 693.377 448.304 693.377 452.48C693.377 456.224 691.793 457.52 689.273 457.52C686.753 457.52 685.169 456.224 685.169 452.624V449.168H677.681V452.048C677.681 460.112 681.569 464.72 689.345 464.72Z" fill="#0037FE"/>
<path d="M854.632 431V414.44H864.952V417.296H857.992V421.016H864.232V423.848H857.992V428.168H864.952V431H854.632ZM874.32 425.36L871.176 431H867.528L872.184 422.456L868.032 414.44H871.68L874.32 419.72L876.984 414.44H880.608L876.432 422.456L881.112 431H877.488L874.32 425.36ZM882.867 417.296V414.44H895.347V417.296H890.787V431H887.427V417.296H882.867ZM898.734 431V414.44H909.054V417.296H902.094V421.016H908.334V423.848H902.094V428.168H909.054V431H898.734ZM922.214 424.832V414.44H925.406V431H922.598L916.142 420.752V431H912.95V414.44H915.734L922.214 424.832ZM936.14 431H930.26V414.44H936.14C940.38 414.44 942.5 416.84 942.5 421.64V423.8C942.5 428.6 940.38 431 936.14 431ZM933.62 428.168H936.14C937.212 428.168 937.98 427.824 938.444 427.136C938.908 426.432 939.14 425.32 939.14 423.8V421.64C939.14 420.136 938.908 419.04 938.444 418.352C937.98 417.648 937.212 417.296 936.14 417.296H933.62V428.168ZM946.82 431V414.44H957.14V417.296H950.18V421.016H956.42V423.848H950.18V428.168H957.14V431H946.82ZM966.916 431H961.036V414.44H966.916C971.156 414.44 973.276 416.84 973.276 421.64V423.8C973.276 428.6 971.156 431 966.916 431ZM964.396 428.168H966.916C967.988 428.168 968.756 427.824 969.22 427.136C969.684 426.432 969.916 425.32 969.916 423.8V421.64C969.916 420.136 969.684 419.04 969.22 418.352C968.756 417.648 967.988 417.296 966.916 417.296H964.396V428.168ZM996.292 416.936L993.772 418.736C993.388 418.144 992.948 417.72 992.452 417.464C991.956 417.192 991.308 417.056 990.508 417.056C989.756 417.056 989.18 417.216 988.78 417.536C988.38 417.856 988.18 418.304 988.18 418.88C988.18 419.488 988.428 419.976 988.924 420.344C989.42 420.696 990.26 421.016 991.444 421.304C993.22 421.768 994.5 422.376 995.284 423.128C996.068 423.864 996.46 424.952 996.46 426.392C996.46 427.864 995.964 429.04 994.972 429.92C993.98 430.784 992.572 431.216 990.748 431.216C987.868 431.216 985.74 430.312 984.364 428.504L986.932 426.728C987.412 427.32 987.924 427.744 988.468 428C989.028 428.256 989.716 428.384 990.532 428.384C992.244 428.384 993.1 427.768 993.1 426.536C993.1 425.944 992.852 425.464 992.356 425.096C991.876 424.728 990.996 424.376 989.716 424.04C988.036 423.608 986.796 422.976 985.996 422.144C985.212 421.312 984.82 420.224 984.82 418.88C984.82 417.456 985.3 416.328 986.26 415.496C987.236 414.648 988.644 414.224 990.484 414.224C993.172 414.224 995.108 415.128 996.292 416.936ZM1000.52 431V414.44H1010.84V417.296H1003.88V421.016H1010.12V423.848H1003.88V428.168H1010.84V431H1000.52ZM1024 424.832V414.44H1027.19V431H1024.39L1017.93 420.752V431H1014.74V414.44H1017.52L1024 424.832ZM1043.18 416.936L1040.66 418.736C1040.28 418.144 1039.84 417.72 1039.34 417.464C1038.85 417.192 1038.2 417.056 1037.4 417.056C1036.65 417.056 1036.07 417.216 1035.67 417.536C1035.27 417.856 1035.07 418.304 1035.07 418.88C1035.07 419.488 1035.32 419.976 1035.82 420.344C1036.31 420.696 1037.15 421.016 1038.34 421.304C1040.11 421.768 1041.39 422.376 1042.18 423.128C1042.96 423.864 1043.35 424.952 1043.35 426.392C1043.35 427.864 1042.86 429.04 1041.86 429.92C1040.87 430.784 1039.46 431.216 1037.64 431.216C1034.76 431.216 1032.63 430.312 1031.26 428.504L1033.82 426.728C1034.3 427.32 1034.82 427.744 1035.36 428C1035.92 428.256 1036.61 428.384 1037.42 428.384C1039.14 428.384 1039.99 427.768 1039.99 426.536C1039.99 425.944 1039.74 425.464 1039.25 425.096C1038.77 424.728 1037.89 424.376 1036.61 424.04C1034.93 423.608 1033.69 422.976 1032.89 422.144C1032.1 421.312 1031.71 420.224 1031.71 418.88C1031.71 417.456 1032.19 416.328 1033.15 415.496C1034.13 414.648 1035.54 414.224 1037.38 414.224C1040.06 414.224 1042 415.128 1043.18 416.936ZM1047.41 431V414.44H1057.73V417.296H1050.77V421.016H1057.01V423.848H1050.77V428.168H1057.73V431H1047.41ZM1081.38 421.544V423.896C1081.38 426.296 1080.82 428.12 1079.7 429.368C1078.58 430.6 1077.02 431.216 1075.02 431.216C1073.02 431.216 1071.46 430.6 1070.34 429.368C1069.24 428.12 1068.68 426.296 1068.68 423.896V421.544C1068.68 419.128 1069.24 417.304 1070.34 416.072C1071.46 414.84 1073.02 414.224 1075.02 414.224C1077.04 414.224 1078.6 414.84 1079.7 416.072C1080.82 417.304 1081.38 419.128 1081.38 421.544ZM1072.04 421.544V423.896C1072.04 426.888 1073.04 428.384 1075.02 428.384C1077.02 428.384 1078.02 426.888 1078.02 423.896V421.544C1078.02 418.552 1077.02 417.056 1075.02 417.056C1073.04 417.056 1072.04 418.552 1072.04 421.544ZM1085.7 431V414.44H1096.02V417.296H1089.06V421.4H1095.3V424.232H1089.06V431H1085.7ZM1119.24 419.576H1116.03C1115.69 417.896 1114.74 417.056 1113.17 417.056C1111.19 417.056 1110.19 418.552 1110.19 421.544V423.896C1110.19 426.888 1111.19 428.384 1113.17 428.384C1113.99 428.384 1114.62 428.184 1115.07 427.784C1115.51 427.384 1115.83 426.744 1116.03 425.864H1119.22C1118.69 429.432 1116.67 431.216 1113.17 431.216C1111.17 431.216 1109.61 430.6 1108.49 429.368C1107.39 428.12 1106.83 426.296 1106.83 423.896V421.544C1106.83 419.128 1107.39 417.304 1108.49 416.072C1109.61 414.84 1111.17 414.224 1113.17 414.224C1114.87 414.224 1116.23 414.68 1117.27 415.592C1118.31 416.488 1118.97 417.816 1119.24 419.576ZM1135.17 421.544V423.896C1135.17 426.296 1134.61 428.12 1133.49 429.368C1132.37 430.6 1130.81 431.216 1128.81 431.216C1126.81 431.216 1125.25 430.6 1124.13 429.368C1123.03 428.12 1122.48 426.296 1122.48 423.896V421.544C1122.48 419.128 1123.03 417.304 1124.13 416.072C1125.25 414.84 1126.81 414.224 1128.81 414.224C1130.83 414.224 1132.39 414.84 1133.49 416.072C1134.61 417.304 1135.17 419.128 1135.17 421.544ZM1125.84 421.544V423.896C1125.84 426.888 1126.83 428.384 1128.81 428.384C1130.81 428.384 1131.81 426.888 1131.81 423.896V421.544C1131.81 418.552 1130.81 417.056 1128.81 417.056C1126.83 417.056 1125.84 418.552 1125.84 421.544ZM1139.5 414.44H1142.64L1147.3 423.464L1151.9 414.44H1155.1V431H1151.88V420.728L1148.28 428.024H1146.24L1142.69 420.8V431H1139.5V414.44ZM1159.92 414.44H1163.07L1167.72 423.464L1172.33 414.44H1175.52V431H1172.31V420.728L1168.71 428.024H1166.67L1163.12 420.8V431H1159.92V414.44ZM1189.71 424.304V414.44H1193.07V424.28C1193.07 426.568 1192.5 428.296 1191.37 429.464C1190.25 430.632 1188.69 431.216 1186.71 431.216C1184.73 431.216 1183.17 430.64 1182.03 429.488C1180.91 428.32 1180.35 426.592 1180.35 424.304V414.44H1183.71V424.304C1183.71 425.712 1183.95 426.744 1184.43 427.4C1184.91 428.056 1185.67 428.384 1186.71 428.384C1187.75 428.384 1188.51 428.056 1188.99 427.4C1189.47 426.744 1189.71 425.712 1189.71 424.304ZM1207.16 424.832V414.44H1210.35V431H1207.54L1201.09 420.752V431H1197.89V414.44H1200.68L1207.16 424.832ZM1215.44 414.44H1218.8V431H1215.44V414.44ZM1222.43 417.296V414.44H1234.91V417.296H1230.35V431H1226.99V417.296H1222.43ZM1241.97 424.232L1236.81 414.44H1240.69L1243.65 420.608L1246.62 414.44H1250.49L1245.33 424.232V431H1241.97V424.232Z" fill="black"/>
<path d="M854.632 522V505.44H860.176C864.208 505.44 866.224 506.888 866.224 509.784C866.224 511.416 865.496 512.592 864.04 513.312C865.848 513.968 866.752 515.28 866.752 517.248C866.752 518.704 866.24 519.864 865.216 520.728C864.208 521.576 862.704 522 860.704 522H854.632ZM860.104 514.824H857.992V519.168H860.416C862.4 519.168 863.392 518.44 863.392 516.984C863.392 516.216 863.128 515.664 862.6 515.328C862.088 514.992 861.256 514.824 860.104 514.824ZM859.864 508.272H857.992V511.992H860.224C861.984 511.992 862.864 511.36 862.864 510.096C862.864 509.456 862.64 508.992 862.192 508.704C861.76 508.416 860.984 508.272 859.864 508.272ZM880.107 515.304V505.44H883.467V515.28C883.467 517.568 882.899 519.296 881.763 520.464C880.643 521.632 879.091 522.216 877.107 522.216C875.123 522.216 873.563 521.64 872.427 520.488C871.307 519.32 870.747 517.592 870.747 515.304V505.44H874.107V515.304C874.107 516.712 874.347 517.744 874.827 518.4C875.307 519.056 876.067 519.384 877.107 519.384C878.147 519.384 878.907 519.056 879.387 518.4C879.867 517.744 880.107 516.712 880.107 515.304ZM888.531 505.44H891.891V522H888.531V505.44ZM896.953 505.44H900.313V519.168H907.273V522H896.953V505.44ZM916.486 522H910.606V505.44H916.486C920.726 505.44 922.846 507.84 922.846 512.64V514.8C922.846 519.6 920.726 522 916.486 522ZM913.966 519.168H916.486C917.558 519.168 918.326 518.824 918.79 518.136C919.254 517.432 919.486 516.32 919.486 514.8V512.64C919.486 511.136 919.254 510.04 918.79 509.352C918.326 508.648 917.558 508.296 916.486 508.296H913.966V519.168ZM927.406 505.44H930.766V522H927.406V505.44ZM945.092 515.832V505.44H948.284V522H945.476L939.02 511.752V522H935.828V505.44H938.612L945.092 515.832ZM959.042 516.216V513.384H965.066V514.896C965.066 517.328 964.538 519.16 963.482 520.392C962.442 521.608 960.938 522.216 958.97 522.216C956.97 522.216 955.41 521.6 954.29 520.368C953.186 519.12 952.634 517.296 952.634 514.896V512.784C952.634 510.256 953.186 508.368 954.29 507.12C955.394 505.856 956.954 505.224 958.97 505.224C960.682 505.224 962.058 505.688 963.098 506.616C964.138 507.528 964.786 508.848 965.042 510.576H961.826C961.506 508.896 960.554 508.056 958.97 508.056C956.986 508.056 955.994 509.552 955.994 512.544V514.896C955.994 517.888 956.986 519.384 958.97 519.384C959.866 519.384 960.538 519.128 960.986 518.616C961.45 518.088 961.73 517.288 961.826 516.216H959.042ZM981.177 522L975.393 505.44H979.065L982.689 516.576L986.313 505.44H989.985L984.225 522H981.177ZM1005.05 512.544V514.896C1005.05 517.296 1004.49 519.12 1003.37 520.368C1002.25 521.6 1000.69 522.216 998.689 522.216C996.689 522.216 995.129 521.6 994.009 520.368C992.905 519.12 992.353 517.296 992.353 514.896V512.544C992.353 510.128 992.905 508.304 994.009 507.072C995.129 505.84 996.689 505.224 998.689 505.224C1000.71 505.224 1002.27 505.84 1003.37 507.072C1004.49 508.304 1005.05 510.128 1005.05 512.544ZM995.713 512.544V514.896C995.713 517.888 996.705 519.384 998.689 519.384C1000.69 519.384 1001.69 517.888 1001.69 514.896V512.544C1001.69 509.552 1000.69 508.056 998.689 508.056C996.705 508.056 995.713 509.552 995.713 512.544ZM1009.37 505.44H1012.73V519.168H1019.69V522H1009.37V505.44ZM1032.38 515.304V505.44H1035.74V515.28C1035.74 517.568 1035.18 519.296 1034.04 520.464C1032.92 521.632 1031.37 522.216 1029.38 522.216C1027.4 522.216 1025.84 521.64 1024.7 520.488C1023.58 519.32 1023.02 517.592 1023.02 515.304V505.44H1026.38V515.304C1026.38 516.712 1026.62 517.744 1027.1 518.4C1027.58 519.056 1028.34 519.384 1029.38 519.384C1030.42 519.384 1031.18 519.056 1031.66 518.4C1032.14 517.744 1032.38 516.712 1032.38 515.304ZM1049.83 515.832V505.44H1053.02V522H1050.22L1043.76 511.752V522H1040.57V505.44H1043.35L1049.83 515.832ZM1056.44 508.296V505.44H1068.92V508.296H1064.36V522H1061V508.296H1056.44ZM1072.31 522V505.44H1082.63V508.296H1075.67V512.016H1081.91V514.848H1075.67V519.168H1082.63V522H1072.31ZM1086.52 522V505.44H1096.84V508.296H1089.88V512.016H1096.12V514.848H1089.88V519.168H1096.84V522H1086.52ZM1110.03 514.944L1113.46 522H1109.76L1106.79 515.496H1104.1V522H1100.74V505.44H1106.67C1108.63 505.44 1110.15 505.88 1111.23 506.76C1112.31 507.624 1112.86 508.872 1112.86 510.504C1112.86 512.68 1111.91 514.16 1110.03 514.944ZM1104.1 508.296V512.664H1106.35C1107.46 512.664 1108.26 512.504 1108.75 512.184C1109.25 511.864 1109.5 511.304 1109.5 510.504C1109.5 509.704 1109.24 509.136 1108.73 508.8C1108.23 508.464 1107.44 508.296 1106.35 508.296H1104.1ZM1116.58 505.056H1119.8V509.016L1116.58 511.752V505.056ZM1135.78 507.936L1133.26 509.736C1132.88 509.144 1132.44 508.72 1131.94 508.464C1131.45 508.192 1130.8 508.056 1130 508.056C1129.25 508.056 1128.67 508.216 1128.27 508.536C1127.87 508.856 1127.67 509.304 1127.67 509.88C1127.67 510.488 1127.92 510.976 1128.41 511.344C1128.91 511.696 1129.75 512.016 1130.93 512.304C1132.71 512.768 1133.99 513.376 1134.77 514.128C1135.56 514.864 1135.95 515.952 1135.95 517.392C1135.95 518.864 1135.45 520.04 1134.46 520.92C1133.47 521.784 1132.06 522.216 1130.24 522.216C1127.36 522.216 1125.23 521.312 1123.85 519.504L1126.42 517.728C1126.9 518.32 1127.41 518.744 1127.96 519C1128.52 519.256 1129.21 519.384 1130.02 519.384C1131.73 519.384 1132.59 518.768 1132.59 517.536C1132.59 516.944 1132.34 516.464 1131.85 516.096C1131.37 515.728 1130.49 515.376 1129.21 515.04C1127.53 514.608 1126.29 513.976 1125.49 513.144C1124.7 512.312 1124.31 511.224 1124.31 509.88C1124.31 508.456 1124.79 507.328 1125.75 506.496C1126.73 505.648 1128.13 505.224 1129.97 505.224C1132.66 505.224 1134.6 506.128 1135.78 507.936ZM1158.71 507.936L1156.19 509.736C1155.8 509.144 1155.36 508.72 1154.87 508.464C1154.37 508.192 1153.72 508.056 1152.92 508.056C1152.17 508.056 1151.6 508.216 1151.2 508.536C1150.8 508.856 1150.6 509.304 1150.6 509.88C1150.6 510.488 1150.84 510.976 1151.34 511.344C1151.84 511.696 1152.68 512.016 1153.86 512.304C1155.64 512.768 1156.92 513.376 1157.7 514.128C1158.48 514.864 1158.88 515.952 1158.88 517.392C1158.88 518.864 1158.38 520.04 1157.39 520.92C1156.4 521.784 1154.99 522.216 1153.16 522.216C1150.28 522.216 1148.16 521.312 1146.78 519.504L1149.35 517.728C1149.83 518.32 1150.34 518.744 1150.88 519C1151.44 519.256 1152.13 519.384 1152.95 519.384C1154.66 519.384 1155.52 518.768 1155.52 517.536C1155.52 516.944 1155.27 516.464 1154.77 516.096C1154.29 515.728 1153.41 515.376 1152.13 515.04C1150.45 514.608 1149.21 513.976 1148.41 513.144C1147.63 512.312 1147.24 511.224 1147.24 509.88C1147.24 508.456 1147.72 507.328 1148.68 506.496C1149.65 505.648 1151.06 505.224 1152.9 505.224C1155.59 505.224 1157.52 506.128 1158.71 507.936ZM1170.45 512.136L1176.5 522H1172.49L1168.26 515.016L1166.3 517.608V522H1162.94V505.44H1166.3V512.592L1171.53 505.44H1175.51L1170.45 512.136ZM1180.21 505.44H1183.57V522H1180.21V505.44ZM1188.63 505.44H1191.99V519.168H1198.95V522H1188.63V505.44ZM1202.28 505.44H1205.64V519.168H1212.6V522H1202.28V505.44ZM1234.63 507.936L1232.11 509.736C1231.73 509.144 1231.29 508.72 1230.79 508.464C1230.29 508.192 1229.65 508.056 1228.85 508.056C1228.09 508.056 1227.52 508.216 1227.12 508.536C1226.72 508.856 1226.52 509.304 1226.52 509.88C1226.52 510.488 1226.77 510.976 1227.26 511.344C1227.76 511.696 1228.6 512.016 1229.78 512.304C1231.56 512.768 1232.84 513.376 1233.62 514.128C1234.41 514.864 1234.8 515.952 1234.8 517.392C1234.8 518.864 1234.3 520.04 1233.31 520.92C1232.32 521.784 1230.91 522.216 1229.09 522.216C1226.21 522.216 1224.08 521.312 1222.7 519.504L1225.27 517.728C1225.75 518.32 1226.26 518.744 1226.81 519C1227.37 519.256 1228.05 519.384 1228.87 519.384C1230.58 519.384 1231.44 518.768 1231.44 517.536C1231.44 516.944 1231.19 516.464 1230.69 516.096C1230.21 515.728 1229.33 515.376 1228.05 515.04C1226.37 514.608 1225.13 513.976 1224.33 513.144C1223.55 512.312 1223.16 511.224 1223.16 509.88C1223.16 508.456 1223.64 507.328 1224.6 506.496C1225.57 505.648 1226.98 505.224 1228.82 505.224C1231.51 505.224 1233.45 506.128 1234.63 507.936ZM1238.86 522V505.44H1249.18V508.296H1242.22V512.016H1248.46V514.848H1242.22V519.168H1249.18V522H1238.86ZM1251.64 508.296V505.44H1264.12V508.296H1259.56V522H1256.2V508.296H1251.64ZM1278.64 507.936L1276.12 509.736C1275.73 509.144 1275.29 508.72 1274.8 508.464C1274.3 508.192 1273.65 508.056 1272.85 508.056C1272.1 508.056 1271.53 508.216 1271.13 508.536C1270.73 508.856 1270.53 509.304 1270.53 509.88C1270.53 510.488 1270.77 510.976 1271.27 511.344C1271.77 511.696 1272.61 512.016 1273.79 512.304C1275.57 512.768 1276.85 513.376 1277.63 514.128C1278.41 514.864 1278.81 515.952 1278.81 517.392C1278.81 518.864 1278.31 520.04 1277.32 520.92C1276.33 521.784 1274.92 522.216 1273.09 522.216C1270.21 522.216 1268.09 521.312 1266.71 519.504L1269.28 517.728C1269.76 518.32 1270.27 518.744 1270.81 519C1271.37 519.256 1272.06 519.384 1272.88 519.384C1274.59 519.384 1275.45 518.768 1275.45 517.536C1275.45 516.944 1275.2 516.464 1274.7 516.096C1274.22 515.728 1273.34 515.376 1272.06 515.04C1270.38 514.608 1269.14 513.976 1268.34 513.144C1267.56 512.312 1267.17 511.224 1267.17 509.88C1267.17 508.456 1267.65 507.328 1268.61 506.496C1269.58 505.648 1270.99 505.224 1272.83 505.224C1275.52 505.224 1277.45 506.128 1278.64 507.936Z" fill="black"/>
<path d="M854.872 687.44H858.232V704H854.872V687.44ZM863.294 687.44H866.438L871.094 696.464L875.702 687.44H878.894V704H875.678V693.728L872.078 701.024H870.038L866.486 693.8V704H863.294V687.44ZM889.649 698.168H887.081V704H883.721V687.44H889.649C891.617 687.44 893.137 687.896 894.209 688.808C895.297 689.704 895.841 691.016 895.841 692.744C895.841 694.456 895.289 695.792 894.185 696.752C893.097 697.696 891.585 698.168 889.649 698.168ZM887.081 690.296V695.336H889.169C890.321 695.336 891.161 695.128 891.689 694.712C892.217 694.296 892.481 693.64 892.481 692.744C892.481 691.112 891.377 690.296 889.169 690.296H887.081ZM908.725 696.944L912.157 704H908.461L905.485 697.496H902.797V704H899.437V687.44H905.365C907.333 687.44 908.853 687.88 909.925 688.76C911.013 689.624 911.557 690.872 911.557 692.504C911.557 694.68 910.613 696.16 908.725 696.944ZM902.797 690.296V694.664H905.053C906.157 694.664 906.957 694.504 907.453 694.184C907.949 693.864 908.197 693.304 908.197 692.504C908.197 691.704 907.941 691.136 907.429 690.8C906.933 690.464 906.141 690.296 905.053 690.296H902.797ZM927.931 694.544V696.896C927.931 699.296 927.371 701.12 926.251 702.368C925.131 703.6 923.571 704.216 921.571 704.216C919.571 704.216 918.011 703.6 916.891 702.368C915.787 701.12 915.235 699.296 915.235 696.896V694.544C915.235 692.128 915.787 690.304 916.891 689.072C918.011 687.84 919.571 687.224 921.571 687.224C923.587 687.224 925.147 687.84 926.251 689.072C927.371 690.304 927.931 692.128 927.931 694.544ZM918.595 694.544V696.896C918.595 699.888 919.587 701.384 921.571 701.384C923.571 701.384 924.571 699.888 924.571 696.896V694.544C924.571 691.552 923.571 690.056 921.571 690.056C919.587 690.056 918.595 691.552 918.595 694.544ZM936.078 704L930.294 687.44H933.966L937.59 698.576L941.214 687.44H944.886L939.126 704H936.078ZM948.156 704V687.44H958.476V690.296H951.516V694.016H957.756V696.848H951.516V701.168H958.476V704H948.156ZM968.252 704H962.372V687.44H968.252C972.492 687.44 974.612 689.84 974.612 694.64V696.8C974.612 701.6 972.492 704 968.252 704ZM965.732 701.168H968.252C969.324 701.168 970.092 700.824 970.556 700.136C971.02 699.432 971.252 698.32 971.252 696.8V694.64C971.252 693.136 971.02 692.04 970.556 691.352C970.092 690.648 969.324 690.296 968.252 690.296H965.732V701.168ZM997.628 689.936L995.108 691.736C994.724 691.144 994.284 690.72 993.788 690.464C993.292 690.192 992.644 690.056 991.844 690.056C991.092 690.056 990.516 690.216 990.116 690.536C989.716 690.856 989.516 691.304 989.516 691.88C989.516 692.488 989.764 692.976 990.26 693.344C990.756 693.696 991.596 694.016 992.78 694.304C994.556 694.768 995.836 695.376 996.62 696.128C997.404 696.864 997.796 697.952 997.796 699.392C997.796 700.864 997.3 702.04 996.308 702.92C995.316 703.784 993.908 704.216 992.084 704.216C989.204 704.216 987.076 703.312 985.7 701.504L988.268 699.728C988.748 700.32 989.26 700.744 989.804 701C990.364 701.256 991.052 701.384 991.868 701.384C993.58 701.384 994.436 700.768 994.436 699.536C994.436 698.944 994.188 698.464 993.692 698.096C993.212 697.728 992.332 697.376 991.052 697.04C989.372 696.608 988.132 695.976 987.332 695.144C986.548 694.312 986.156 693.224 986.156 691.88C986.156 690.456 986.636 689.328 987.596 688.496C988.572 687.648 989.98 687.224 991.82 687.224C994.508 687.224 996.444 688.128 997.628 689.936ZM1013.76 692.576H1010.55C1010.21 690.896 1009.26 690.056 1007.69 690.056C1005.71 690.056 1004.71 691.552 1004.71 694.544V696.896C1004.71 699.888 1005.71 701.384 1007.69 701.384C1008.51 701.384 1009.14 701.184 1009.59 700.784C1010.03 700.384 1010.35 699.744 1010.55 698.864H1013.74C1013.21 702.432 1011.19 704.216 1007.69 704.216C1005.69 704.216 1004.13 703.6 1003.01 702.368C1001.91 701.12 1001.35 699.296 1001.35 696.896V694.544C1001.35 692.128 1001.91 690.304 1003.01 689.072C1004.13 687.84 1005.69 687.224 1007.69 687.224C1009.39 687.224 1010.75 687.68 1011.79 688.592C1012.83 689.488 1013.49 690.816 1013.76 692.576ZM1017.67 687.44H1021.03V694.016H1026.76V687.44H1030.12V704H1026.76V696.848H1021.03V704H1017.67V687.44ZM1034.98 704V687.44H1045.3V690.296H1038.34V694.016H1044.58V696.848H1038.34V701.168H1045.3V704H1034.98ZM1055.07 704H1049.19V687.44H1055.07C1059.31 687.44 1061.43 689.84 1061.43 694.64V696.8C1061.43 701.6 1059.31 704 1055.07 704ZM1052.55 701.168H1055.07C1056.15 701.168 1056.91 700.824 1057.38 700.136C1057.84 699.432 1058.07 698.32 1058.07 696.8V694.64C1058.07 693.136 1057.84 692.04 1057.38 691.352C1056.91 690.648 1056.15 690.296 1055.07 690.296H1052.55V701.168ZM1075.11 697.304V687.44H1078.47V697.28C1078.47 699.568 1077.91 701.296 1076.77 702.464C1075.65 703.632 1074.1 704.216 1072.11 704.216C1070.13 704.216 1068.57 703.64 1067.43 702.488C1066.31 701.32 1065.75 699.592 1065.75 697.304V687.44H1069.11V697.304C1069.11 698.712 1069.35 699.744 1069.83 700.4C1070.31 701.056 1071.07 701.384 1072.11 701.384C1073.15 701.384 1073.91 701.056 1074.39 700.4C1074.87 699.744 1075.11 698.712 1075.11 697.304ZM1083.3 687.44H1086.66V701.168H1093.62V704H1083.3V687.44ZM1097.19 687.44H1100.55V704H1097.19V687.44ZM1114.88 697.832V687.44H1118.07V704H1115.26L1108.8 693.752V704H1105.61V687.44H1108.4L1114.88 697.832ZM1128.83 698.216V695.384H1134.85V696.896C1134.85 699.328 1134.32 701.16 1133.27 702.392C1132.23 703.608 1130.72 704.216 1128.75 704.216C1126.75 704.216 1125.19 703.6 1124.07 702.368C1122.97 701.12 1122.42 699.296 1122.42 696.896V694.784C1122.42 692.256 1122.97 690.368 1124.07 689.12C1125.18 687.856 1126.74 687.224 1128.75 687.224C1130.47 687.224 1131.84 687.688 1132.88 688.616C1133.92 689.528 1134.57 690.848 1134.83 692.576H1131.61C1131.29 690.896 1130.34 690.056 1128.75 690.056C1126.77 690.056 1125.78 691.552 1125.78 694.544V696.896C1125.78 699.888 1126.77 701.384 1128.75 701.384C1129.65 701.384 1130.32 701.128 1130.77 700.616C1131.23 700.088 1131.51 699.288 1131.61 698.216H1128.83ZM1149.62 700.856L1148.61 704H1145.01L1150.77 687.44H1153.99L1159.75 704H1156.17L1155.16 700.856H1149.62ZM1154.25 698.024L1152.38 692.192L1150.51 698.024H1154.25ZM1172.14 697.832V687.44H1175.33V704H1172.52L1166.07 693.752V704H1162.88V687.44H1165.66L1172.14 697.832ZM1186.07 704H1180.19V687.44H1186.07C1190.31 687.44 1192.43 689.84 1192.43 694.64V696.8C1192.43 701.6 1190.31 704 1186.07 704ZM1183.55 701.168H1186.07C1187.14 701.168 1187.91 700.824 1188.37 700.136C1188.83 699.432 1189.07 698.32 1189.07 696.8V694.64C1189.07 693.136 1188.83 692.04 1188.37 691.352C1187.91 690.648 1187.14 690.296 1186.07 690.296H1183.55V701.168ZM1202.87 690.296V687.44H1215.35V690.296H1210.79V704H1207.43V690.296H1202.87ZM1220.72 700.856L1219.71 704H1216.11L1221.87 687.44H1225.09L1230.85 704H1227.27L1226.27 700.856H1220.72ZM1225.35 698.024L1223.48 692.192L1221.61 698.024H1225.35ZM1245.12 689.936L1242.6 691.736C1242.21 691.144 1241.77 690.72 1241.28 690.464C1240.78 690.192 1240.13 690.056 1239.33 690.056C1238.58 690.056 1238.01 690.216 1237.61 690.536C1237.21 690.856 1237.01 691.304 1237.01 691.88C1237.01 692.488 1237.25 692.976 1237.75 693.344C1238.25 693.696 1239.09 694.016 1240.27 694.304C1242.05 694.768 1243.33 695.376 1244.11 696.128C1244.89 696.864 1245.29 697.952 1245.29 699.392C1245.29 700.864 1244.79 702.04 1243.8 702.92C1242.81 703.784 1241.4 704.216 1239.57 704.216C1236.69 704.216 1234.57 703.312 1233.19 701.504L1235.76 699.728C1236.24 700.32 1236.75 700.744 1237.29 701C1237.85 701.256 1238.54 701.384 1239.36 701.384C1241.07 701.384 1241.93 700.768 1241.93 699.536C1241.93 698.944 1241.68 698.464 1241.18 698.096C1240.7 697.728 1239.82 697.376 1238.54 697.04C1236.86 696.608 1235.62 695.976 1234.82 695.144C1234.04 694.312 1233.65 693.224 1233.65 691.88C1233.65 690.456 1234.13 689.328 1235.09 688.496C1236.06 687.648 1237.47 687.224 1239.31 687.224C1242 687.224 1243.93 688.128 1245.12 689.936ZM1256.86 694.136L1262.91 704H1258.9L1254.67 697.016L1252.71 699.608V704H1249.35V687.44H1252.71V694.592L1257.94 687.44H1261.92L1256.86 694.136ZM1279.86 698.168H1277.29V704H1273.93V687.44H1279.86C1281.83 687.44 1283.35 687.896 1284.42 688.808C1285.51 689.704 1286.05 691.016 1286.05 692.744C1286.05 694.456 1285.5 695.792 1284.4 696.752C1283.31 697.696 1281.8 698.168 1279.86 698.168ZM1277.29 690.296V695.336H1279.38C1280.53 695.336 1281.37 695.128 1281.9 694.712C1282.43 694.296 1282.69 693.64 1282.69 692.744C1282.69 691.112 1281.59 690.296 1279.38 690.296H1277.29ZM1289.65 687.44H1293.01V701.168H1299.97V704H1289.65V687.44ZM1306.58 700.856L1305.57 704H1301.97L1307.73 687.44H1310.95L1316.71 704H1313.13L1312.13 700.856H1306.58ZM1311.21 698.024L1309.34 692.192L1307.47 698.024H1311.21ZM1329.11 697.832V687.44H1332.3V704H1329.49L1323.03 693.752V704H1319.84V687.44H1322.63L1329.11 697.832ZM1346.42 697.832V687.44H1349.61V704H1346.8L1340.34 693.752V704H1337.15V687.44H1339.94L1346.42 697.832ZM1354.7 687.44H1358.06V704H1354.7V687.44ZM1372.39 697.832V687.44H1375.58V704H1372.77L1366.31 693.752V704H1363.12V687.44H1365.91L1372.39 697.832ZM1386.34 698.216V695.384H1392.36V696.896C1392.36 699.328 1391.83 701.16 1390.78 702.392C1389.74 703.608 1388.23 704.216 1386.26 704.216C1384.26 704.216 1382.7 703.6 1381.58 702.368C1380.48 701.12 1379.93 699.296 1379.93 696.896V694.784C1379.93 692.256 1380.48 690.368 1381.58 689.12C1382.69 687.856 1384.25 687.224 1386.26 687.224C1387.98 687.224 1389.35 687.688 1390.39 688.616C1391.43 689.528 1392.08 690.848 1392.34 692.576H1389.12C1388.8 690.896 1387.85 690.056 1386.26 690.056C1384.28 690.056 1383.29 691.552 1383.29 694.544V696.896C1383.29 699.888 1384.28 701.384 1386.26 701.384C1387.16 701.384 1387.83 701.128 1388.28 700.616C1388.74 700.088 1389.02 699.288 1389.12 698.216H1386.34Z" fill="black"/>
<path d="M854.872 778.44H858.232V795H854.872V778.44ZM863.294 778.44H866.438L871.094 787.464L875.702 778.44H878.894V795H875.678V784.728L872.078 792.024H870.038L866.486 784.8V795H863.294V778.44ZM889.649 789.168H887.081V795H883.721V778.44H889.649C891.617 778.44 893.137 778.896 894.209 779.808C895.297 780.704 895.841 782.016 895.841 783.744C895.841 785.456 895.289 786.792 894.185 787.752C893.097 788.696 891.585 789.168 889.649 789.168ZM887.081 781.296V786.336H889.169C890.321 786.336 891.161 786.128 891.689 785.712C892.217 785.296 892.481 784.64 892.481 783.744C892.481 782.112 891.377 781.296 889.169 781.296H887.081ZM908.725 787.944L912.157 795H908.461L905.485 788.496H902.797V795H899.437V778.44H905.365C907.333 778.44 908.853 778.88 909.925 779.76C911.013 780.624 911.557 781.872 911.557 783.504C911.557 785.68 910.613 787.16 908.725 787.944ZM902.797 781.296V785.664H905.053C906.157 785.664 906.957 785.504 907.453 785.184C907.949 784.864 908.197 784.304 908.197 783.504C908.197 782.704 907.941 782.136 907.429 781.8C906.933 781.464 906.141 781.296 905.053 781.296H902.797ZM927.931 785.544V787.896C927.931 790.296 927.371 792.12 926.251 793.368C925.131 794.6 923.571 795.216 921.571 795.216C919.571 795.216 918.011 794.6 916.891 793.368C915.787 792.12 915.235 790.296 915.235 787.896V785.544C915.235 783.128 915.787 781.304 916.891 780.072C918.011 778.84 919.571 778.224 921.571 778.224C923.587 778.224 925.147 778.84 926.251 780.072C927.371 781.304 927.931 783.128 927.931 785.544ZM918.595 785.544V787.896C918.595 790.888 919.587 792.384 921.571 792.384C923.571 792.384 924.571 790.888 924.571 787.896V785.544C924.571 782.552 923.571 781.056 921.571 781.056C919.587 781.056 918.595 782.552 918.595 785.544ZM936.078 795L930.294 778.44H933.966L937.59 789.576L941.214 778.44H944.886L939.126 795H936.078ZM948.156 795V778.44H958.476V781.296H951.516V785.016H957.756V787.848H951.516V792.168H958.476V795H948.156ZM968.252 795H962.372V778.44H968.252C972.492 778.44 974.612 780.84 974.612 785.64V787.8C974.612 792.6 972.492 795 968.252 795ZM965.732 792.168H968.252C969.324 792.168 970.092 791.824 970.556 791.136C971.02 790.432 971.252 789.32 971.252 787.8V785.64C971.252 784.136 971.02 783.04 970.556 782.352C970.092 781.648 969.324 781.296 968.252 781.296H965.732V792.168ZM990.716 795L984.932 778.44H988.604L992.228 789.576L995.852 778.44H999.524L993.764 795H990.716ZM1014.59 785.544V787.896C1014.59 790.296 1014.03 792.12 1012.91 793.368C1011.79 794.6 1010.23 795.216 1008.23 795.216C1006.23 795.216 1004.67 794.6 1003.55 793.368C1002.44 792.12 1001.89 790.296 1001.89 787.896V785.544C1001.89 783.128 1002.44 781.304 1003.55 780.072C1004.67 778.84 1006.23 778.224 1008.23 778.224C1010.24 778.224 1011.8 778.84 1012.91 780.072C1014.03 781.304 1014.59 783.128 1014.59 785.544ZM1005.25 785.544V787.896C1005.25 790.888 1006.24 792.384 1008.23 792.384C1010.23 792.384 1011.23 790.888 1011.23 787.896V785.544C1011.23 782.552 1010.23 781.056 1008.23 781.056C1006.24 781.056 1005.25 782.552 1005.25 785.544ZM1018.91 778.44H1022.27V792.168H1029.23V795H1018.91V778.44ZM1041.92 788.304V778.44H1045.28V788.28C1045.28 790.568 1044.71 792.296 1043.58 793.464C1042.46 794.632 1040.91 795.216 1038.92 795.216C1036.94 795.216 1035.38 794.64 1034.24 793.488C1033.12 792.32 1032.56 790.592 1032.56 788.304V778.44H1035.92V788.304C1035.92 789.712 1036.16 790.744 1036.64 791.4C1037.12 792.056 1037.88 792.384 1038.92 792.384C1039.96 792.384 1040.72 792.056 1041.2 791.4C1041.68 790.744 1041.92 789.712 1041.92 788.304ZM1059.37 788.832V778.44H1062.56V795H1059.76L1053.3 784.752V795H1050.11V778.44H1052.89L1059.37 788.832ZM1065.98 781.296V778.44H1078.46V781.296H1073.9V795H1070.54V781.296H1065.98ZM1081.84 795V778.44H1092.16V781.296H1085.2V785.016H1091.44V787.848H1085.2V792.168H1092.16V795H1081.84ZM1096.06 795V778.44H1106.38V781.296H1099.42V785.016H1105.66V787.848H1099.42V792.168H1106.38V795H1096.06ZM1119.57 787.944L1123 795H1119.3L1116.33 788.496H1113.64V795H1110.28V778.44H1116.21C1118.17 778.44 1119.69 778.88 1120.77 779.76C1121.85 780.624 1122.4 781.872 1122.4 783.504C1122.4 785.68 1121.45 787.16 1119.57 787.944ZM1113.64 781.296V785.664H1115.89C1117 785.664 1117.8 785.504 1118.29 785.184C1118.79 784.864 1119.04 784.304 1119.04 783.504C1119.04 782.704 1118.78 782.136 1118.27 781.8C1117.77 781.464 1116.98 781.296 1115.89 781.296H1113.64ZM1143.5 787.944L1146.93 795H1143.23L1140.26 788.496H1137.57V795H1134.21V778.44H1140.14C1142.11 778.44 1143.63 778.88 1144.7 779.76C1145.79 780.624 1146.33 781.872 1146.33 783.504C1146.33 785.68 1145.39 787.16 1143.5 787.944ZM1137.57 781.296V785.664H1139.83C1140.93 785.664 1141.73 785.504 1142.23 785.184C1142.72 784.864 1142.97 784.304 1142.97 783.504C1142.97 782.704 1142.71 782.136 1142.2 781.8C1141.71 781.464 1140.91 781.296 1139.83 781.296H1137.57ZM1150.58 795V778.44H1160.9V781.296H1153.94V785.016H1160.18V787.848H1153.94V792.168H1160.9V795H1150.58ZM1163.36 781.296V778.44H1175.84V781.296H1171.28V795H1167.92V781.296H1163.36ZM1179.23 795V778.44H1189.55V781.296H1182.59V785.016H1188.83V787.848H1182.59V792.168H1189.55V795H1179.23ZM1202.71 788.832V778.44H1205.9V795H1203.09L1196.63 784.752V795H1193.44V778.44H1196.23L1202.71 788.832ZM1209.31 781.296V778.44H1221.79V781.296H1217.23V795H1213.87V781.296H1209.31ZM1225.42 778.44H1228.78V795H1225.42V778.44ZM1246.03 785.544V787.896C1246.03 790.296 1245.47 792.12 1244.35 793.368C1243.23 794.6 1241.67 795.216 1239.67 795.216C1237.67 795.216 1236.11 794.6 1234.99 793.368C1233.89 792.12 1233.34 790.296 1233.34 787.896V785.544C1233.34 783.128 1233.89 781.304 1234.99 780.072C1236.11 778.84 1237.67 778.224 1239.67 778.224C1241.69 778.224 1243.25 778.84 1244.35 780.072C1245.47 781.304 1246.03 783.128 1246.03 785.544ZM1236.7 785.544V787.896C1236.7 790.888 1237.69 792.384 1239.67 792.384C1241.67 792.384 1242.67 790.888 1242.67 787.896V785.544C1242.67 782.552 1241.67 781.056 1239.67 781.056C1237.69 781.056 1236.7 782.552 1236.7 785.544ZM1259.62 788.832V778.44H1262.81V795H1260L1253.55 784.752V795H1250.35V778.44H1253.14L1259.62 788.832ZM1273.78 781.296V778.44H1286.26V781.296H1281.7V795H1278.34V781.296H1273.78ZM1289.65 778.44H1293.01V785.016H1298.75V778.44H1302.11V795H1298.75V787.848H1293.01V795H1289.65V778.44ZM1316.25 787.944L1319.68 795H1315.98L1313.01 788.496H1310.32V795H1306.96V778.44H1312.89C1314.86 778.44 1316.38 778.88 1317.45 779.76C1318.54 780.624 1319.08 781.872 1319.08 783.504C1319.08 785.68 1318.14 787.16 1316.25 787.944ZM1310.32 781.296V785.664H1312.58C1313.68 785.664 1314.48 785.504 1314.98 785.184C1315.47 784.864 1315.72 784.304 1315.72 783.504C1315.72 782.704 1315.46 782.136 1314.95 781.8C1314.46 781.464 1313.66 781.296 1312.58 781.296H1310.32ZM1335.45 785.544V787.896C1335.45 790.296 1334.89 792.12 1333.77 793.368C1332.65 794.6 1331.09 795.216 1329.09 795.216C1327.09 795.216 1325.53 794.6 1324.41 793.368C1323.31 792.12 1322.76 790.296 1322.76 787.896V785.544C1322.76 783.128 1323.31 781.304 1324.41 780.072C1325.53 778.84 1327.09 778.224 1329.09 778.224C1331.11 778.224 1332.67 778.84 1333.77 780.072C1334.89 781.304 1335.45 783.128 1335.45 785.544ZM1326.12 785.544V787.896C1326.12 790.888 1327.11 792.384 1329.09 792.384C1331.09 792.384 1332.09 790.888 1332.09 787.896V785.544C1332.09 782.552 1331.09 781.056 1329.09 781.056C1327.11 781.056 1326.12 782.552 1326.12 785.544ZM1349.14 788.304V778.44H1352.5V788.28C1352.5 790.568 1351.93 792.296 1350.79 793.464C1349.67 794.632 1348.12 795.216 1346.14 795.216C1344.15 795.216 1342.59 794.64 1341.46 793.488C1340.34 792.32 1339.78 790.592 1339.78 788.304V778.44H1343.14V788.304C1343.14 789.712 1343.38 790.744 1343.86 791.4C1344.34 792.056 1345.1 792.384 1346.14 792.384C1347.18 792.384 1347.94 792.056 1348.42 791.4C1348.9 790.744 1349.14 789.712 1349.14 788.304ZM1363.22 789.216V786.384H1369.25V787.896C1369.25 790.328 1368.72 792.16 1367.66 793.392C1366.62 794.608 1365.12 795.216 1363.15 795.216C1361.15 795.216 1359.59 794.6 1358.47 793.368C1357.37 792.12 1356.82 790.296 1356.82 787.896V785.784C1356.82 783.256 1357.37 781.368 1358.47 780.12C1359.58 778.856 1361.14 778.224 1363.15 778.224C1364.86 778.224 1366.24 778.688 1367.28 779.616C1368.32 780.528 1368.97 781.848 1369.22 783.576H1366.01C1365.69 781.896 1364.74 781.056 1363.15 781.056C1361.17 781.056 1360.18 782.552 1360.18 785.544V787.896C1360.18 790.888 1361.17 792.384 1363.15 792.384C1364.05 792.384 1364.72 792.128 1365.17 791.616C1365.63 791.088 1365.91 790.288 1366.01 789.216H1363.22ZM1373.58 778.44H1376.94V785.016H1382.67V778.44H1386.03V795H1382.67V787.848H1376.94V795H1373.58V778.44ZM1398.45 795V778.44H1408.77V781.296H1401.81V785.016H1408.05V787.848H1401.81V792.168H1408.77V795H1398.45ZM1421.93 788.832V778.44H1425.12V795H1422.31L1415.85 784.752V795H1412.66V778.44H1415.45L1421.93 788.832ZM1435.88 789.216V786.384H1441.9V787.896C1441.9 790.328 1441.37 792.16 1440.32 793.392C1439.28 794.608 1437.77 795.216 1435.8 795.216C1433.8 795.216 1432.24 794.6 1431.12 793.368C1430.02 792.12 1429.47 790.296 1429.47 787.896V785.784C1429.47 783.256 1430.02 781.368 1431.12 780.12C1432.23 778.856 1433.79 778.224 1435.8 778.224C1437.52 778.224 1438.89 778.688 1439.93 779.616C1440.97 780.528 1441.62 781.848 1441.88 783.576H1438.66C1438.34 781.896 1437.39 781.056 1435.8 781.056C1433.82 781.056 1432.83 782.552 1432.83 785.544V787.896C1432.83 790.888 1433.82 792.384 1435.8 792.384C1436.7 792.384 1437.37 792.128 1437.82 791.616C1438.28 791.088 1438.56 790.288 1438.66 789.216H1435.88ZM1448.73 791.856L1447.72 795H1444.12L1449.88 778.44H1453.1L1458.86 795H1455.28L1454.28 791.856H1448.73ZM1453.36 789.024L1451.49 783.192L1449.62 789.024H1453.36ZM1467.43 789.216V786.384H1473.45V787.896C1473.45 790.328 1472.92 792.16 1471.87 793.392C1470.83 794.608 1469.32 795.216 1467.35 795.216C1465.35 795.216 1463.79 794.6 1462.67 793.368C1461.57 792.12 1461.02 790.296 1461.02 787.896V785.784C1461.02 783.256 1461.57 781.368 1462.67 780.12C1463.78 778.856 1465.34 778.224 1467.35 778.224C1469.07 778.224 1470.44 778.688 1471.48 779.616C1472.52 780.528 1473.17 781.848 1473.43 783.576H1470.21C1469.89 781.896 1468.94 781.056 1467.35 781.056C1465.37 781.056 1464.38 782.552 1464.38 785.544V787.896C1464.38 790.888 1465.37 792.384 1467.35 792.384C1468.25 792.384 1468.92 792.128 1469.37 791.616C1469.83 791.088 1470.11 790.288 1470.21 789.216H1467.43ZM1477.78 795V778.44H1488.1V781.296H1481.14V785.016H1487.38V787.848H1481.14V792.168H1488.1V795H1477.78ZM1491.99 778.44H1495.14L1499.79 787.464L1504.4 778.44H1507.59V795H1504.38V784.728L1500.78 792.024H1498.74L1495.19 784.8V795H1491.99V778.44ZM1512.42 795V778.44H1522.74V781.296H1515.78V785.016H1522.02V787.848H1515.78V792.168H1522.74V795H1512.42ZM1535.9 788.832V778.44H1539.09V795H1536.28L1529.83 784.752V795H1526.64V778.44H1529.42L1535.9 788.832ZM1542.51 781.296V778.44H1554.99V781.296H1550.43V795H1547.07V781.296H1542.51Z" fill="black"/>
<path d="M857.632 613V596.44H867.952V599.296H860.992V603.4H867.232V606.232H860.992V613H857.632ZM880.996 605.944L884.428 613H880.732L877.756 606.496H875.068V613H871.708V596.44H877.636C879.604 596.44 881.124 596.88 882.196 597.76C883.284 598.624 883.828 599.872 883.828 601.504C883.828 603.68 882.884 605.16 880.996 605.944ZM875.068 599.296V603.664H877.324C878.428 603.664 879.228 603.504 879.724 603.184C880.22 602.864 880.468 602.304 880.468 601.504C880.468 600.704 880.212 600.136 879.7 599.8C879.204 599.464 878.412 599.296 877.324 599.296H875.068ZM888.08 613V596.44H898.4V599.296H891.44V603.016H897.68V605.848H891.44V610.168H898.4V613H888.08ZM902.296 613V596.44H912.616V599.296H905.656V603.016H911.896V605.848H905.656V610.168H912.616V613H902.296ZM933.433 606.304V596.44H936.793V606.28C936.793 608.568 936.225 610.296 935.089 611.464C933.969 612.632 932.417 613.216 930.433 613.216C928.449 613.216 926.889 612.64 925.753 611.488C924.633 610.32 924.073 608.592 924.073 606.304V596.44H927.433V606.304C927.433 607.712 927.673 608.744 928.153 609.4C928.633 610.056 929.393 610.384 930.433 610.384C931.473 610.384 932.233 610.056 932.713 609.4C933.193 608.744 933.433 607.712 933.433 606.304ZM947.545 607.168H944.977V613H941.617V596.44H947.545C949.513 596.44 951.033 596.896 952.105 597.808C953.193 598.704 953.737 600.016 953.737 601.744C953.737 603.456 953.185 604.792 952.081 605.752C950.993 606.696 949.481 607.168 947.545 607.168ZM944.977 599.296V604.336H947.065C948.217 604.336 949.057 604.128 949.585 603.712C950.113 603.296 950.377 602.64 950.377 601.744C950.377 600.112 949.273 599.296 947.065 599.296H944.977ZM976.029 598.936L973.509 600.736C973.125 600.144 972.685 599.72 972.189 599.464C971.693 599.192 971.045 599.056 970.245 599.056C969.493 599.056 968.917 599.216 968.517 599.536C968.117 599.856 967.917 600.304 967.917 600.88C967.917 601.488 968.165 601.976 968.661 602.344C969.157 602.696 969.997 603.016 971.181 603.304C972.957 603.768 974.237 604.376 975.021 605.128C975.805 605.864 976.197 606.952 976.197 608.392C976.197 609.864 975.701 611.04 974.709 611.92C973.717 612.784 972.309 613.216 970.485 613.216C967.605 613.216 965.477 612.312 964.101 610.504L966.669 608.728C967.149 609.32 967.661 609.744 968.205 610C968.765 610.256 969.453 610.384 970.269 610.384C971.981 610.384 972.837 609.768 972.837 608.536C972.837 607.944 972.589 607.464 972.093 607.096C971.613 606.728 970.733 606.376 969.453 606.04C967.773 605.608 966.533 604.976 965.733 604.144C964.949 603.312 964.557 602.224 964.557 600.88C964.557 599.456 965.037 598.328 965.997 597.496C966.973 596.648 968.381 596.224 970.221 596.224C972.909 596.224 974.845 597.128 976.029 598.936ZM978.701 599.296V596.44H991.181V599.296H986.621V613H983.261V599.296H978.701ZM996.557 609.856L995.549 613H991.949L997.709 596.44H1000.93L1006.69 613H1003.11L1002.1 609.856H996.557ZM1001.19 607.024L999.317 601.192L997.445 607.024H1001.19ZM1009.82 613V596.44H1020.14V599.296H1013.18V603.4H1019.42V606.232H1013.18V613H1009.82ZM1023.89 613V596.44H1034.21V599.296H1027.25V603.4H1033.49V606.232H1027.25V613H1023.89ZM1044.09 599.296V596.44H1056.57V599.296H1052.01V613H1048.65V599.296H1044.09ZM1060.19 596.44H1063.55V613H1060.19V596.44ZM1068.62 596.44H1071.76L1076.42 605.464L1081.02 596.44H1084.22V613H1081V602.728L1077.4 610.024H1075.36L1071.81 602.8V613H1068.62V596.44ZM1089.04 613V596.44H1099.36V599.296H1092.4V603.016H1098.64V605.848H1092.4V610.168H1099.36V613H1089.04Z" fill="black"/>
</svg>
