<svg width="1920" height="1080" viewBox="0 0 1920 1080" fill="none" xmlns="http://www.w3.org/2000/svg">
<g clip-path="url(#clip0)">
<rect width="1920" height="1080" fill="#FFCE00"/>
<path d="M230.803 365.79H322.271V315.255H175.214V669H230.803V522.954H302.562V472.419H230.803V365.79ZM521.758 669C516.199 655.861 515.694 643.227 515.694 626.045V571.467C515.694 534.577 506.598 508.298 478.803 496.675V495.665C503.566 484.042 515.189 460.796 515.189 424.41V396.616C515.189 342.038 490.426 315.255 432.817 315.255H348.928V669H404.517V524.975H423.72C448.988 524.975 460.105 537.103 460.105 569.951V625.54C460.105 654.345 462.127 659.904 465.159 669H521.758ZM431.3 365.79C451.009 365.79 459.6 376.907 459.6 402.175V437.044C459.6 465.344 446.966 474.44 426.247 474.44H404.517V365.79H431.3ZM607.842 365.79H703.858V315.255H552.253V669H703.858V618.465H607.842V514.868H684.149V464.333H607.842V365.79ZM793.893 365.79H889.91V315.255H738.305V669H889.91V618.465H793.893V514.868H870.201V464.333H793.893V365.79ZM1086.21 522.448H1111.47V587.639C1111.47 612.906 1100.36 622.002 1082.67 622.002C1064.98 622.002 1053.86 612.906 1053.86 587.639V396.616C1053.86 371.348 1064.98 361.747 1082.67 361.747C1100.36 361.747 1111.47 371.348 1111.47 396.616V434.517H1164.03V400.153C1164.03 343.554 1135.73 311.212 1081.15 311.212C1026.58 311.212 998.276 343.554 998.276 400.153V584.101C998.276 640.7 1026.58 673.043 1081.15 673.043C1135.73 673.043 1164.03 640.7 1164.03 584.101V471.913H1086.21V522.448ZM1255.32 365.79H1351.34V315.255H1199.73V669H1351.34V618.465H1255.32V514.868H1331.63V464.333H1255.32V365.79ZM1441.37 365.79H1537.39V315.255H1385.79V669H1537.39V618.465H1441.37V514.868H1517.68V464.333H1441.37V365.79ZM1698.68 669H1755.78L1678.47 472.924L1755.78 315.255H1700.2L1628.44 468.376H1627.43V315.255H1571.84V669H1627.43V560.35L1644.61 528.007L1698.68 669Z" fill="#0037FF"/>
<path d="M230.803 342.79H322.271V292.255H175.214V646H230.803V499.954H302.562V449.419H230.803V342.79ZM521.758 646C516.199 632.861 515.694 620.227 515.694 603.045V548.467C515.694 511.577 506.598 485.298 478.803 473.675V472.665C503.566 461.042 515.189 437.796 515.189 401.41V373.616C515.189 319.038 490.426 292.255 432.817 292.255H348.928V646H404.517V501.975H423.72C448.988 501.975 460.105 514.103 460.105 546.951V602.54C460.105 631.345 462.127 636.904 465.159 646H521.758ZM431.3 342.79C451.009 342.79 459.6 353.907 459.6 379.175V414.044C459.6 442.344 446.966 451.44 426.247 451.44H404.517V342.79H431.3ZM607.842 342.79H703.858V292.255H552.253V646H703.858V595.465H607.842V491.868H684.149V441.333H607.842V342.79ZM793.893 342.79H889.91V292.255H738.305V646H889.91V595.465H793.893V491.868H870.201V441.333H793.893V342.79ZM1086.21 499.448H1111.47V564.639C1111.47 589.906 1100.36 599.002 1082.67 599.002C1064.98 599.002 1053.86 589.906 1053.86 564.639V373.616C1053.86 348.348 1064.98 338.747 1082.67 338.747C1100.36 338.747 1111.47 348.348 1111.47 373.616V411.517H1164.03V377.153C1164.03 320.554 1135.73 288.212 1081.15 288.212C1026.58 288.212 998.276 320.554 998.276 377.153V561.101C998.276 617.7 1026.58 650.043 1081.15 650.043C1135.73 650.043 1164.03 617.7 1164.03 561.101V448.913H1086.21V499.448ZM1255.32 342.79H1351.34V292.255H1199.73V646H1351.34V595.465H1255.32V491.868H1331.63V441.333H1255.32V342.79ZM1441.37 342.79H1537.39V292.255H1385.79V646H1537.39V595.465H1441.37V491.868H1517.68V441.333H1441.37V342.79ZM1698.68 646H1755.78L1678.47 449.924L1755.78 292.255H1700.2L1628.44 445.376H1627.43V292.255H1571.84V646H1627.43V537.35L1644.61 505.007L1698.68 646Z" fill="white"/>
<path d="M230.803 342.79H322.271V292.255H175.214V646H230.803V499.954H302.562V449.419H230.803V342.79ZM521.758 646C516.199 632.861 515.694 620.227 515.694 603.045V548.467C515.694 511.577 506.598 485.298 478.803 473.675V472.665C503.566 461.042 515.189 437.796 515.189 401.41V373.616C515.189 319.038 490.426 292.255 432.817 292.255H348.928V646H404.517V501.975H423.72C448.988 501.975 460.105 514.103 460.105 546.951V602.54C460.105 631.345 462.127 636.904 465.159 646H521.758ZM431.3 342.79C451.009 342.79 459.6 353.907 459.6 379.175V414.044C459.6 442.344 446.966 451.44 426.247 451.44H404.517V342.79H431.3ZM607.842 342.79H703.858V292.255H552.253V646H703.858V595.465H607.842V491.868H684.149V441.333H607.842V342.79ZM793.893 342.79H889.91V292.255H738.305V646H889.91V595.465H793.893V491.868H870.201V441.333H793.893V342.79ZM1086.21 499.448H1111.47V564.639C1111.47 589.906 1100.36 599.002 1082.67 599.002C1064.98 599.002 1053.86 589.906 1053.86 564.639V373.616C1053.86 348.348 1064.98 338.747 1082.67 338.747C1100.36 338.747 1111.47 348.348 1111.47 373.616V411.517H1164.03V377.153C1164.03 320.554 1135.73 288.212 1081.15 288.212C1026.58 288.212 998.276 320.554 998.276 377.153V561.101C998.276 617.7 1026.58 650.043 1081.15 650.043C1135.73 650.043 1164.03 617.7 1164.03 561.101V448.913H1086.21V499.448ZM1255.32 342.79H1351.34V292.255H1199.73V646H1351.34V595.465H1255.32V491.868H1331.63V441.333H1255.32V342.79ZM1441.37 342.79H1537.39V292.255H1385.79V646H1537.39V595.465H1441.37V491.868H1517.68V441.333H1441.37V342.79ZM1698.68 646H1755.78L1678.47 449.924L1755.78 292.255H1700.2L1628.44 445.376H1627.43V292.255H1571.84V646H1627.43V537.35L1644.61 505.007L1698.68 646Z" fill="white"/>
<path d="M1192.33 575.148L1308.1 540.433L1234.88 296.27L1233.47 -240.133L1122.97 -206.996L1136.29 154.922L1134.18 155.553L946.158 -153.976L825.129 -117.683L1119.11 330.985L1192.33 575.148ZM1485.69 -315.767L1316.25 -264.957L1419.29 507.088L1525.59 475.213L1505.5 335.559L1647.58 292.954L1707.66 420.616L1824.48 385.585L1485.69 -315.767ZM1433.26 -157.81L1435.37 -158.441L1601.81 197.707L1490.26 231.16L1433.26 -157.81ZM1935.4 352.322L2051.17 317.606L1977.95 73.4434L1976.54 -462.96L1866.04 -429.822L1879.36 -67.904L1877.25 -67.2729L1689.23 -376.803L1568.2 -340.509L1862.18 108.159L1935.4 352.322Z" fill="#0037FF" fill-opacity="0.2"/>
<path d="M1045.57 85.7448L1161.34 51.0295L1088.12 -193.133L1086.71 -729.536L976.207 -696.399L989.53 -334.481L987.425 -333.85L799.399 -643.379L678.37 -607.086L972.355 -158.418L1045.57 85.7448ZM1338.93 -805.17L1169.49 -754.36L1272.54 17.6851L1378.83 -14.1898L1358.75 -153.844L1500.82 -196.449L1560.9 -68.7875L1677.72 -103.818L1338.93 -805.17ZM1286.5 -647.213L1288.61 -647.844L1455.06 -291.696L1343.5 -258.243L1286.5 -647.213ZM1788.64 -137.081L1904.41 -171.797L1831.19 -415.96L1829.78 -952.363L1719.28 -919.225L1732.6 -557.307L1730.5 -556.676L1542.47 -866.206L1421.44 -829.912L1715.43 -381.244L1788.64 -137.081Z" fill="white"/>
<path d="M178.272 736.16H174.096V761H178.272V736.16ZM189.472 761L191.164 755.852H200.128L201.82 761H206.248L197.608 736.16H193.648L185.008 761H189.472ZM195.628 742.208L198.94 752.252H192.316L195.628 742.208ZM208.968 736.16V739.796H216.132V761H220.308V739.796H227.436V736.16H208.968ZM250.74 749.984H252.468C255.348 749.984 256.824 751.496 256.824 754.016C256.824 756.104 255.348 757.688 253.188 757.688C250.632 757.688 249.372 756.32 249.084 754.52H245.268C245.484 758.444 248.328 761.324 253.368 761.324C258.156 761.324 260.964 758.048 260.964 754.124C260.964 751.064 259.344 749.12 257.076 748.112C259.02 747.14 260.604 745.268 260.604 742.568C260.604 738.824 257.436 735.836 253.08 735.836C249.084 735.836 245.7 738.464 245.592 742.46H249.408C249.588 740.732 250.92 739.4 252.936 739.4C255.06 739.4 256.464 740.876 256.464 742.676C256.464 745.016 255.06 746.384 252.468 746.384H250.74V749.984ZM273.149 749.984H274.877C277.757 749.984 279.233 751.496 279.233 754.016C279.233 756.104 277.757 757.688 275.597 757.688C273.041 757.688 271.781 756.32 271.493 754.52H267.677C267.893 758.444 270.737 761.324 275.777 761.324C280.565 761.324 283.373 758.048 283.373 754.124C283.373 751.064 281.753 749.12 279.485 748.112C281.429 747.14 283.013 745.268 283.013 742.568C283.013 738.824 279.845 735.836 275.489 735.836C271.493 735.836 268.109 738.464 268.001 742.46H271.817C271.997 740.732 273.329 739.4 275.345 739.4C277.469 739.4 278.873 740.876 278.873 742.676C278.873 745.016 277.469 746.384 274.877 746.384H273.149V749.984ZM295.557 749.984H297.285C300.165 749.984 301.641 751.496 301.641 754.016C301.641 756.104 300.165 757.688 298.005 757.688C295.449 757.688 294.189 756.32 293.901 754.52H290.085C290.301 758.444 293.145 761.324 298.185 761.324C302.973 761.324 305.781 758.048 305.781 754.124C305.781 751.064 304.161 749.12 301.893 748.112C303.837 747.14 305.421 745.268 305.421 742.568C305.421 738.824 302.253 735.836 297.897 735.836C293.901 735.836 290.517 738.464 290.409 742.46H294.225C294.405 740.732 295.737 739.4 297.753 739.4C299.877 739.4 301.281 740.876 301.281 742.676C301.281 745.016 299.877 746.384 297.285 746.384H295.557V749.984ZM330.998 736.16H326.822V761H330.998V736.16ZM354.222 736.16V753.26L343.998 736.16H340.398V761H344.43V744.116L354.546 761H358.254V736.16H354.222ZM364.857 736.16V739.796H372.021V761H376.197V739.796H383.325V736.16H364.857ZM389.926 736.16V761H405.154V757.4H394.102V749.948H404.074V746.348H394.102V739.796H405.154V736.16H389.926ZM431.117 761L425.825 750.236C428.705 749.192 430.325 746.996 430.325 743.576C430.325 738.644 426.905 736.16 421.181 736.16H412.721V761H416.897V750.92H421.721L426.509 761H431.117ZM416.897 747.32V739.796H420.893C424.421 739.796 426.149 740.768 426.149 743.576C426.149 746.384 424.421 747.32 420.893 747.32H416.897ZM440.27 761L441.962 755.852H450.926L452.618 761H457.046L448.406 736.16H444.446L435.806 761H440.27ZM446.426 742.208L449.738 752.252H443.114L446.426 742.208ZM480.409 743.864C479.581 738.464 476.305 735.836 471.373 735.836C465.829 735.836 462.085 739.184 462.085 746.996V750.164C462.085 757.976 465.829 761.324 471.373 761.324C476.305 761.324 479.545 758.876 480.373 753.296H476.377C475.729 756.32 474.217 757.688 471.373 757.688C468.061 757.688 466.261 755.456 466.261 750.164V746.996C466.261 741.632 468.061 739.472 471.373 739.472C474.109 739.472 475.729 740.84 476.377 743.864H480.409ZM485.057 736.16V739.796H492.221V761H496.397V739.796H503.525V736.16H485.057ZM514.661 736.16H510.485V761H514.661V736.16ZM541.665 750.164V746.996C541.665 739.184 537.921 735.836 532.341 735.836C526.797 735.836 523.053 739.184 523.053 746.996V750.164C523.053 757.976 526.797 761.324 532.341 761.324C537.921 761.324 541.665 757.976 541.665 750.164ZM527.229 746.996C527.229 741.632 529.029 739.472 532.341 739.472C535.653 739.472 537.489 741.632 537.489 746.996V750.164C537.489 755.528 535.653 757.688 532.341 757.688C529.029 757.688 527.229 755.528 527.229 750.164V746.996ZM563.563 736.16V753.26L553.339 736.16H549.739V761H553.771V744.116L563.887 761H567.595V736.16H563.563ZM597.671 761C603.251 761 606.995 758.012 606.995 750.056V747.104C606.995 739.148 603.251 736.16 597.671 736.16H589.283V761H597.671ZM597.671 757.4H593.459V739.796H597.671C601.235 739.796 602.819 741.992 602.819 747.104V750.056C602.819 755.168 601.235 757.4 597.671 757.4ZM615.066 736.16V761H630.294V757.4H619.242V749.948H629.214V746.348H619.242V739.796H630.294V736.16H615.066ZM653.954 739.904C652.19 737.168 649.418 735.836 645.458 735.836C639.626 735.836 637.178 738.968 637.178 742.712C637.178 746.924 639.878 749.228 644.666 750.236C648.986 751.172 650.102 752.396 650.102 754.376C650.102 756.176 649.022 757.688 645.602 757.688C642.758 757.688 641.282 756.752 639.806 754.988L636.53 757.256C638.582 760.028 641.57 761.324 645.818 761.324C651.794 761.324 654.278 757.904 654.278 754.196C654.278 749.732 651.686 747.86 646.682 746.78C643.226 746.024 641.354 745.088 641.354 742.712C641.354 740.624 642.866 739.472 645.422 739.472C648.23 739.472 649.562 740.48 650.786 742.172L653.954 739.904ZM666.634 736.16H662.458V761H666.634V736.16ZM684.422 748.256V751.892H689.354C689.066 755.816 687.482 757.688 684.314 757.688C681.002 757.688 679.202 755.528 679.202 750.164V746.996C679.202 741.632 681.002 739.472 684.314 739.472C687.122 739.472 688.706 740.984 689.318 743.864H693.35C692.558 738.644 689.354 735.836 684.314 735.836C678.77 735.836 675.026 739.184 675.026 747.176V750.164C675.026 757.976 678.77 761.324 684.314 761.324C689.894 761.324 693.458 757.976 693.458 750.164V748.256H684.422ZM715.361 736.16V753.26L705.137 736.16H701.537V761H705.569V744.116L715.685 761H719.393V736.16H715.361ZM749.541 751.928C755.301 751.928 758.685 749.048 758.685 744.008C758.685 738.896 755.265 736.16 749.541 736.16H741.081V761H745.257V751.928H749.541ZM745.257 748.328V739.796H749.109C752.925 739.796 754.509 741.308 754.509 744.008C754.509 746.852 752.925 748.328 749.109 748.328H745.257ZM784.276 761L778.984 750.236C781.864 749.192 783.484 746.996 783.484 743.576C783.484 738.644 780.064 736.16 774.34 736.16H765.88V761H770.056V750.92H774.88L779.668 761H784.276ZM770.056 747.32V739.796H774.052C777.58 739.796 779.308 740.768 779.308 743.576C779.308 746.384 777.58 747.32 774.052 747.32H770.056ZM809.021 750.164V746.996C809.021 739.184 805.277 735.836 799.697 735.836C794.153 735.836 790.409 739.184 790.409 746.996V750.164C790.409 757.976 794.153 761.324 799.697 761.324C805.277 761.324 809.021 757.976 809.021 750.164ZM794.585 746.996C794.585 741.632 796.385 739.472 799.697 739.472C803.009 739.472 804.845 741.632 804.845 746.996V750.164C804.845 755.528 803.009 757.688 799.697 757.688C796.385 757.688 794.585 755.528 794.585 750.164V746.996ZM813.337 757.868C814.885 760.172 817.477 761.324 820.645 761.324C825.865 761.324 829.033 758.516 829.033 751.172V736.16H824.857V751.172C824.857 756.104 823.381 757.688 820.465 757.688C818.845 757.688 817.621 756.968 816.829 755.888L813.337 757.868ZM838.098 736.16V761H853.326V757.4H842.274V749.948H852.246V746.348H842.274V739.796H853.326V736.16H838.098ZM878.209 743.864C877.381 738.464 874.105 735.836 869.173 735.836C863.629 735.836 859.885 739.184 859.885 746.996V750.164C859.885 757.976 863.629 761.324 869.173 761.324C874.105 761.324 877.345 758.876 878.173 753.296H874.177C873.529 756.32 872.017 757.688 869.173 757.688C865.861 757.688 864.061 755.456 864.061 750.164V746.996C864.061 741.632 865.861 739.472 869.173 739.472C871.909 739.472 873.529 740.84 874.177 743.864H878.209ZM882.857 736.16V739.796H890.021V761H894.197V739.796H901.325V736.16H882.857Z" fill="#0037FF"/>
</g>
<defs>
<clipPath id="clip0">
<rect width="1920" height="1080" fill="white"/>
</clipPath>
</defs>
</svg>
