<svg width="1920" height="1080" viewBox="0 0 1920 1080" fill="none" xmlns="http://www.w3.org/2000/svg">
<rect width="1920" height="1080" fill="white"/>
<path d="M155.352 115L151.92 107.944C153.72 107.2 154.752 105.736 154.752 103.504C154.752 100.144 152.376 98.44 148.56 98.44H142.632V115H145.992V108.496H148.68L151.656 115H155.352ZM145.992 105.664V101.296H148.248C150.24 101.296 151.392 101.776 151.392 103.504C151.392 105.232 150.24 105.664 148.248 105.664H145.992ZM158.645 98.44V115H168.965V112.168H162.005V107.848H168.245V105.016H162.005V101.296H168.965V98.44H158.645ZM183.637 100.936C182.461 99.112 180.469 98.224 177.829 98.224C173.893 98.224 172.165 100.264 172.165 102.88C172.165 105.616 173.797 107.176 177.061 108.04C179.749 108.736 180.445 109.384 180.445 110.536C180.445 111.544 179.797 112.384 177.877 112.384C176.173 112.384 175.165 111.832 174.277 110.728L171.709 112.504C173.173 114.424 175.189 115.216 178.093 115.216C181.981 115.216 183.805 113.104 183.805 110.392C183.805 107.464 182.245 106.168 178.789 105.304C176.581 104.752 175.525 104.176 175.525 102.88C175.525 101.752 176.341 101.056 177.853 101.056C179.533 101.056 180.397 101.608 181.117 102.736L183.637 100.936ZM187.505 98.44V115H197.825V112.168H190.865V107.848H197.105V105.016H190.865V101.296H197.825V98.44H187.505ZM203.234 115L204.242 111.856H209.786L210.794 115H214.37L208.61 98.44H205.394L199.634 115H203.234ZM207.002 103.192L208.874 109.024H205.13L207.002 103.192ZM229.86 115L226.428 107.944C228.228 107.2 229.26 105.736 229.26 103.504C229.26 100.144 226.884 98.44 223.068 98.44H217.14V115H220.5V108.496H223.188L226.164 115H229.86ZM220.5 105.664V101.296H222.756C224.748 101.296 225.9 101.776 225.9 103.504C225.9 105.232 224.748 105.664 222.756 105.664H220.5ZM244.986 103.576C244.434 99.952 242.202 98.224 238.914 98.224C235.194 98.224 232.578 100.432 232.578 105.544V107.896C232.578 112.96 235.194 115.216 238.914 115.216C242.322 115.216 244.41 113.584 244.962 109.864H241.77C241.41 111.544 240.594 112.384 238.914 112.384C236.97 112.384 235.938 110.968 235.938 107.896V105.544C235.938 102.376 236.97 101.056 238.914 101.056C240.546 101.056 241.458 102.016 241.77 103.576H244.986ZM251.892 98.44H248.532V115H251.892V107.848H257.628V115H260.988V98.44H257.628V105.016H251.892V98.44ZM271.89 110.608C271.89 112.96 273.906 115.216 277.602 115.216C279.378 115.216 280.866 114.784 282.042 114.016L282.954 115H286.818L284.058 111.952C284.898 110.608 285.354 109 285.354 107.272H282.186C282.186 108.088 282.066 108.856 281.85 109.504L278.682 105.976C280.41 104.704 282.114 103.36 282.114 101.512C282.114 99.808 280.626 98.224 277.626 98.224C275.01 98.224 273.09 99.712 273.09 101.992C273.09 103.456 273.714 104.632 274.674 105.808C273.186 106.984 271.89 108.424 271.89 110.608ZM277.746 112.384C276.186 112.384 275.154 111.496 275.154 110.128C275.154 109.264 275.658 108.52 276.402 107.8L280.074 111.832C279.45 112.192 278.658 112.384 277.746 112.384ZM276.282 101.992C276.282 101.008 276.882 100.552 277.674 100.552C278.586 100.552 279.09 101.104 279.09 101.704C279.09 102.616 278.226 103.336 277.122 104.104C276.642 103.432 276.282 102.688 276.282 101.992ZM298.938 115L299.946 111.856H305.49L306.498 115H310.074L304.314 98.44H301.098L295.338 115H298.938ZM302.706 103.192L304.578 109.024H300.834L302.706 103.192ZM322.108 98.44V108.832L315.628 98.44H312.844V115H316.036V104.752L322.492 115H325.3V98.44H322.108ZM331.667 115L332.675 111.856H338.219L339.227 115H342.803L337.043 98.44H333.827L328.067 115H331.667ZM335.435 103.192L337.307 109.024H333.563L335.435 103.192ZM348.933 98.44H345.573V115H355.893V112.168H348.933V98.44ZM355.363 98.44L360.523 108.232V115H363.883V108.232L369.043 98.44H365.179L362.203 104.608L359.251 98.44H355.363ZM382.734 100.936C381.558 99.112 379.566 98.224 376.926 98.224C372.99 98.224 371.262 100.264 371.262 102.88C371.262 105.616 372.894 107.176 376.158 108.04C378.846 108.736 379.542 109.384 379.542 110.536C379.542 111.544 378.894 112.384 376.974 112.384C375.27 112.384 374.262 111.832 373.374 110.728L370.806 112.504C372.27 114.424 374.286 115.216 377.19 115.216C381.078 115.216 382.902 113.104 382.902 110.392C382.902 107.464 381.342 106.168 377.886 105.304C375.678 104.752 374.622 104.176 374.622 102.88C374.622 101.752 375.438 101.056 376.95 101.056C378.63 101.056 379.494 101.608 380.214 102.736L382.734 100.936ZM390.202 98.44H386.842V115H390.202V98.44ZM406.04 100.936C404.864 99.112 402.872 98.224 400.232 98.224C396.296 98.224 394.568 100.264 394.568 102.88C394.568 105.616 396.2 107.176 399.464 108.04C402.152 108.736 402.848 109.384 402.848 110.536C402.848 111.544 402.2 112.384 400.28 112.384C398.576 112.384 397.568 111.832 396.68 110.728L394.112 112.504C395.576 114.424 397.592 115.216 400.496 115.216C404.384 115.216 406.208 113.104 406.208 110.392C406.208 107.464 404.648 106.168 401.192 105.304C398.984 104.752 397.928 104.176 397.928 102.88C397.928 101.752 398.744 101.056 400.256 101.056C401.936 101.056 402.8 101.608 403.52 102.736L406.04 100.936Z" fill="#0037FF"/>
<path d="M166.648 338.2H144.616V439H158.44V367.72H158.728L170.248 439H185.224L195.88 366.712H196.168V439H211.144V338.2H189.112L178.456 409.768H178.168L166.648 338.2ZM242.826 352.6H270.186V338.2H226.986V439H270.186V424.6H242.826V395.08H264.57V380.68H242.826V352.6ZM279.714 352.6H296.274V439H312.114V352.6H328.674V338.2H279.714V352.6ZM355.81 395.8H373.81V439H389.938V338.2H373.81V381.4H355.81V338.2H339.97V439H355.81V395.8ZM420.287 361.384C420.287 354.184 423.455 351.448 428.495 351.448C433.535 351.448 436.703 354.184 436.703 361.384V415.816C436.703 423.016 433.535 425.752 428.495 425.752C423.455 425.752 420.287 423.016 420.287 415.816V361.384ZM404.447 414.808C404.447 430.936 412.943 440.152 428.495 440.152C444.047 440.152 452.543 430.936 452.543 414.808V362.392C452.543 346.264 444.047 337.048 428.495 337.048C412.943 337.048 404.447 346.264 404.447 362.392V414.808ZM467.157 439H492.213C508.053 439 515.829 430.216 515.829 414.088V363.112C515.829 346.984 508.053 338.2 492.213 338.2H467.157V439ZM491.925 352.6C496.965 352.6 499.989 355.192 499.989 362.392V414.808C499.989 422.008 496.965 424.6 491.925 424.6H482.997V352.6H491.925ZM544.802 361.384C544.802 354.184 547.97 351.448 553.01 351.448C558.05 351.448 561.218 354.184 561.218 361.384V415.816C561.218 423.016 558.05 425.752 553.01 425.752C547.97 425.752 544.802 423.016 544.802 415.816V361.384ZM528.962 414.808C528.962 430.936 537.458 440.152 553.01 440.152C568.562 440.152 577.058 430.936 577.058 414.808V362.392C577.058 346.264 568.562 337.048 553.01 337.048C537.458 337.048 528.962 346.264 528.962 362.392V414.808ZM591.672 439H633.576V424.6H607.512V338.2H591.672V439ZM659.333 361.384C659.333 354.184 662.501 351.448 667.541 351.448C672.581 351.448 675.749 354.184 675.749 361.384V415.816C675.749 423.016 672.581 425.752 667.541 425.752C662.501 425.752 659.333 423.016 659.333 415.816V361.384ZM643.493 414.808C643.493 430.936 651.989 440.152 667.541 440.152C683.093 440.152 691.589 430.936 691.589 414.808V362.392C691.589 346.264 683.093 337.048 667.541 337.048C651.989 337.048 643.493 346.264 643.493 362.392V414.808ZM729.963 397.24H737.163V415.816C737.163 423.016 733.995 425.608 728.955 425.608C723.915 425.608 720.747 423.016 720.747 415.816V361.384C720.747 354.184 723.915 351.448 728.955 351.448C733.995 351.448 737.163 354.184 737.163 361.384V372.184H752.139V362.392C752.139 346.264 744.075 337.048 728.523 337.048C712.971 337.048 704.907 346.264 704.907 362.392V414.808C704.907 430.936 712.971 440.152 728.523 440.152C744.075 440.152 752.139 430.936 752.139 414.808V382.84H729.963V397.24ZM779.355 439H795.195V405.592L815.211 338.2H800.091L788.139 384.136H787.851L775.899 338.2H759.339L779.355 405.592V439Z" fill="#0037FF"/>
<path d="M144.264 680.88V714H164.904V708.336H150.984V699.696H163.464V694.032H150.984V686.592H164.904V680.88H144.264ZM166.985 695.184H170.057V706.176C170.057 712.368 172.457 714 178.265 714H180.857V708.624H178.889C176.633 708.624 176.153 707.616 176.153 705.216V695.184H180.857V690H176.153V684.72H170.057V690H166.985V695.184ZM184.651 714H190.795V699.888C190.795 696.72 192.187 694.848 195.019 694.848C197.515 694.848 198.859 696.192 198.859 699.936V714H204.955V698.976C204.955 691.872 201.019 689.568 196.171 689.568C193.387 689.568 191.707 690.672 190.795 691.872V680.88H184.651V714ZM209.917 714H216.061V699.888C216.061 696.72 217.453 694.848 220.285 694.848C222.781 694.848 224.125 696.192 224.125 699.936V714H230.221V698.976C230.221 691.872 226.285 689.568 221.437 689.568C218.749 689.568 216.829 690.816 215.917 692.016V690H209.917V714ZM255.054 700.512C255.054 693.312 251.358 689.568 244.686 689.568C238.11 689.568 234.318 693.312 234.318 700.512V703.392C234.318 710.112 237.726 714.432 244.686 714.432C251.934 714.432 255.054 709.968 255.054 703.392V700.512ZM244.686 709.248C241.278 709.248 240.414 706.656 240.414 703.2V700.704C240.414 696.864 241.662 694.752 244.686 694.752C247.71 694.752 248.958 696.864 248.958 700.704V703.2C248.958 706.656 248.046 709.248 244.686 709.248ZM272.912 691.248C271.616 690.144 269.936 689.568 267.776 689.568C262.064 689.568 258.271 693.312 258.271 700.32V703.584C258.271 709.968 261.488 714.432 267.776 714.432C269.936 714.432 271.616 713.856 272.912 712.752V713.52C272.912 717.216 271.52 718.272 267.872 718.272C265.616 718.272 264.224 717.552 263.168 716.112L259.04 719.088C261.152 722.352 263.984 723.408 268.448 723.408C274.496 723.408 279.008 721.536 279.008 713.52V690H272.912V691.248ZM268.64 709.248C265.328 709.248 264.368 706.656 264.368 703.2V700.704C264.368 696.864 265.616 694.752 268.64 694.752C271.664 694.752 272.912 696.864 272.912 700.704V703.728C272.912 706.896 271.904 709.248 268.64 709.248ZM301.644 693.312C300.204 690.816 298.044 689.568 295.164 689.568C292.332 689.568 290.748 690.816 289.932 692.016V690H283.932V714H290.076V699.888C290.076 696.528 291.612 694.848 293.916 694.848C295.452 694.848 296.316 695.76 296.94 696.672L301.644 693.312ZM302.092 706.896C302.092 711.792 305.548 714.432 310.54 714.432C313.324 714.432 314.764 713.52 315.724 711.888V714H321.724V698.256C321.724 691.392 318.22 689.568 312.028 689.568C307.084 689.568 304.396 690.624 302.62 693.552L306.94 696.576C307.948 694.992 309.1 694.656 311.452 694.656C314.908 694.656 315.724 695.52 315.724 698.208V699.6H310.972C305.932 699.6 302.092 701.808 302.092 706.896ZM315.724 705.024C315.724 708.288 314.38 709.488 311.596 709.488C309.484 709.488 308.092 708.624 308.092 706.8C308.092 704.928 309.196 704.112 311.692 704.112H315.724V705.024ZM347.42 700.32C347.42 693.456 343.676 689.568 338.108 689.568C335.66 689.568 333.932 690.288 332.78 691.584V690H326.636V723.12H332.78V713.04C333.884 713.952 335.564 714.432 338.06 714.432C344.252 714.432 347.42 709.824 347.42 703.584V700.32ZM337.052 709.248C333.596 709.248 332.78 706.656 332.78 703.2V700.176C332.78 696.672 334.124 694.752 337.052 694.752C340.076 694.752 341.276 696.864 341.276 700.704V703.2C341.276 706.656 340.364 709.248 337.052 709.248ZM351.432 714H357.576V699.888C357.576 696.72 358.968 694.848 361.8 694.848C364.296 694.848 365.64 696.192 365.64 699.936V714H371.736V698.976C371.736 691.872 367.8 689.568 362.952 689.568C360.168 689.568 358.488 690.672 357.576 691.872V680.88H351.432V714ZM373.834 690L382.81 714.336C381.802 717.12 380.506 717.648 377.194 717.648V723.12C383.914 723.12 386.026 721.536 388.186 715.104L396.586 690H390.394L385.594 705.36L380.266 690H373.834ZM434.099 685.872C431.747 682.224 427.763 680.448 422.483 680.448C414.611 680.448 411.155 684.528 411.155 689.76C411.155 695.232 414.419 698.352 420.947 700.08C426.323 701.472 427.715 702.768 427.715 705.072C427.715 707.088 426.419 708.768 422.579 708.768C419.171 708.768 417.155 707.664 415.379 705.456L410.243 709.008C413.171 712.848 417.203 714.432 423.011 714.432C430.787 714.432 434.435 710.208 434.435 704.784C434.435 698.928 431.315 696.336 424.403 694.608C419.987 693.504 417.875 692.352 417.875 689.76C417.875 687.504 419.507 686.112 422.531 686.112C425.891 686.112 427.619 687.216 429.059 689.472L434.099 685.872ZM436.844 695.184H439.916V706.176C439.916 712.368 442.316 714 448.124 714H450.716V708.624H448.748C446.492 708.624 446.012 707.616 446.012 705.216V695.184H450.716V690H446.012V684.72H439.916V690H436.844V695.184ZM474.815 690H468.719V704.112C468.719 707.424 467.375 709.152 464.543 709.152C461.999 709.152 460.655 707.856 460.655 704.064V690H454.511V704.976C454.511 712.032 458.495 714.432 463.343 714.432C466.511 714.432 467.807 713.616 468.815 711.984V714H474.815V690ZM493.552 691.248C492.208 690.096 490.48 689.568 488.416 689.568C482.704 689.568 478.912 693.312 478.912 700.32V703.584C478.912 709.968 482.128 714.432 488.416 714.432C490.672 714.432 492.304 713.76 493.552 712.608V714H499.648V680.88H493.552V691.248ZM489.28 709.248C485.968 709.248 485.008 706.656 485.008 703.2V700.704C485.008 696.864 486.256 694.752 489.28 694.752C492.16 694.752 493.552 696.672 493.552 700.176V703.2C493.552 706.656 492.736 709.248 489.28 709.248ZM502.365 690L511.341 714.336C510.333 717.12 509.037 717.648 505.725 717.648V723.12C512.445 723.12 514.557 721.536 516.717 715.104L525.117 690H518.925L514.125 705.36L508.797 690H502.365Z" fill="#0037FF"/>
<path d="M727.024 714C734.512 714 739.744 710.112 739.744 699.6V695.28C739.744 684.72 734.512 680.88 727.024 680.88H715.264V714H727.024ZM727.024 708.336H721.984V686.592H727.024C731.488 686.592 733.024 689.568 733.024 695.28V699.6C733.024 705.312 731.488 708.336 727.024 708.336ZM743.248 706.896C743.248 711.792 746.704 714.432 751.696 714.432C754.48 714.432 755.92 713.52 756.88 711.888V714H762.88V698.256C762.88 691.392 759.376 689.568 753.184 689.568C748.24 689.568 745.552 690.624 743.776 693.552L748.096 696.576C749.104 694.992 750.256 694.656 752.608 694.656C756.064 694.656 756.88 695.52 756.88 698.208V699.6H752.128C747.088 699.6 743.248 701.808 743.248 706.896ZM756.88 705.024C756.88 708.288 755.536 709.488 752.752 709.488C750.64 709.488 749.248 708.624 749.248 706.8C749.248 704.928 750.352 704.112 752.848 704.112H756.88V705.024ZM766.016 695.184H769.088V706.176C769.088 712.368 771.488 714 777.296 714H779.888V708.624H777.92C775.664 708.624 775.184 707.616 775.184 705.216V695.184H779.888V690H775.184V684.72H769.088V690H766.016V695.184ZM782.482 706.896C782.482 711.792 785.938 714.432 790.93 714.432C793.714 714.432 795.154 713.52 796.114 711.888V714H802.114V698.256C802.114 691.392 798.61 689.568 792.418 689.568C787.474 689.568 784.786 690.624 783.01 693.552L787.33 696.576C788.338 694.992 789.49 694.656 791.842 694.656C795.298 694.656 796.114 695.52 796.114 698.208V699.6H791.362C786.322 699.6 782.482 701.808 782.482 706.896ZM796.114 705.024C796.114 708.288 794.77 709.488 791.986 709.488C789.874 709.488 788.482 708.624 788.482 706.8C788.482 704.928 789.586 704.112 792.082 704.112H796.114V705.024ZM842.114 685.872C839.762 682.224 835.778 680.448 830.498 680.448C822.626 680.448 819.17 684.528 819.17 689.76C819.17 695.232 822.434 698.352 828.962 700.08C834.338 701.472 835.73 702.768 835.73 705.072C835.73 707.088 834.434 708.768 830.594 708.768C827.186 708.768 825.17 707.664 823.394 705.456L818.258 709.008C821.186 712.848 825.218 714.432 831.026 714.432C838.802 714.432 842.45 710.208 842.45 704.784C842.45 698.928 839.33 696.336 832.418 694.608C828.002 693.504 825.89 692.352 825.89 689.76C825.89 687.504 827.522 686.112 830.546 686.112C833.906 686.112 835.634 687.216 837.074 689.472L842.114 685.872ZM843.209 690L852.185 714.336C851.177 717.12 849.881 717.648 846.569 717.648V723.12C853.289 723.12 855.401 721.536 857.561 715.104L865.961 690H859.769L854.969 705.36L849.641 690H843.209ZM868.386 714H874.53V699.888C874.53 696.72 875.922 694.848 878.754 694.848C881.25 694.848 882.594 696.192 882.594 699.936V714H888.69V698.976C888.69 691.872 884.754 689.568 879.906 689.568C877.218 689.568 875.298 690.816 874.386 692.016V690H868.386V714ZM891.875 695.184H894.947V706.176C894.947 712.368 897.347 714 903.155 714H905.747V708.624H903.779C901.523 708.624 901.043 707.616 901.043 705.216V695.184H905.747V690H901.043V684.72H894.947V690H891.875V695.184ZM909.542 714H915.686V699.888C915.686 696.72 917.078 694.848 919.91 694.848C922.406 694.848 923.75 696.192 923.75 699.936V714H929.846V698.976C929.846 691.872 925.91 689.568 921.062 689.568C918.278 689.568 916.598 690.672 915.686 691.872V680.88H909.542V714ZM948.823 707.184C947.911 708.48 947.095 709.248 944.551 709.248C941.143 709.248 940.087 706.848 940.039 703.536H953.719V700.8C953.719 693.504 950.599 689.568 943.831 689.568C937.591 689.568 933.943 693.072 933.943 700.32V703.584C933.943 709.776 937.399 714.432 944.599 714.432C948.919 714.432 951.703 713.28 953.383 710.352L948.823 707.184ZM943.879 694.752C946.183 694.752 947.431 696.048 947.575 699.168H940.039C940.279 696.432 941.431 694.752 943.879 694.752ZM975.815 693.552C973.943 690.48 970.679 689.568 966.743 689.568C960.743 689.568 957.479 692.4 957.479 696.96C957.479 701.808 961.127 703.92 966.119 704.736C969.143 705.216 970.199 705.696 970.199 707.184C970.199 708.432 968.903 709.152 966.791 709.152C963.815 709.152 962.615 708.384 961.655 707.088L956.951 710.448C959.015 713.232 961.991 714.432 966.887 714.432C973.079 714.432 976.295 711.6 976.295 706.992C976.295 702.24 973.319 699.984 967.415 699.072C964.871 698.688 963.575 698.16 963.575 696.72C963.575 695.328 965.015 694.848 966.599 694.848C969.191 694.848 970.247 695.52 971.303 696.768L975.815 693.552ZM981.137 714H987.281V690H981.137V714ZM980.897 686.832H987.521V680.88H980.897V686.832ZM1010.55 693.552C1008.68 690.48 1005.41 689.568 1001.48 689.568C995.478 689.568 992.214 692.4 992.214 696.96C992.214 701.808 995.862 703.92 1000.85 704.736C1003.88 705.216 1004.93 705.696 1004.93 707.184C1004.93 708.432 1003.64 709.152 1001.53 709.152C998.55 709.152 997.35 708.384 996.39 707.088L991.686 710.448C993.75 713.232 996.726 714.432 1001.62 714.432C1007.81 714.432 1011.03 711.6 1011.03 706.992C1011.03 702.24 1008.05 699.984 1002.15 699.072C999.606 698.688 998.31 698.16 998.31 696.72C998.31 695.328 999.75 694.848 1001.33 694.848C1003.93 694.848 1004.98 695.52 1006.04 696.768L1010.55 693.552Z" fill="#0037FF"/>
<path d="M1279.46 680.88H1272.74V714H1279.46V680.88ZM1285.65 714H1291.8V699.888C1291.8 696.72 1293.19 694.848 1296.02 694.848C1298.52 694.848 1299.86 696.192 1299.86 699.936V714H1305.96V698.976C1305.96 691.872 1302.02 689.568 1297.17 689.568C1294.48 689.568 1292.56 690.816 1291.65 692.016V690H1285.65V714ZM1328.58 693.552C1326.71 690.48 1323.44 689.568 1319.51 689.568C1313.51 689.568 1310.24 692.4 1310.24 696.96C1310.24 701.808 1313.89 703.92 1318.88 704.736C1321.91 705.216 1322.96 705.696 1322.96 707.184C1322.96 708.432 1321.67 709.152 1319.56 709.152C1316.58 709.152 1315.38 708.384 1314.42 707.088L1309.72 710.448C1311.78 713.232 1314.76 714.432 1319.65 714.432C1325.84 714.432 1329.06 711.6 1329.06 706.992C1329.06 702.24 1326.08 699.984 1320.18 699.072C1317.64 698.688 1316.34 698.16 1316.34 696.72C1316.34 695.328 1317.78 694.848 1319.36 694.848C1321.96 694.848 1323.01 695.52 1324.07 696.768L1328.58 693.552ZM1333.9 714H1340.05V690H1333.9V714ZM1333.66 686.832H1340.29V680.88H1333.66V686.832ZM1359.43 691.248C1358.13 690.144 1356.45 689.568 1354.29 689.568C1348.58 689.568 1344.79 693.312 1344.79 700.32V703.584C1344.79 709.968 1348 714.432 1354.29 714.432C1356.45 714.432 1358.13 713.856 1359.43 712.752V713.52C1359.43 717.216 1358.04 718.272 1354.39 718.272C1352.13 718.272 1350.74 717.552 1349.68 716.112L1345.56 719.088C1347.67 722.352 1350.5 723.408 1354.96 723.408C1361.01 723.408 1365.52 721.536 1365.52 713.52V690H1359.43V691.248ZM1355.16 709.248C1351.84 709.248 1350.88 706.656 1350.88 703.2V700.704C1350.88 696.864 1352.13 694.752 1355.16 694.752C1358.18 694.752 1359.43 696.864 1359.43 700.704V703.728C1359.43 706.896 1358.42 709.248 1355.16 709.248ZM1370.45 714H1376.59V699.888C1376.59 696.72 1377.98 694.848 1380.82 694.848C1383.31 694.848 1384.66 696.192 1384.66 699.936V714H1390.75V698.976C1390.75 691.872 1386.82 689.568 1381.97 689.568C1379.18 689.568 1377.5 690.672 1376.59 691.872V680.88H1370.45V714ZM1393.94 695.184H1397.01V706.176C1397.01 712.368 1399.41 714 1405.22 714H1407.81V708.624H1405.84C1403.59 708.624 1403.11 707.616 1403.11 705.216V695.184H1407.81V690H1403.11V684.72H1397.01V690H1393.94V695.184ZM1436.18 714C1443.67 714 1448.9 710.112 1448.9 699.6V695.28C1448.9 684.72 1443.67 680.88 1436.18 680.88H1424.42V714H1436.18ZM1436.18 708.336H1431.14V686.592H1436.18C1440.64 686.592 1442.18 689.568 1442.18 695.28V699.6C1442.18 705.312 1440.64 708.336 1436.18 708.336ZM1454.32 714H1460.47V690H1454.32V714ZM1454.08 686.832H1460.71V680.88H1454.08V686.832ZM1483.74 693.552C1481.87 690.48 1478.6 689.568 1474.67 689.568C1468.67 689.568 1465.4 692.4 1465.4 696.96C1465.4 701.808 1469.05 703.92 1474.04 704.736C1477.07 705.216 1478.12 705.696 1478.12 707.184C1478.12 708.432 1476.83 709.152 1474.71 709.152C1471.74 709.152 1470.54 708.384 1469.58 707.088L1464.87 710.448C1466.94 713.232 1469.91 714.432 1474.81 714.432C1481 714.432 1484.22 711.6 1484.22 706.992C1484.22 702.24 1481.24 699.984 1475.34 699.072C1472.79 698.688 1471.5 698.16 1471.5 696.72C1471.5 695.328 1472.94 694.848 1474.52 694.848C1477.11 694.848 1478.17 695.52 1479.23 696.768L1483.74 693.552ZM1502.35 707.184C1501.49 708.624 1500.19 709.248 1498.37 709.248C1494.48 709.248 1493.57 706.656 1493.57 703.2V700.704C1493.57 696.864 1494.91 694.752 1498.37 694.752C1500.29 694.752 1501.49 695.616 1502.31 696.768L1506.91 693.552C1505.23 690.912 1502.21 689.568 1498.51 689.568C1491.36 689.568 1487.47 693.312 1487.47 700.32V703.584C1487.47 710.112 1491.31 714.432 1498.18 714.432C1502.5 714.432 1505.23 713.184 1506.91 710.352L1502.35 707.184ZM1529.3 700.512C1529.3 693.312 1525.61 689.568 1518.94 689.568C1512.36 689.568 1508.57 693.312 1508.57 700.512V703.392C1508.57 710.112 1511.98 714.432 1518.94 714.432C1526.18 714.432 1529.3 709.968 1529.3 703.392V700.512ZM1518.94 709.248C1515.53 709.248 1514.66 706.656 1514.66 703.2V700.704C1514.66 696.864 1515.91 694.752 1518.94 694.752C1521.96 694.752 1523.21 696.864 1523.21 700.704V703.2C1523.21 706.656 1522.3 709.248 1518.94 709.248ZM1547.71 690L1542.38 705.552L1537 690H1530.28L1539.59 714H1545.35L1554.47 690H1547.71ZM1570.28 707.184C1569.36 708.48 1568.55 709.248 1566 709.248C1562.6 709.248 1561.54 706.848 1561.49 703.536H1575.17V700.8C1575.17 693.504 1572.05 689.568 1565.28 689.568C1559.04 689.568 1555.4 693.072 1555.4 700.32V703.584C1555.4 709.776 1558.85 714.432 1566.05 714.432C1570.37 714.432 1573.16 713.28 1574.84 710.352L1570.28 707.184ZM1565.33 694.752C1567.64 694.752 1568.88 696.048 1569.03 699.168H1561.49C1561.73 696.432 1562.88 694.752 1565.33 694.752ZM1597.32 693.312C1595.88 690.816 1593.72 689.568 1590.84 689.568C1588 689.568 1586.42 690.816 1585.6 692.016V690H1579.6V714H1585.75V699.888C1585.75 696.528 1587.28 694.848 1589.59 694.848C1591.12 694.848 1591.99 695.76 1592.61 696.672L1597.32 693.312ZM1597.08 690L1606.06 714.336C1605.05 717.12 1603.76 717.648 1600.44 717.648V723.12C1607.16 723.12 1609.28 721.536 1611.44 715.104L1619.84 690H1613.64L1608.84 705.36L1603.52 690H1597.08Z" fill="#0037FF"/>
<path d="M145.344 778.44H143.28V795H145.344V778.44ZM149.193 795H151.113V787.512C151.113 785.856 152.241 784.584 154.041 784.584C155.457 784.584 156.777 785.112 156.777 787.536V795H158.697V787.512C158.697 784.152 156.897 782.808 154.329 782.808C152.553 782.808 151.713 783.264 151.113 784.176V783H149.193V795ZM160.77 784.728H162.306V791.304C162.306 793.8 163.122 795 165.954 795H166.986V793.176H166.026C164.418 793.176 164.226 792.48 164.226 790.824V784.728H166.986V783H164.226V780.36H162.306V783H160.77V784.728ZM176.644 792.12C176.14 793.008 175.348 793.464 173.788 793.464C171.7 793.464 170.716 791.832 170.716 789.768V789.432H178.3V788.184C178.3 784.752 176.716 782.808 173.548 782.808C170.404 782.808 168.796 784.776 168.796 788.184V789.768C168.796 793.104 170.716 795.192 173.932 795.192C176.02 795.192 177.292 794.64 178.132 793.176L176.644 792.12ZM173.548 784.536C175.372 784.536 176.26 785.736 176.356 787.752H170.716C170.836 785.76 171.7 784.536 173.548 784.536ZM189.251 784.44C188.483 783.36 187.451 782.808 185.819 782.808C184.355 782.808 183.539 783.336 183.035 784.176V783H181.115V795H183.035V787.488C183.035 785.688 184.139 784.584 185.603 784.584C186.491 784.584 187.115 784.896 187.619 785.592L189.251 784.44ZM198.696 783L195.048 792.552L191.4 783H189.24L194.136 795H196.056L200.856 783H198.696ZM203.014 795H204.934V783H203.014V795ZM202.894 780.6H205.054V778.44H202.894V780.6ZM215.667 792.12C215.163 793.008 214.371 793.464 212.811 793.464C210.723 793.464 209.739 791.832 209.739 789.768V789.432H217.323V788.184C217.323 784.752 215.739 782.808 212.571 782.808C209.427 782.808 207.819 784.776 207.819 788.184V789.768C207.819 793.104 209.739 795.192 212.955 795.192C215.043 795.192 216.315 794.64 217.155 793.176L215.667 792.12ZM212.571 784.536C214.395 784.536 215.283 785.736 215.379 787.752H209.739C209.859 785.76 210.723 784.536 212.571 784.536ZM227.053 786.024L230.245 795H231.925L235.405 783H233.365L230.965 791.496L227.773 783H226.165L223.141 791.424L220.741 783H218.701L222.181 795H223.861L227.053 786.024ZM250.233 786.024L253.425 795H255.105L258.585 783H256.545L254.145 791.496L250.953 783H249.345L246.321 791.424L243.921 783H241.881L245.361 795H247.041L250.233 786.024ZM260.74 795H262.66V783H260.74V795ZM260.62 780.6H262.78V778.44H260.62V780.6ZM265.09 784.728H266.626V791.304C266.626 793.8 267.442 795 270.274 795H271.306V793.176H270.346C268.738 793.176 268.546 792.48 268.546 790.824V784.728H271.306V783H268.546V780.36H266.626V783H265.09V784.728ZM273.716 795H275.636V787.512C275.636 785.856 276.764 784.584 278.564 784.584C279.98 784.584 281.3 785.112 281.3 787.536V795H283.22V787.512C283.22 784.152 281.42 782.808 278.852 782.808C277.076 782.808 276.236 783.264 275.636 784.176V778.44H273.716V795ZM300.533 784.8C299.597 783.312 298.109 782.808 296.165 782.808C293.309 782.808 291.869 784.224 291.869 786.216C291.869 788.832 293.861 789.648 295.877 789.792C298.205 789.96 298.973 790.416 298.973 791.712C298.973 792.792 298.013 793.416 296.405 793.416C294.677 793.416 293.813 793.056 293.165 792.192L291.749 793.2C292.661 794.448 293.933 795.192 296.381 795.192C299.477 795.192 300.893 793.752 300.893 791.664C300.893 788.904 298.829 788.256 296.573 788.088C294.989 787.968 293.789 787.56 293.789 786.192C293.789 785.136 294.701 784.584 296.117 784.584C297.773 784.584 298.445 784.968 299.093 785.808L300.533 784.8ZM302.473 784.728H304.009V791.304C304.009 793.8 304.825 795 307.657 795H308.689V793.176H307.729C306.121 793.176 305.929 792.48 305.929 790.824V784.728H308.689V783H305.929V780.36H304.009V783H302.473V784.728ZM310.499 791.496C310.499 793.824 312.011 795.192 314.795 795.192C316.355 795.192 317.171 794.928 317.843 793.824V795H319.763V786.672C319.763 783.792 318.251 782.808 315.203 782.808C312.923 782.808 311.699 783.408 310.859 784.8L312.299 785.808C312.971 784.704 313.739 784.584 315.179 784.584C317.051 784.584 317.843 784.968 317.843 786.672V788.064H314.987C312.347 788.064 310.499 788.904 310.499 791.496ZM317.843 790.392C317.843 793.08 316.571 793.416 314.795 793.416C313.379 793.416 312.419 792.888 312.419 791.544C312.419 790.344 313.091 789.696 314.987 789.696H317.843V790.392ZM321.832 783V784.728H323.368V795H325.288V784.728H327.568V783H325.288V782.616C325.288 780.96 325.48 780.264 327.088 780.264H327.568V778.44H327.016C324.184 778.44 323.368 779.64 323.368 782.136V783H321.832ZM328.676 783V784.728H330.212V795H332.132V784.728H334.412V783H332.132V782.616C332.132 780.96 332.324 780.264 333.932 780.264H334.412V778.44H333.86C331.028 778.44 330.212 779.64 330.212 782.136V783H328.676ZM342.096 790.536C342.096 792.888 343.8 795.192 347.328 795.192C349.368 795.192 350.952 794.544 352.128 793.512L353.496 795H356.208L353.424 791.976C354.312 790.584 354.744 788.904 354.744 787.272H352.872C352.872 788.424 352.632 789.552 352.104 790.536L347.76 785.808C349.56 784.56 351.36 783.36 351.36 781.488C351.36 779.976 350.352 778.248 347.352 778.248C344.976 778.248 343.296 779.736 343.296 781.968C343.296 783.36 343.992 784.44 345 785.664C343.464 786.816 342.096 788.28 342.096 790.536ZM347.328 793.32C345.384 793.32 344.064 792.24 344.064 790.512C344.064 789.024 344.976 787.92 346.176 786.96L350.856 792.12C349.992 792.864 348.816 793.32 347.328 793.32ZM345.36 781.968C345.36 780.84 346.176 780.096 347.352 780.096C348.696 780.096 349.296 780.984 349.296 781.632C349.296 782.76 348.048 783.6 346.608 784.56C346.032 783.888 345.36 782.952 345.36 781.968ZM372.391 783L368.743 792.552L365.095 783H362.935L367.831 795H369.751L374.551 783H372.391ZM385.733 788.184C385.733 784.752 383.909 782.808 380.741 782.808C377.597 782.808 375.749 784.776 375.749 788.184V789.768C375.749 793.08 377.549 795.192 380.741 795.192C384.197 795.192 385.733 792.888 385.733 789.768V788.184ZM380.741 793.464C378.533 793.464 377.669 791.832 377.669 789.768V788.184C377.669 785.928 378.773 784.536 380.741 784.536C382.709 784.536 383.813 785.904 383.813 788.184V789.768C383.813 791.808 382.781 793.464 380.741 793.464ZM388.255 791.304C388.255 793.8 389.191 795 392.215 795V793.224C390.247 793.224 390.175 792.12 390.175 790.824V778.44H388.255V791.304ZM404.345 783H402.425V790.488C402.425 792.144 401.297 793.416 399.497 793.416C398.081 793.416 396.761 792.888 396.761 790.464V783H394.841V790.488C394.841 793.848 396.641 795.192 399.209 795.192C400.985 795.192 401.825 794.736 402.425 793.824V795H404.345V783ZM407.474 795H409.394V787.512C409.394 785.856 410.522 784.584 412.322 784.584C413.738 784.584 415.058 785.112 415.058 787.536V795H416.978V787.512C416.978 784.152 415.178 782.808 412.61 782.808C410.834 782.808 409.994 783.264 409.394 784.176V783H407.474V795ZM419.051 784.728H420.587V791.304C420.587 793.8 421.403 795 424.235 795H425.267V793.176H424.307C422.699 793.176 422.507 792.48 422.507 790.824V784.728H425.267V783H422.507V780.36H420.587V783H419.051V784.728ZM434.925 792.12C434.421 793.008 433.629 793.464 432.069 793.464C429.981 793.464 428.997 791.832 428.997 789.768V789.432H436.581V788.184C436.581 784.752 434.997 782.808 431.829 782.808C428.685 782.808 427.077 784.776 427.077 788.184V789.768C427.077 793.104 428.997 795.192 432.213 795.192C434.301 795.192 435.573 794.64 436.413 793.176L434.925 792.12ZM431.829 784.536C433.653 784.536 434.541 785.736 434.637 787.752H428.997C429.117 785.76 429.981 784.536 431.829 784.536ZM446.644 792.12C446.14 793.008 445.348 793.464 443.788 793.464C441.7 793.464 440.716 791.832 440.716 789.768V789.432H448.3V788.184C448.3 784.752 446.716 782.808 443.548 782.808C440.404 782.808 438.796 784.776 438.796 788.184V789.768C438.796 793.104 440.716 795.192 443.932 795.192C446.02 795.192 447.292 794.64 448.132 793.176L446.644 792.12ZM443.548 784.536C445.372 784.536 446.26 785.736 446.356 787.752H440.716C440.836 785.76 441.7 784.536 443.548 784.536ZM459.251 784.44C458.483 783.36 457.451 782.808 455.819 782.808C454.355 782.808 453.539 783.336 453.035 784.176V783H451.115V795H453.035V787.488C453.035 785.688 454.139 784.584 455.603 784.584C456.491 784.584 457.115 784.896 457.619 785.592L459.251 784.44ZM468.744 784.8C467.808 783.312 466.32 782.808 464.376 782.808C461.52 782.808 460.08 784.224 460.08 786.216C460.08 788.832 462.072 789.648 464.088 789.792C466.416 789.96 467.184 790.416 467.184 791.712C467.184 792.792 466.224 793.416 464.616 793.416C462.888 793.416 462.024 793.056 461.376 792.192L459.96 793.2C460.872 794.448 462.144 795.192 464.592 795.192C467.688 795.192 469.104 793.752 469.104 791.664C469.104 788.904 467.04 788.256 464.784 788.088C463.2 787.968 462 787.56 462 786.192C462 785.136 462.912 784.584 464.328 784.584C465.984 784.584 466.656 784.968 467.304 785.808L468.744 784.8Z" fill="#0037FF"/>
<path d="M144.04 823.44V840H146.104V832.752H153.304V830.88H146.104V825.312H154.024V823.44H144.04ZM156.31 836.304C156.31 838.8 157.246 840 160.27 840V838.224C158.302 838.224 158.23 837.12 158.23 835.824V823.44H156.31V836.304ZM166.112 840.288C165.392 842.424 164.648 842.688 163.064 842.688V844.56C166.424 844.56 167.072 843.264 168.056 840.384L172.28 828H170.24L167.096 837.312L163.52 828H161.456L166.16 840.12L166.112 840.288ZM189.46 833.184C189.46 829.752 187.636 827.808 184.468 827.808C181.324 827.808 179.476 829.776 179.476 833.184V834.768C179.476 838.08 181.276 840.192 184.468 840.192C187.924 840.192 189.46 837.888 189.46 834.768V833.184ZM184.468 838.464C182.26 838.464 181.396 836.832 181.396 834.768V833.184C181.396 830.928 182.5 829.536 184.468 829.536C186.436 829.536 187.54 830.904 187.54 833.184V834.768C187.54 836.808 186.508 838.464 184.468 838.464ZM191.982 840H193.902V832.512C193.902 830.856 195.03 829.584 196.83 829.584C198.246 829.584 199.566 830.112 199.566 832.536V840H201.486V832.512C201.486 829.152 199.686 827.808 197.118 827.808C195.342 827.808 194.502 828.264 193.902 829.176V828H191.982V840ZM209.559 829.728H211.095V836.304C211.095 838.8 211.911 840 214.743 840H215.775V838.176H214.815C213.207 838.176 213.015 837.48 213.015 835.824V829.728H215.775V828H213.015V825.36H211.095V828H209.559V829.728ZM218.185 840H220.105V832.512C220.105 830.856 221.233 829.584 223.033 829.584C224.449 829.584 225.769 830.112 225.769 832.536V840H227.689V832.512C227.689 829.152 225.889 827.808 223.321 827.808C221.545 827.808 220.705 828.264 220.105 829.176V823.44H218.185V840ZM238.066 837.12C237.562 838.008 236.77 838.464 235.21 838.464C233.122 838.464 232.138 836.832 232.138 834.768V834.432H239.722V833.184C239.722 829.752 238.138 827.808 234.97 827.808C231.826 827.808 230.218 829.776 230.218 833.184V834.768C230.218 838.104 232.138 840.192 235.354 840.192C237.442 840.192 238.714 839.64 239.554 838.176L238.066 837.12ZM234.97 829.536C236.794 829.536 237.682 830.736 237.778 832.752H232.138C232.258 830.76 233.122 829.536 234.97 829.536ZM255.569 831.024L258.761 840H260.441L263.921 828H261.881L259.481 836.496L256.289 828H254.681L251.657 836.424L249.257 828H247.217L250.697 840H252.377L255.569 831.024ZM265.116 836.496C265.116 838.824 266.628 840.192 269.412 840.192C270.972 840.192 271.788 839.928 272.46 838.824V840H274.38V831.672C274.38 828.792 272.868 827.808 269.82 827.808C267.54 827.808 266.316 828.408 265.476 829.8L266.916 830.808C267.588 829.704 268.356 829.584 269.796 829.584C271.668 829.584 272.46 829.968 272.46 831.672V833.064H269.604C266.964 833.064 265.116 833.904 265.116 836.496ZM272.46 835.392C272.46 838.08 271.188 838.416 269.412 838.416C267.996 838.416 267.036 837.888 267.036 836.544C267.036 835.344 267.708 834.696 269.604 834.696H272.46V835.392ZM277.505 836.304C277.505 838.8 278.441 840 281.465 840V838.224C279.497 838.224 279.425 837.12 279.425 835.824V823.44H277.505V836.304ZM284.091 836.304C284.091 838.8 285.027 840 288.051 840V838.224C286.083 838.224 286.011 837.12 286.011 835.824V823.44H284.091V836.304ZM306.061 833.184C306.061 829.752 304.237 827.808 301.069 827.808C297.925 827.808 296.077 829.776 296.077 833.184V834.768C296.077 838.08 297.877 840.192 301.069 840.192C304.525 840.192 306.061 837.888 306.061 834.768V833.184ZM301.069 838.464C298.861 838.464 297.997 836.832 297.997 834.768V833.184C297.997 830.928 299.101 829.536 301.069 829.536C303.037 829.536 304.141 830.904 304.141 833.184V834.768C304.141 836.808 303.109 838.464 301.069 838.464ZM310.503 823.44H308.583V840H310.503V838.944C311.151 839.784 312.159 840.192 313.767 840.192C317.031 840.192 318.567 837.888 318.567 834.768V833.184C318.567 829.752 316.743 827.808 313.767 827.808C312.183 827.808 311.151 828.312 310.503 829.2V823.44ZM313.575 838.464C311.367 838.464 310.503 836.832 310.503 834.768V833.016C310.503 830.856 311.655 829.536 313.575 829.536C315.543 829.536 316.647 830.904 316.647 833.184V834.768C316.647 836.808 315.615 838.464 313.575 838.464ZM329.283 829.8C328.347 828.312 326.859 827.808 324.915 827.808C322.059 827.808 320.619 829.224 320.619 831.216C320.619 833.832 322.611 834.648 324.627 834.792C326.955 834.96 327.723 835.416 327.723 836.712C327.723 837.792 326.763 838.416 325.155 838.416C323.427 838.416 322.563 838.056 321.915 837.192L320.499 838.2C321.411 839.448 322.683 840.192 325.131 840.192C328.227 840.192 329.643 838.752 329.643 836.664C329.643 833.904 327.579 833.256 325.323 833.088C323.739 832.968 322.539 832.56 322.539 831.192C322.539 830.136 323.451 829.584 324.867 829.584C326.523 829.584 327.195 829.968 327.843 830.808L329.283 829.8ZM339.527 837.12C339.023 838.008 338.231 838.464 336.671 838.464C334.583 838.464 333.599 836.832 333.599 834.768V834.432H341.183V833.184C341.183 829.752 339.599 827.808 336.431 827.808C333.287 827.808 331.679 829.776 331.679 833.184V834.768C331.679 838.104 333.599 840.192 336.815 840.192C338.903 840.192 340.175 839.64 341.015 838.176L339.527 837.12ZM336.431 829.536C338.255 829.536 339.143 830.736 339.239 832.752H333.599C333.719 830.76 334.583 829.536 336.431 829.536ZM352.134 829.44C351.366 828.36 350.334 827.808 348.702 827.808C347.238 827.808 346.422 828.336 345.918 829.176V828H343.998V840H345.918V832.488C345.918 830.688 347.022 829.584 348.486 829.584C349.374 829.584 349.998 829.896 350.502 830.592L352.134 829.44ZM361.579 828L357.931 837.552L354.283 828H352.123L357.019 840H358.939L363.739 828H361.579ZM364.937 836.496C364.937 838.824 366.449 840.192 369.233 840.192C370.793 840.192 371.609 839.928 372.281 838.824V840H374.201V831.672C374.201 828.792 372.689 827.808 369.641 827.808C367.361 827.808 366.137 828.408 365.297 829.8L366.737 830.808C367.409 829.704 368.177 829.584 369.617 829.584C371.489 829.584 372.281 829.968 372.281 831.672V833.064H369.425C366.785 833.064 364.937 833.904 364.937 836.496ZM372.281 835.392C372.281 838.08 371.009 838.416 369.233 838.416C367.817 838.416 366.857 837.888 366.857 836.544C366.857 835.344 367.529 834.696 369.425 834.696H372.281V835.392ZM376.27 829.728H377.806V836.304C377.806 838.8 378.622 840 381.454 840H382.486V838.176H381.526C379.918 838.176 379.726 837.48 379.726 835.824V829.728H382.486V828H379.726V825.36H377.806V828H376.27V829.728ZM385.256 840H387.176V828H385.256V840ZM385.136 825.6H387.296V823.44H385.136V825.6ZM400.046 833.184C400.046 829.752 398.222 827.808 395.054 827.808C391.91 827.808 390.062 829.776 390.062 833.184V834.768C390.062 838.08 391.862 840.192 395.054 840.192C398.51 840.192 400.046 837.888 400.046 834.768V833.184ZM395.054 838.464C392.846 838.464 391.982 836.832 391.982 834.768V833.184C391.982 830.928 393.086 829.536 395.054 829.536C397.022 829.536 398.126 830.904 398.126 833.184V834.768C398.126 836.808 397.094 838.464 395.054 838.464ZM402.568 840H404.488V832.512C404.488 830.856 405.616 829.584 407.416 829.584C408.832 829.584 410.152 830.112 410.152 832.536V840H412.072V832.512C412.072 829.152 410.272 827.808 407.704 827.808C405.928 827.808 405.088 828.264 404.488 829.176V828H402.568V840Z" fill="#0037FF"/>
<path d="M149.32 878.688C153.16 878.688 155.344 876.768 155.344 873.576C155.344 870.36 153.136 868.44 149.32 868.44H144.04V885H146.104V878.688H149.32ZM146.104 876.816V870.312H149.32C152.128 870.312 153.28 871.512 153.28 873.576C153.28 875.616 152.128 876.816 149.32 876.816H146.104ZM157.669 885H159.589V877.512C159.589 875.856 160.717 874.584 162.517 874.584C163.933 874.584 165.253 875.112 165.253 877.536V885H167.173V877.512C167.173 874.152 165.373 872.808 162.805 872.808C161.029 872.808 160.189 873.264 159.589 874.176V868.44H157.669V885ZM179.686 878.184C179.686 874.752 177.862 872.808 174.694 872.808C171.55 872.808 169.702 874.776 169.702 878.184V879.768C169.702 883.08 171.502 885.192 174.694 885.192C178.15 885.192 179.686 882.888 179.686 879.768V878.184ZM174.694 883.464C172.486 883.464 171.622 881.832 171.622 879.768V878.184C171.622 875.928 172.726 874.536 174.694 874.536C176.662 874.536 177.766 875.904 177.766 878.184V879.768C177.766 881.808 176.734 883.464 174.694 883.464ZM181.152 874.728H182.688V881.304C182.688 883.8 183.504 885 186.336 885H187.368V883.176H186.408C184.8 883.176 184.608 882.48 184.608 880.824V874.728H187.368V873H184.608V870.36H182.688V873H181.152V874.728ZM199.163 878.184C199.163 874.752 197.339 872.808 194.171 872.808C191.027 872.808 189.179 874.776 189.179 878.184V879.768C189.179 883.08 190.979 885.192 194.171 885.192C197.627 885.192 199.163 882.888 199.163 879.768V878.184ZM194.171 883.464C191.963 883.464 191.099 881.832 191.099 879.768V878.184C191.099 875.928 192.203 874.536 194.171 874.536C196.139 874.536 197.243 875.904 197.243 878.184V879.768C197.243 881.808 196.211 883.464 194.171 883.464ZM209.149 874.2C208.501 873.312 207.469 872.808 205.885 872.808C202.909 872.808 201.085 874.752 201.085 878.184V879.768C201.085 882.888 202.621 885.192 205.885 885.192C207.469 885.192 208.501 884.784 209.149 883.944V884.76C209.149 886.824 208.165 887.976 206.077 887.976C204.517 887.976 203.725 887.52 203.221 886.632L201.733 887.688C202.573 889.152 203.845 889.704 205.933 889.704C209.149 889.704 211.069 888.096 211.069 884.76V873H209.149V874.2ZM206.077 883.464C204.037 883.464 203.005 881.808 203.005 879.768V878.184C203.005 875.904 204.109 874.536 206.077 874.536C208.045 874.536 209.149 875.928 209.149 878.184V879.768C209.149 881.832 208.285 883.464 206.077 883.464ZM222.337 874.44C221.569 873.36 220.537 872.808 218.905 872.808C217.441 872.808 216.625 873.336 216.121 874.176V873H214.201V885H216.121V877.488C216.121 875.688 217.225 874.584 218.689 874.584C219.577 874.584 220.201 874.896 220.705 875.592L222.337 874.44ZM222.812 881.496C222.812 883.824 224.324 885.192 227.108 885.192C228.668 885.192 229.484 884.928 230.156 883.824V885H232.076V876.672C232.076 873.792 230.564 872.808 227.516 872.808C225.236 872.808 224.012 873.408 223.172 874.8L224.612 875.808C225.284 874.704 226.052 874.584 227.492 874.584C229.364 874.584 230.156 874.968 230.156 876.672V878.064H227.3C224.66 878.064 222.812 878.904 222.812 881.496ZM230.156 880.392C230.156 883.08 228.884 883.416 227.108 883.416C225.692 883.416 224.732 882.888 224.732 881.544C224.732 880.344 225.404 879.696 227.3 879.696H230.156V880.392ZM237.121 874.2V873H235.201V889.56H237.121V883.8C237.769 884.688 238.801 885.192 240.385 885.192C243.649 885.192 245.185 882.888 245.185 879.768V878.184C245.185 874.752 243.361 872.808 240.385 872.808C238.801 872.808 237.769 873.312 237.121 874.2ZM240.193 883.464C237.985 883.464 237.121 881.832 237.121 879.768V878.016C237.121 875.856 238.273 874.536 240.193 874.536C242.161 874.536 243.265 875.904 243.265 878.184V879.768C243.265 881.808 242.233 883.464 240.193 883.464ZM247.716 885H249.636V877.512C249.636 875.856 250.764 874.584 252.564 874.584C253.98 874.584 255.3 875.112 255.3 877.536V885H257.22V877.512C257.22 874.152 255.42 872.808 252.852 872.808C251.076 872.808 250.236 873.264 249.636 874.176V868.44H247.716V885ZM260.709 885H262.629V873H260.709V885ZM260.589 870.6H262.749V868.44H260.589V870.6ZM273.363 882.12C272.859 883.08 271.827 883.464 270.699 883.464C268.395 883.464 267.435 881.832 267.435 879.768V878.184C267.435 875.928 268.635 874.536 270.699 874.536C271.803 874.536 272.811 874.968 273.339 875.736L274.851 874.68C273.987 873.456 272.499 872.808 270.699 872.808C267.459 872.808 265.515 874.776 265.515 878.184V879.768C265.515 883.08 267.411 885.192 270.699 885.192C272.643 885.192 274.107 884.568 274.851 883.176L273.363 882.12ZM290.243 874.2C289.595 873.312 288.563 872.808 286.979 872.808C284.003 872.808 282.179 874.752 282.179 878.184V879.768C282.179 882.888 283.715 885.192 286.979 885.192C288.563 885.192 289.595 884.784 290.243 883.944V885H292.163V868.44H290.243V874.2ZM287.171 883.464C285.131 883.464 284.099 881.808 284.099 879.768V878.184C284.099 875.904 285.203 874.536 287.171 874.536C289.139 874.536 290.243 875.928 290.243 878.184V879.936C290.243 881.928 289.307 883.464 287.171 883.464ZM304.678 878.184C304.678 874.752 302.854 872.808 299.686 872.808C296.542 872.808 294.694 874.776 294.694 878.184V879.768C294.694 883.08 296.494 885.192 299.686 885.192C303.142 885.192 304.678 882.888 304.678 879.768V878.184ZM299.686 883.464C297.478 883.464 296.614 881.832 296.614 879.768V878.184C296.614 875.928 297.718 874.536 299.686 874.536C301.654 874.536 302.758 875.904 302.758 878.184V879.768C302.758 881.808 301.726 883.464 299.686 883.464ZM314.449 882.12C313.945 883.08 312.913 883.464 311.785 883.464C309.481 883.464 308.521 881.832 308.521 879.768V878.184C308.521 875.928 309.721 874.536 311.785 874.536C312.889 874.536 313.897 874.968 314.425 875.736L315.937 874.68C315.073 873.456 313.585 872.808 311.785 872.808C308.545 872.808 306.601 874.776 306.601 878.184V879.768C306.601 883.08 308.497 885.192 311.785 885.192C313.729 885.192 315.193 884.568 315.937 883.176L314.449 882.12ZM327.369 873H325.449V880.488C325.449 882.144 324.321 883.416 322.521 883.416C321.105 883.416 319.785 882.888 319.785 880.464V873H317.865V880.488C317.865 883.848 319.665 885.192 322.233 885.192C324.009 885.192 324.849 884.736 325.449 883.824V885H327.369V873ZM330.498 885H332.418V877.512C332.418 875.856 333.546 874.584 335.105 874.584C336.522 874.584 337.602 875.352 337.602 877.536V885H339.522V877.512C339.522 875.808 340.674 874.584 342.21 874.584C343.626 874.584 344.706 875.352 344.706 877.536V885H346.626V877.512C346.626 874.392 345.066 872.808 342.497 872.808C341.034 872.808 339.714 873.432 338.898 874.704C338.226 873.456 337.002 872.808 335.394 872.808C333.858 872.808 332.946 873.36 332.418 874.176V873H330.498V885ZM356.988 882.12C356.484 883.008 355.692 883.464 354.132 883.464C352.044 883.464 351.06 881.832 351.06 879.768V879.432H358.644V878.184C358.644 874.752 357.06 872.808 353.892 872.808C350.748 872.808 349.14 874.776 349.14 878.184V879.768C349.14 883.104 351.06 885.192 354.276 885.192C356.364 885.192 357.636 884.64 358.476 883.176L356.988 882.12ZM353.892 874.536C355.716 874.536 356.604 875.736 356.7 877.752H351.06C351.18 875.76 352.044 874.536 353.892 874.536ZM361.458 885H363.378V877.512C363.378 875.856 364.506 874.584 366.306 874.584C367.722 874.584 369.042 875.112 369.042 877.536V885H370.962V877.512C370.962 874.152 369.162 872.808 366.594 872.808C364.818 872.808 363.978 873.264 363.378 874.176V873H361.458V885ZM373.035 874.728H374.571V881.304C374.571 883.8 375.387 885 378.219 885H379.251V883.176H378.291C376.683 883.176 376.491 882.48 376.491 880.824V874.728H379.251V873H376.491V870.36H374.571V873H373.035V874.728ZM381.062 881.496C381.062 883.824 382.574 885.192 385.358 885.192C386.918 885.192 387.734 884.928 388.406 883.824V885H390.326V876.672C390.326 873.792 388.814 872.808 385.766 872.808C383.486 872.808 382.262 873.408 381.422 874.8L382.862 875.808C383.534 874.704 384.302 874.584 385.742 874.584C387.614 874.584 388.406 874.968 388.406 876.672V878.064H385.55C382.91 878.064 381.062 878.904 381.062 881.496ZM388.406 880.392C388.406 883.08 387.134 883.416 385.358 883.416C383.942 883.416 382.982 882.888 382.982 881.544C382.982 880.344 383.654 879.696 385.55 879.696H388.406V880.392ZM392.395 874.728H393.931V881.304C393.931 883.8 394.747 885 397.579 885H398.611V883.176H397.651C396.043 883.176 395.851 882.48 395.851 880.824V874.728H398.611V873H395.851V870.36H393.931V873H392.395V874.728ZM401.381 885H403.301V873H401.381V885ZM401.261 870.6H403.421V868.44H401.261V870.6ZM416.171 878.184C416.171 874.752 414.347 872.808 411.179 872.808C408.035 872.808 406.187 874.776 406.187 878.184V879.768C406.187 883.08 407.987 885.192 411.179 885.192C414.635 885.192 416.171 882.888 416.171 879.768V878.184ZM411.179 883.464C408.971 883.464 408.107 881.832 408.107 879.768V878.184C408.107 875.928 409.211 874.536 411.179 874.536C413.147 874.536 414.251 875.904 414.251 878.184V879.768C414.251 881.808 413.219 883.464 411.179 883.464ZM418.693 885H420.613V877.512C420.613 875.856 421.741 874.584 423.541 874.584C424.957 874.584 426.277 875.112 426.277 877.536V885H428.197V877.512C428.197 874.152 426.397 872.808 423.829 872.808C422.053 872.808 421.213 873.264 420.613 874.176V873H418.693V885Z" fill="#0037FF"/>
<path d="M719.32 878.688C723.16 878.688 725.344 876.768 725.344 873.576C725.344 870.36 723.136 868.44 719.32 868.44H714.04V885H716.104V878.688H719.32ZM716.104 876.816V870.312H719.32C722.128 870.312 723.28 871.512 723.28 873.576C723.28 875.616 722.128 876.816 719.32 876.816H716.104ZM734.331 882.12C733.827 883.008 733.035 883.464 731.475 883.464C729.387 883.464 728.403 881.832 728.403 879.768V879.432H735.987V878.184C735.987 874.752 734.403 872.808 731.235 872.808C728.091 872.808 726.483 874.776 726.483 878.184V879.768C726.483 883.104 728.403 885.192 731.619 885.192C733.707 885.192 734.979 884.64 735.819 883.176L734.331 882.12ZM731.235 874.536C733.059 874.536 733.947 875.736 734.043 877.752H728.403C728.523 875.76 729.387 874.536 731.235 874.536ZM746.938 874.44C746.17 873.36 745.138 872.808 743.506 872.808C742.042 872.808 741.226 873.336 740.722 874.176V873H738.802V885H740.722V877.488C740.722 875.688 741.826 874.584 743.29 874.584C744.178 874.584 744.802 874.896 745.306 875.592L746.938 874.44ZM756.432 874.8C755.496 873.312 754.008 872.808 752.064 872.808C749.208 872.808 747.768 874.224 747.768 876.216C747.768 878.832 749.76 879.648 751.776 879.792C754.104 879.96 754.872 880.416 754.872 881.712C754.872 882.792 753.912 883.416 752.304 883.416C750.576 883.416 749.712 883.056 749.064 882.192L747.648 883.2C748.56 884.448 749.832 885.192 752.28 885.192C755.376 885.192 756.792 883.752 756.792 881.664C756.792 878.904 754.728 878.256 752.472 878.088C750.888 877.968 749.688 877.56 749.688 876.192C749.688 875.136 750.6 874.584 752.016 874.584C753.672 874.584 754.344 874.968 754.992 875.808L756.432 874.8ZM768.811 878.184C768.811 874.752 766.987 872.808 763.819 872.808C760.675 872.808 758.827 874.776 758.827 878.184V879.768C758.827 883.08 760.627 885.192 763.819 885.192C767.275 885.192 768.811 882.888 768.811 879.768V878.184ZM763.819 883.464C761.611 883.464 760.747 881.832 760.747 879.768V878.184C760.747 875.928 761.851 874.536 763.819 874.536C765.787 874.536 766.891 875.904 766.891 878.184V879.768C766.891 881.808 765.859 883.464 763.819 883.464ZM771.333 885H773.253V877.512C773.253 875.856 774.381 874.584 776.181 874.584C777.597 874.584 778.917 875.112 778.917 877.536V885H780.837V877.512C780.837 874.152 779.037 872.808 776.469 872.808C774.693 872.808 773.853 873.264 773.253 874.176V873H771.333V885ZM783.366 881.496C783.366 883.824 784.878 885.192 787.662 885.192C789.222 885.192 790.038 884.928 790.71 883.824V885H792.63V876.672C792.63 873.792 791.118 872.808 788.07 872.808C785.79 872.808 784.566 873.408 783.726 874.8L785.166 875.808C785.838 874.704 786.606 874.584 788.046 874.584C789.918 874.584 790.71 874.968 790.71 876.672V878.064H787.854C785.214 878.064 783.366 878.904 783.366 881.496ZM790.71 880.392C790.71 883.08 789.438 883.416 787.662 883.416C786.246 883.416 785.286 882.888 785.286 881.544C785.286 880.344 785.958 879.696 787.854 879.696H790.71V880.392Z" fill="#0037FF"/>
<path d="M714.424 795L715.696 791.208H722.224L723.496 795H725.68L719.92 778.44H718L712.24 795H714.424ZM718.96 781.56L721.576 789.336H716.344L718.96 781.56ZM726.426 783V784.728H727.962V795H729.882V784.728H732.162V783H729.882V782.616C729.882 780.96 730.074 780.264 731.682 780.264H732.162V778.44H731.61C728.778 778.44 727.962 779.64 727.962 782.136V783H726.426ZM733.27 783V784.728H734.806V795H736.726V784.728H740.446V795H742.366V783H736.726V782.616C736.726 780.96 736.918 780.264 738.526 780.264H739.006V778.44H738.454C735.622 778.44 734.806 779.64 734.806 782.136V783H733.27ZM745.482 795H747.402V787.512C747.402 785.856 748.53 784.584 750.33 784.584C751.746 784.584 753.066 785.112 753.066 787.536V795H754.986V787.512C754.986 784.152 753.186 782.808 750.618 782.808C748.842 782.808 748.002 783.264 747.402 784.176V783H745.482V795ZM758.475 795H760.395V783H758.475V795ZM758.355 780.6H760.515V778.44H758.355V780.6ZM762.824 784.728H764.36V791.304C764.36 793.8 765.176 795 768.008 795H769.04V793.176H768.08C766.472 793.176 766.28 792.48 766.28 790.824V784.728H769.04V783H766.28V780.36H764.36V783H762.824V784.728ZM774.667 795.288C773.947 797.424 773.203 797.688 771.619 797.688V799.56C774.979 799.56 775.627 798.264 776.611 795.384L780.835 783H778.795L775.651 792.312L772.075 783H770.011L774.715 795.12L774.667 795.288ZM791.126 778.44H789.11V795H791.174V782.928L795.134 791.544H796.982L801.014 782.856V795H803.078V778.44H801.038L796.094 788.76L791.126 778.44ZM806.077 791.496C806.077 793.824 807.589 795.192 810.373 795.192C811.933 795.192 812.749 794.928 813.421 793.824V795H815.341V786.672C815.341 783.792 813.829 782.808 810.781 782.808C808.501 782.808 807.277 783.408 806.437 784.8L807.877 785.808C808.549 784.704 809.317 784.584 810.757 784.584C812.629 784.584 813.421 784.968 813.421 786.672V788.064H810.565C807.925 788.064 806.077 788.904 806.077 791.496ZM813.421 790.392C813.421 793.08 812.149 793.416 810.373 793.416C808.957 793.416 807.997 792.888 807.997 791.544C807.997 790.344 808.669 789.696 810.565 789.696H813.421V790.392ZM820.386 784.2V783H818.466V799.56H820.386V793.8C821.034 794.688 822.066 795.192 823.65 795.192C826.914 795.192 828.45 792.888 828.45 789.768V788.184C828.45 784.752 826.626 782.808 823.65 782.808C822.066 782.808 821.034 783.312 820.386 784.2ZM823.458 793.464C821.25 793.464 820.386 791.832 820.386 789.768V788.016C820.386 785.856 821.538 784.536 823.458 784.536C825.426 784.536 826.53 785.904 826.53 788.184V789.768C826.53 791.808 825.498 793.464 823.458 793.464ZM832.902 784.2V783H830.982V799.56H832.902V793.8C833.55 794.688 834.582 795.192 836.166 795.192C839.43 795.192 840.966 792.888 840.966 789.768V788.184C840.966 784.752 839.142 782.808 836.166 782.808C834.582 782.808 833.55 783.312 832.902 784.2ZM835.974 793.464C833.766 793.464 832.902 791.832 832.902 789.768V788.016C832.902 785.856 834.054 784.536 835.974 784.536C837.942 784.536 839.046 785.904 839.046 788.184V789.768C839.046 791.808 838.014 793.464 835.974 793.464ZM843.858 795H845.778V783H843.858V795ZM843.738 780.6H845.898V778.44H843.738V780.6ZM849.263 795H851.183V787.512C851.183 785.856 852.311 784.584 854.111 784.584C855.527 784.584 856.847 785.112 856.847 787.536V795H858.767V787.512C858.767 784.152 856.967 782.808 854.399 782.808C852.623 782.808 851.783 783.264 851.183 784.176V783H849.263V795ZM869.36 784.2C868.712 783.312 867.68 782.808 866.096 782.808C863.12 782.808 861.296 784.752 861.296 788.184V789.768C861.296 792.888 862.832 795.192 866.096 795.192C867.68 795.192 868.712 794.784 869.36 793.944V794.76C869.36 796.824 868.376 797.976 866.288 797.976C864.728 797.976 863.936 797.52 863.432 796.632L861.944 797.688C862.784 799.152 864.056 799.704 866.144 799.704C869.36 799.704 871.28 798.096 871.28 794.76V783H869.36V784.2ZM866.288 793.464C864.248 793.464 863.216 791.808 863.216 789.768V788.184C863.216 785.904 864.32 784.536 866.288 784.536C868.256 784.536 869.36 785.928 869.36 788.184V789.768C869.36 791.832 868.496 793.464 866.288 793.464Z" fill="#0037FF"/>
<line x1="143" y1="609.5" x2="1283" y2="609.5" stroke="#0037FF" stroke-width="5"/>
<path d="M723.976 823.44V833.28C723.976 836.904 722.584 838.32 720.04 838.32C717.496 838.32 716.104 836.904 716.104 833.28V823.44H714.04V833.28C714.04 838.152 716.368 840.192 720.04 840.192C723.712 840.192 726.04 838.152 726.04 833.256V823.44H723.976ZM737.588 829.8C736.652 828.312 735.164 827.808 733.22 827.808C730.364 827.808 728.924 829.224 728.924 831.216C728.924 833.832 730.916 834.648 732.932 834.792C735.26 834.96 736.028 835.416 736.028 836.712C736.028 837.792 735.068 838.416 733.46 838.416C731.732 838.416 730.868 838.056 730.22 837.192L728.804 838.2C729.716 839.448 730.988 840.192 733.436 840.192C736.532 840.192 737.948 838.752 737.948 836.664C737.948 833.904 735.884 833.256 733.628 833.088C732.044 832.968 730.844 832.56 730.844 831.192C730.844 830.136 731.756 829.584 733.172 829.584C734.828 829.584 735.5 829.968 736.148 830.808L737.588 829.8ZM747.831 837.12C747.327 838.008 746.535 838.464 744.975 838.464C742.887 838.464 741.903 836.832 741.903 834.768V834.432H749.487V833.184C749.487 829.752 747.903 827.808 744.735 827.808C741.591 827.808 739.983 829.776 739.983 833.184V834.768C739.983 838.104 741.903 840.192 745.119 840.192C747.207 840.192 748.479 839.64 749.319 838.176L747.831 837.12ZM744.735 829.536C746.559 829.536 747.447 830.736 747.543 832.752H741.903C742.023 830.76 742.887 829.536 744.735 829.536ZM760.438 829.44C759.67 828.36 758.638 827.808 757.006 827.808C755.542 827.808 754.726 828.336 754.222 829.176V828H752.302V840H754.222V832.488C754.222 830.688 755.326 829.584 756.79 829.584C757.678 829.584 758.302 829.896 758.806 830.592L760.438 829.44ZM766.308 838.128C767.22 839.568 768.924 840.192 770.7 840.192C774.18 840.192 776.268 838.224 776.268 833.184V823.44H774.204V833.184C774.204 836.976 773.052 838.32 770.7 838.32C769.428 838.32 768.612 837.816 768.084 837.12L766.308 838.128ZM789.249 833.184C789.249 829.752 787.425 827.808 784.257 827.808C781.113 827.808 779.265 829.776 779.265 833.184V834.768C779.265 838.08 781.065 840.192 784.257 840.192C787.713 840.192 789.249 837.888 789.249 834.768V833.184ZM784.257 838.464C782.049 838.464 781.185 836.832 781.185 834.768V833.184C781.185 830.928 782.289 829.536 784.257 829.536C786.225 829.536 787.329 830.904 787.329 833.184V834.768C787.329 836.808 786.297 838.464 784.257 838.464ZM801.275 828H799.355V835.488C799.355 837.144 798.227 838.416 796.427 838.416C795.011 838.416 793.691 837.888 793.691 835.464V828H791.771V835.488C791.771 838.848 793.571 840.192 796.139 840.192C797.915 840.192 798.755 839.736 799.355 838.824V840H801.275V828ZM812.54 829.44C811.772 828.36 810.74 827.808 809.108 827.808C807.644 827.808 806.828 828.336 806.324 829.176V828H804.404V840H806.324V832.488C806.324 830.688 807.428 829.584 808.892 829.584C809.78 829.584 810.404 829.896 810.908 830.592L812.54 829.44ZM813.849 840H815.769V832.512C815.769 830.856 816.897 829.584 818.697 829.584C820.113 829.584 821.433 830.112 821.433 832.536V840H823.353V832.512C823.353 829.152 821.553 827.808 818.985 827.808C817.209 827.808 816.369 828.264 815.769 829.176V828H813.849V840ZM833.73 837.12C833.226 838.008 832.434 838.464 830.874 838.464C828.786 838.464 827.802 836.832 827.802 834.768V834.432H835.386V833.184C835.386 829.752 833.802 827.808 830.634 827.808C827.49 827.808 825.882 829.776 825.882 833.184V834.768C825.882 838.104 827.802 840.192 831.018 840.192C833.106 840.192 834.378 839.64 835.218 838.176L833.73 837.12ZM830.634 829.536C832.458 829.536 833.346 830.736 833.442 832.752H827.802C827.922 830.76 828.786 829.536 830.634 829.536ZM841.182 840.288C840.462 842.424 839.718 842.688 838.134 842.688V844.56C841.494 844.56 842.142 843.264 843.126 840.384L847.35 828H845.31L842.166 837.312L838.59 828H836.526L841.23 840.12L841.182 840.288ZM857.642 823.44H855.626V840H857.69V827.928L861.65 836.544H863.498L867.53 827.856V840H869.594V823.44H867.554L862.61 833.76L857.642 823.44ZM872.593 836.496C872.593 838.824 874.105 840.192 876.889 840.192C878.449 840.192 879.265 839.928 879.937 838.824V840H881.857V831.672C881.857 828.792 880.345 827.808 877.297 827.808C875.017 827.808 873.793 828.408 872.953 829.8L874.393 830.808C875.065 829.704 875.833 829.584 877.273 829.584C879.145 829.584 879.937 829.968 879.937 831.672V833.064H877.081C874.441 833.064 872.593 833.904 872.593 836.496ZM879.937 835.392C879.937 838.08 878.665 838.416 876.889 838.416C875.473 838.416 874.513 837.888 874.513 836.544C874.513 835.344 875.185 834.696 877.081 834.696H879.937V835.392ZM886.902 829.2V828H884.982V844.56H886.902V838.8C887.55 839.688 888.582 840.192 890.166 840.192C893.43 840.192 894.966 837.888 894.966 834.768V833.184C894.966 829.752 893.142 827.808 890.166 827.808C888.582 827.808 887.55 828.312 886.902 829.2ZM889.974 838.464C887.766 838.464 886.902 836.832 886.902 834.768V833.016C886.902 830.856 888.054 829.536 889.974 829.536C891.942 829.536 893.046 830.904 893.046 833.184V834.768C893.046 836.808 892.014 838.464 889.974 838.464Z" fill="#0037FF"/>
<rect x="714.5" y="595.5" width="27" height="27" fill="#0037FF" stroke="white" stroke-width="5"/>
<rect x="1271.5" y="594.5" width="27" height="27" fill="#0037FF" stroke="white" stroke-width="5"/>
<rect x="141.5" y="595.5" width="27" height="27" fill="#0037FF" stroke="white" stroke-width="5"/>
</svg>
